AmiriLatin-BoldItalic.sfdir
StartChar: exclam
Encoding: 33 33 1
Width: 250
Flags: W
HStem: -11 135<48 119> 607 20G<184 215>
VStem: 23 222
LayerCount: 2
Fore
SplineSet
23 59 m 0
 30 95 63 124 97 124 c 27
 130 124 153 95 146 59 c 0
 139 23 107 -11 73 -11 c 27
 38 -11 16 23 23 59 c 0
200 627 m 0
 228 627 252 603 244 561 c 0
 239 534 167 302 139 216 c 0
 132 196 117 186 103 186 c 0
 98 186 97 195 97 207 c 0
 100 272 118 512 128 562 c 0
 136 603 168 627 200 627 c 0
EndSplineSet
EndChar
StartChar: quotedbl
Encoding: 34 34 2
Width: 668
Flags: W
LayerCount: 2
Fore
SplineSet
664 1396 m 27,0,1
 683 1396 683 1396 694 1394 c 128,-1,2
 705 1392 705 1392 714 1384.5 c 128,-1,3
 723 1377 723 1377 726 1362.5 c 128,-1,4
 729 1348 729 1348 728 1324.5 c 128,-1,5
 727 1301 727 1301 720 1266 c 0,6,7
 708 1206 708 1206 657.5 1082 c 128,-1,8
 607 958 607 958 590 898 c 0,9,10
 586 884 586 884 573 876 c 128,-1,11
 560 868 560 868 548 868 c 128,-1,12
 536 868 536 868 526.5 875.5 c 128,-1,13
 517 883 517 883 518 894 c 0,14,15
 526 974 526 974 526 1044.5 c 128,-1,16
 526 1115 526 1115 522 1180 c 128,-1,17
 518 1245 518 1245 518 1272 c 1,18,19
 524 1306 524 1306 569 1351 c 128,-1,20
 614 1396 614 1396 664 1396 c 27,0,1
356 1396 m 27,21,22
 375 1396 375 1396 386 1394 c 128,-1,23
 397 1392 397 1392 406 1384.5 c 128,-1,24
 415 1377 415 1377 418 1362.5 c 128,-1,25
 421 1348 421 1348 420 1324.5 c 128,-1,26
 419 1301 419 1301 412 1266 c 0,27,28
 400 1206 400 1206 349.5 1082 c 128,-1,29
 299 958 299 958 282 898 c 0,30,31
 278 884 278 884 265 876 c 128,-1,32
 252 868 252 868 240 868 c 128,-1,33
 228 868 228 868 218.5 875.5 c 128,-1,34
 209 883 209 883 210 894 c 0,35,36
 218 974 218 974 218 1044.5 c 128,-1,37
 218 1115 218 1115 214 1180 c 128,-1,38
 210 1245 210 1245 210 1272 c 1,39,40
 216 1306 216 1306 261 1351 c 128,-1,41
 306 1396 306 1396 356 1396 c 27,21,22
EndSplineSet
EndChar
StartChar: numbersign
Encoding: 35 35 3
Width: 475
VWidth: 0
Flags: HW
LayerCount: 2
Fore
SplineSet
371 369 m 1
 440 369 l 2
 445 369 447 367 447 364 c 0
 447 355 445 343 439 327 c 128
 433 311 428 304 423 304 c 2
 353 304 l 1
 324 231 l 1
 394 231 l 2
 399 231 400 230 400 226 c 0
 400 217 398 204 392 189 c 128
 386 174 381 166 376 166 c 2
 306 166 l 1
 256 23 l 2
 254 18 242 16 219 16 c 0
 201 16 192 18 192 21 c 1
 193 22 193 22 193 23 c 2
 244 166 l 1
 169 166 l 1
 119 23 l 2
 117 18 105 16 82 16 c 0
 64 16 56 18 56 21 c 1
 57 22 57 22 57 23 c 2
 107 166 l 1
 38 166 l 2
 33 166 31 168 31 172 c 0
 31 181 34 193 40 208 c 128
 46 223 51 231 56 231 c 2
 126 231 l 1
 154 304 l 1
 85 304 l 2
 80 304 78 306 78 310 c 0
 78 319 81 331 87 346 c 128
 93 361 98 369 103 369 c 2
 173 369 l 1
 223 512 l 2
 223 513 225 514 228 515 c 128
 231 516 235 517 242 518 c 128
 249 519 257 520 265 520 c 0
 270 520 274 519 279 518 c 128
 284 517 286 515 286 514 c 1
 285 513 285 513 285 512 c 2
 234 369 l 1
 310 369 l 1
 359 512 l 2
 359 513 361 514 364 515 c 128
 367 516 372 517 379 518 c 128
 386 519 393 520 401 520 c 0
 406 520 411 519 416 518 c 128
 421 517 423 515 423 514 c 1
 422 513 422 513 422 512 c 2
 371 369 l 1
291 304 m 1
 216 304 l 1
 188 231 l 1
 263 231 l 1
 291 304 l 1
EndSplineSet
EndChar
StartChar: dollar
Encoding: 36 36 4
Width: 480
UnlinkRmOvrlpSave: 1
Flags: HW
LayerCount: 2
Fore
SplineSet
146 -63 m 9
 372 654 l 2
 373 656 371 659 367 661 c 128
 363 663 358 666 353 667 c 128
 348 668 344 668 341 668 c 1
 115 -49 l 2
 114 -51 116 -54 120 -56 c 128
 124 -58 129 -61 134 -62 c 128
 139 -63 143 -63 146 -63 c 9
317 628 m 0
 287 628 257 621 226 606 c 128
 195 591 168 571 144 544 c 128
 120 517 106 489 100 458 c 0
 98 447 95 436 95 426 c 128
 95 416 96 405 98 396 c 128
 100 387 102 379 104 372 c 128
 106 365 110 357 116 349 c 128
 122 341 126 334 129 330 c 128
 132 326 138 320 146 312 c 128
 154 304 161 299 164 296 c 128
 167 293 174 287 184 279 c 0
 187 277 189 274 190 273 c 0
 192 271 197 268 203 263 c 0
 236 236 258 213 270 195 c 0
 288 169 295 144 290 120 c 0
 284 89 272 67 253 52 c 128
 234 37 212 29 188 29 c 0
 169 29 152 34 137 45 c 128
 122 56 110 70 101 86 c 128
 92 102 86 118 81 135 c 128
 76 152 74 167 75 180 c 0
 75 185 72 188 65 188 c 0
 62 188 58 186 51 183 c 128
 44 180 39 177 37 174 c 1
 35 159 32 134 30 98 c 128
 28 62 27 34 27 15 c 1
 91 -1 144 -10 188 -10 c 0
 220 -10 252 -2 284 12 c 128
 316 26 343 47 367 74 c 128
 391 101 406 131 412 164 c 0
 414 175 416 186 416 196 c 128
 416 206 416 215 416 223 c 128
 416 231 414 239 411 247 c 128
 408 255 406 263 404 268 c 128
 402 273 399 280 393 287 c 128
 387 294 383 300 381 303 c 128
 379 306 373 311 366 318 c 128
 359 325 354 329 352 331 c 128
 350 333 344 337 336 344 c 128
 328 351 323 355 321 356 c 0
 309 366 299 374 292 381 c 128
 285 388 275 396 264 408 c 128
 253 420 245 431 239 440 c 128
 233 449 228 460 225 472 c 128
 222 484 222 496 224 507 c 0
 228 527 235 542 245 555 c 128
 255 568 266 577 277 582 c 128
 288 587 300 589 313 589 c 0
 329 589 343 584 356 574 c 128
 369 564 378 553 385 538 c 128
 392 523 397 508 400 492 c 128
 403 476 404 461 403 447 c 0
 403 442 412 440 428 440 c 0
 431 440 434 442 438 446 c 1
 445 489 452 541 459 602 c 1
 451 604 439 606 424 610 c 128
 409 614 397 617 388 619 c 128
 379 621 368 623 355 625 c 128
 342 627 329 628 317 628 c 0
EndSplineSet
EndChar
StartChar: percent
Encoding: 37 37 5
Width: 683
Flags: W
HStem: -1 29<453 502> 265 28<486 534> 333 29<170 219> 599 28<203 250>
LayerCount: 2
Fore
SplineSet
517 265 m 0
 464 265 436 155 441 84 c 0
 442 68 450 28 472 28 c 0
 525 28 551 139 546 205 c 0
 544 226 537 265 517 265 c 0
522 293 m 0
 580 293 630 272 635 195 c 0
 641 102 547 -1 462 -1 c 0
 404 -1 357 33 353 95 c 0
 347 188 437 293 522 293 c 0
234 599 m 0
 181 599 153 489 158 418 c 0
 159 402 167 362 189 362 c 0
 242 362 268 473 263 539 c 0
 261 560 254 599 234 599 c 0
239 627 m 0
 297 627 347 606 352 529 c 0
 358 436 264 333 179 333 c 0
 121 333 74 367 70 429 c 0
 64 522 154 627 239 627 c 0
577 604 m 2
 141 -14 l 1
 141 -14 108 -6 108 5 c 0
 108 7 109 9 110 11 c 26
 546 628 l 1
 546 628 578 619 578 608 c 0
 578 606 578 605 577 604 c 2
EndSplineSet
EndChar
StartChar: ampersand
Encoding: 38 38 6
Width: 790
UnlinkRmOvrlpSave: 1
Flags: HW
LayerCount: 2
Fore
SplineSet
438 523 m 27
 462 523 482 516 500 501 c 128
 518 486 526 467 526 445 c 128
 526 423 521 402 510 382 c 128
 499 362 484 345 464 331 c 128
 444 317 423 304 402 293 c 128
 381 282 357 272 330 264 c 128
 303 256 281 249 262 244 c 128
 243 239 224 234 203 230 c 128
 182 226 170 223 166 222 c 0
 121 210 93 200 80 193 c 0
 61 183 51 168 51 151 c 0
 51 144 52 138 55 133 c 128
 58 128 64 122 71 115 c 0
 84 103 91 90 91 77 c 0
 91 61 86 49 76 39 c 128
 66 29 53 24 38 24 c 0
 28 24 18 26 7 29 c 1
 -4 48 -10 70 -10 96 c 0
 -10 131 1 161 22 187 c 128
 43 213 74 233 113 246 c 0
 122 249 138 253 159 259 c 128
 180 265 200 270 217 275 c 128
 234 280 253 287 275 296 c 128
 297 305 315 315 330 326 c 128
 345 337 357 351 367 369 c 128
 377 387 382 406 382 427 c 0
 382 441 378 451 371 459 c 128
 364 467 356 472 346 472 c 0
 325 472 307 460 291 436 c 128
 275 412 262 382 255 348 c 128
 248 314 244 278 244 242 c 0
 244 183 260 135 291 99 c 128
 322 63 363 44 414 44 c 0
 445 44 474 50 502 61 c 128
 530 72 553 89 571 111 c 128
 589 133 599 159 599 188 c 0
 599 196 597 204 595 212 c 128
 593 220 590 226 587 229 c 1
 546 214 519 201 506 193 c 0
 483 179 472 164 472 146 c 0
 472 141 473 131 474 118 c 1
 472 117 468 118 463 120 c 128
 458 122 454 125 450 128 c 0
 450 128 449 129 448 131 c 128
 447 133 446 135 445 136 c 128
 444 137 443 139 442 142 c 128
 441 145 440 147 439 150 c 128
 438 153 439 156 438 160 c 128
 437 164 437 168 437 172 c 0
 437 180 437 187 438 194 c 128
 439 201 440 207 443 213 c 128
 446 219 448 225 450 229 c 128
 452 233 455 238 461 243 c 128
 467 248 472 253 475 256 c 128
 478 259 484 263 492 268 c 128
 500 273 507 278 512 281 c 128
 517 284 525 288 536 295 c 128
 547 302 555 307 562 311 c 0
 578 321 593 329 604 337 c 128
 615 345 628 356 643 370 c 128
 658 384 669 398 678 412 c 128
 687 426 695 444 701 465 c 128
 707 486 711 509 711 533 c 1
 718 534 726 532 735 527 c 1
 748 517 760 503 770 483 c 128
 780 463 785 442 785 421 c 0
 785 353 741 297 652 254 c 1
 657 242 660 230 660 217 c 0
 660 185 652 154 636 126 c 128
 620 98 599 75 573 56 c 128
 547 37 518 22 485 11 c 128
 452 0 419 -5 384 -5 c 0
 359 -5 333 -2 308 4 c 128
 283 10 259 18 236 30 c 128
 213 42 193 56 176 73 c 128
 159 90 144 110 134 133 c 128
 124 156 118 182 118 209 c 0
 118 245 127 282 144 320 c 128
 161 358 184 391 212 421 c 128
 240 451 274 476 314 495 c 128
 354 514 396 523 438 523 c 27
EndSplineSet
EndChar
StartChar: quotesingle
Encoding: 39 39 7
Width: 175
Flags: HW
LayerCount: 2
Back
SplineSet
103.515625 681.640625 m 2
 118.1640625 681.640625 l 2
 127.604492188 681.640625 134.846679688 677.571289062 139.892578125 669.43359375 c 0
 144.938476562 661.295898438 147.4609375 644.206054688 147.4609375 618.1640625 c 0
 147.4609375 598.958007812 142.415039062 569.254882812 132.32421875 529.052734375 c 0
 122.233398438 488.850585938 116.2109375 458.659179688 114.2578125 438.4765625 c 0
 113.932617188 433.918945312 112.223632812 430.338867188 109.130859375 427.734375 c 0
 106.038085938 425.129882812 102.5390625 423.828125 98.6328125 423.828125 c 0
 95.0517578125 423.828125 91.796875 424.967773438 88.8671875 427.24609375 c 0
 85.9375 429.524414062 84.3095703125 432.6171875 83.984375 436.5234375 c 0
 81.0546875 467.448242188 74.7880859375 502.685546875 65.185546875 542.236328125 c 0
 55.5830078125 581.787109375 50.78125 607.747070312 50.78125 620.1171875 c 0
 50.78125 630.208007812 56.640625 642.985351562 68.359375 658.447265625 c 0
 80.078125 673.909179688 91.796875 681.640625 103.515625 681.640625 c 2
EndSplineSet
Fore
SplineSet
174 682 m 27
 180 682 184 682 188 681 c 128
 192 680 195 678 198 676 c 128
 201 674 203 670 204 665 c 128
 205 660 205 655 205 647 c 128
 205 639 203 629 201 618 c 0
 197 598 187 568 171 528 c 128
 155 488 144 458 138 438 c 0
 137 433 133 431 129 428 c 128
 125 425 121 424 117 424 c 128
 113 424 110 425 107 427 c 128
 104 429 103 433 103 437 c 0
 106 463 106 487 106 510 c 128
 106 533 105 555 104 576 c 128
 103 597 103 612 103 621 c 1
 105 632 112 645 127 660 c 128
 142 675 158 682 174 682 c 27
EndSplineSet
EndChar
StartChar: parenleft
Encoding: 40 40 8
Width: 554
VWidth: 0
Flags: HW
LayerCount: 2
Fore
SplineSet
646 1496 m 1
 652 1494 656.833333333 1490.16666667 660.5 1484.5 c 128
 664.166666667 1478.83333333 665.333333333 1474 664 1470 c 1
 631.333333333 1438.66666667 595.333333333 1397.33333333 556 1346 c 128
 516.666666667 1294.66666667 474.833333333 1230.16666667 430.5 1152.5 c 128
 386.166666667 1074.83333333 347.166666667 993.833333333 313.5 909.5 c 128
 279.833333333 825.166666667 253.666666667 731.333333333 235 628 c 128
 216.333333333 524.666666667 211.333333333 424.666666667 220 328 c 0
 231.333333333 192 254.833333333 81.3333333333 290.5 -4 c 128
 326.166666667 -89.3333333333 375.333333333 -160.666666667 438 -218 c 1
 438 -231.333333333 434 -239.333333333 426 -242 c 1
 390 -230.666666667 353.5 -209.333333333 316.5 -178 c 128
 279.5 -146.666666667 244.333333333 -106.833333333 211 -58.5 c 128
 177.666666667 -10.1666666667 149 50 125 122 c 128
 101 194 85.3333333333 271.333333333 78 354 c 0
 70.6666666667 436 72.3333333333 517 83 597 c 128
 93.6666666667 677 110.5 749.666666667 133.5 815 c 128
 156.5 880.333333333 185.166666667 944.5 219.5 1007.5 c 128
 253.833333333 1070.5 288.833333333 1125.83333333 324.5 1173.5 c 128
 360.166666667 1221.16666667 398.666666667 1266.83333333 440 1310.5 c 128
 481.333333333 1354.16666667 518.166666667 1390.16666667 550.5 1418.5 c 128
 582.833333333 1446.83333333 614.666666667 1472.66666667 646 1496 c 1
EndSplineSet
EndChar
StartChar: parenright
Encoding: 41 41 9
Width: 268
VWidth: 0
Flags: HW
LayerCount: 2
Fore
SplineSet
-28 -118 m 1
 -31 -117 -33 -116 -35 -113 c 128
 -37 -110 -38 -107 -37 -105 c 1
 -21 -90 -3 -70 16 -45 c 128
 35 -20 55 12 77 50 c 128
 99 88 118 127 134 168 c 128
 150 209 163 256 172 306 c 128
 181 356 184 405 180 452 c 0
 174 518 162 572 145 614 c 128
 128 656 104 691 73 719 c 1
 73 726 75 729 79 730 c 1
 97 724 114 714 132 699 c 128
 150 684 168 665 184 641 c 128
 200 617 213 588 225 553 c 128
 237 518 244 479 248 439 c 0
 252 399 251 360 246 321 c 128
 241 282 232 246 221 214 c 128
 210 182 196 151 179 120 c 128
 162 89 145 62 128 39 c 128
 111 16 92 -7 72 -28 c 128
 52 -49 34 -66 18 -80 c 128
 2 -94 -13 -107 -28 -118 c 1
EndSplineSet
EndChar
StartChar: asterisk
Encoding: 42 42 10
Width: 415
Flags: W
HStem: 418 78<80 167> 451 53<255 278> 461 27<184 227> 630 20G<210 240>
VStem: 161 74<300 376> 228 52<454 458 488 502>
LayerCount: 2
Fore
SplineSet
264 504 m 0x54
 288 504 325 620 381 620 c 0
 395 620 407 611 407 588 c 0
 407 527 279 511 279 480 c 0x54
 279 454 397 474 397 414 c 0
 397 391 374 369 354 369 c 0
 312 369 285 451 261 451 c 0
 239 451 253 387 235 331 c 0
 226 302 206 294 192 294 c 0
 176 294 161 309 161 326 c 0x58
 161 365 228 428 228 453 c 0
 228 458 227 461 220 461 c 0x34
 199 461 140 418 103 418 c 0
 86 418 71 431 71 447 c 0
 71 460 79 496 132 496 c 0x94
 160 496 190 488 210 488 c 0x34
 231 488 231 491 231 498 c 0
 231 521 180 560 180 602 c 0
 180 626 199 649 223 649 c 0
 257 649 255 609 255 570 c 0
 255 564 250 504 264 504 c 0x54
EndSplineSet
EndChar
StartChar: plus
Encoding: 43 43 11
Width: 456
Flags: W
HStem: 208 50<26 192 255 420>
LayerCount: 2
Back
SplineSet
206.0546875 18.5546875 m 25
 298.828125 508.7890625 l 1
 287.596679688 38.248046875 l 1
 374.0234375 492.1875 l 1025
EndSplineSet
Fore
SplineSet
27 208 m 2
 24 208 22 211 22 216 c 0
 22 229 27 245 37 258 c 1
 200 258 l 1
 232 425 l 2
 234 438 276 440 280 440 c 0
 288 440 290 437 289 433 c 2
 255 258 l 1
 419 258 l 2
 421 258 422 255 422 250 c 0
 422 237 420 220 409 208 c 1
 247 208 l 1
 213 38 l 2
 211 28 187 22 171 22 c 0
 161 22 156 26 157 30 c 2
 192 208 l 1
 27 208 l 2
EndSplineSet
EndChar
StartChar: comma
Encoding: 44 44 12
Width: 208
Flags: W
HStem: -120 252
VStem: 9 116<26 110> 43 82<-24 109>
LayerCount: 2
Back
SplineSet
190.4296875 113.28125 m 0
 193.034179688 59.8955078125 180.419921875 9.27734375 152.587890625 -38.57421875 c 0
 124.755859375 -86.42578125 82.6826171875 -126.301757812 26.3671875 -158.203125 c 1024
EndSplineSet
Fore
SplineSet
-29 -101 m 1xc0
 -21 -96 43 -48 43 0 c 0xa0
 43 28 9 28 9 66 c 0
 9 104 49 132 91 132 c 0
 103 132 117 126 122 120 c 1
 124 115 125 110 125 99 c 0
 125 68 116 24 97 -10 c 0
 66 -66 35 -89 -14 -120 c 1
 -22 -118 -29 -111 -29 -101 c 1xc0
EndSplineSet
EndChar
StartChar: hyphen
Encoding: 45 45 13
Width: 356
Flags: W
VStem: 47 251<202 260>
LayerCount: 2
Fore
SplineSet
70 261 m 2
 292 272 l 2
 297 272 298 266 298 261 c 0
 298 248 282 200 272 199 c 10
 52 188 l 2
 49 188 47 195 47 203 c 0
 47 214 59 260 70 261 c 2
EndSplineSet
EndChar
StartChar: period
Encoding: 46 46 14
Width: 434
Flags: HW
LayerCount: 2
Fore
SplineSet
15 120 m 128
 22.3333333333 157.333333333 40.8333333333 189 70.5 215 c 128
 100.166666667 241 132.333333333 254 167 254 c 0
 201 254 227.833333333 240.833333333 247.5 214.5 c 128
 267.166666667 188.166666667 273.666666667 156.666666667 267 120 c 0
 259.666666667 82 241.5 48.8333333333 212.5 20.5 c 128
 183.5 -7.83333333333 151.666666667 -22 117 -22 c 0
 81.6666666667 -22 54 -7.66666666667 34 21 c 128
 14 49.6666666667 7.66666666667 82.6666666667 15 120 c 128
EndSplineSet
EndChar
StartChar: slash
Encoding: 47 47 15
Width: 394
VWidth: 0
Flags: HW
LayerCount: 2
Fore
SplineSet
455 737 m 1
 41 -12 l 2
 39 -15 33 -19 21 -25 c 128
 9 -31 -2 -33 -12 -33 c 0
 -14 -33 -16 -32 -19 -31 c 128
 -22 -30 -22 -28 -23 -27 c 1
 392 722 l 2
 395 726 401 731 413 736 c 128
 425 741 435 743 443 743 c 0
 448 743 452 741 455 737 c 1
EndSplineSet
EndChar
StartChar: zero
Encoding: 48 48 16
Width: 514
Flags: W
HStem: -5 37<184 238> 590 37<275 330>
LayerCount: 2
Fore
SplineSet
165 148 m 0
 165 90 177 32 208 32 c 0
 268 32 350 233 350 451 c 0
 350 482 349 590 307 590 c 0
 245 590 165 388 165 148 c 0
44 288 m 0
 81 476 212 627 317 627 c 0
 444 627 501 491 469 326 c 0
 437 161 312 -5 191 -5 c 0
 81 -5 12 123 44 288 c 0
EndSplineSet
Substitution2: "'pnum' Proportional Numbers lookup 12-1" zero.prop
Substitution2: "'onum' Oldstyle Figures lookup 3-1" zero.onum
EndChar
StartChar: one
Encoding: 49 49 17
Width: 1054
Flags: HW
LayerCount: 2
Fore
SplineSet
376 958 m 1
 362.666666667 965.333333333 356 980.666666667 356 1004 c 0
 356 1009.33333333 358.666666667 1014.66666667 364 1020 c 1
 588 1140.66666667 742.666666667 1228.66666667 828 1284 c 1
 832 1284 l 2
 836.666666667 1284 841 1275.33333333 845 1258 c 128
 849 1240.66666667 850 1225.33333333 848 1212 c 1
 810.666666667 1137.33333333 778 1026 750 878 c 1
 638 270 l 2
 623.333333333 188.666666667 616.666666667 129.333333333 618 92 c 0
 618.666666667 82.6666666667 635 73.6666666667 667 65 c 128
 699 56.3333333333 721.333333333 52 734 52 c 0
 737.333333333 52 737.333333333 40 734 16 c 0
 732 4.66666666667 730 -2.66666666667 728 -6 c 1
 604.666666667 0.666666666667 499.333333333 4 412 4 c 0
 401.333333333 4 332.666666667 0.666666666667 206 -6 c 1
 202 -0.666666666667 201.666666667 10.3333333333 205 27 c 128
 208.333333333 43.6666666667 212.666666667 52 218 52 c 0
 233.333333333 52 257.333333333 56.1666666667 290 64.5 c 128
 322.666666667 72.8333333333 341.333333333 82 346 92 c 0
 360.666666667 124 371.333333333 162 378 206 c 1
 500 830 l 2
 507.333333333 866.666666667 512.5 893.5 515.5 910.5 c 128
 518.5 927.5 520.666666667 945.333333333 522 964 c 128
 523.333333333 982.666666667 522 995.333333333 518 1002 c 128
 514 1008.66666667 507.333333333 1012 498 1012 c 128
 488.666666667 1012 448 994 376 958 c 1
EndSplineSet
Substitution2: "'pnum' Proportional Numbers lookup 12-1" one.prop
Substitution2: "'onum' Oldstyle Figures lookup 3-1" one.onum
EndChar
StartChar: two
Encoding: 50 50 18
Width: 514
Flags: HW
LayerCount: 2
Fore
SplineSet
483 479 m 0
 483 459 480 439 473 420 c 128
 466 401 457 382 444 364 c 128
 431 346 417 329 403 314 c 128
 389 299 371 283 350 264 c 0
 313 231 262 188 199 136 c 1
 166 107 l 1
 333 107 l 2
 356 107 375 113 387 125 c 128
 399 137 410 152 417 172 c 0
 419 178 424 181 431 181 c 0
 436 181 442 179 448 174 c 1
 447 171 421 113 371 0 c 1
 39 0 l 2
 37 0 34 3 33 7 c 128
 32 11 32 15 32 21 c 1
 60 46 97 83 143 132 c 128
 189 181 225 221 251 254 c 0
 313 330 344 397 344 457 c 0
 344 483 337 504 323 520 c 128
 309 536 289 544 263 544 c 0
 250 544 237 541 224 536 c 128
 211 531 199 524 189 516 c 128
 179 508 172 501 167 496 c 128
 162 491 158 485 155 481 c 1
 151 481 147 484 143 488 c 128
 139 492 137 497 136 501 c 1
 139 508 147 518 159 531 c 128
 171 544 186 558 203 573 c 128
 220 588 241 600 265 611 c 128
 289 622 312 627 334 627 c 0
 358 627 383 621 405 610 c 128
 427 599 445 582 460 559 c 128
 475 536 483 509 483 479 c 0
EndSplineSet
Substitution2: "'pnum' Proportional Numbers lookup 12-1" two.prop
Substitution2: "'onum' Oldstyle Figures lookup 3-1" two.onum
EndChar
StartChar: three
Encoding: 51 51 19
Width: 1054
Flags: HW
LayerCount: 2
Fore
SplineSet
699 1284 m 0
 719.666666667 1284 740.5 1281.66666667 761.5 1277 c 128
 782.5 1272.33333333 804.5 1264 827.5 1252 c 128
 850.5 1240 870.833333333 1224.83333333 888.5 1206.5 c 128
 906.166666667 1188.16666667 920.666666667 1163.66666667 932 1133 c 128
 943.333333333 1102.33333333 949 1068 949 1030 c 0
 949 990 940 952.333333333 922 917 c 128
 904 881.666666667 881.166666667 852.666666667 853.5 830 c 128
 825.833333333 807.333333333 799.333333333 789 774 775 c 128
 748.666666667 761 725 750.666666667 703 744 c 1
 763.666666667 736.666666667 818.833333333 707.333333333 868.5 656 c 128
 918.166666667 604.666666667 943 544 943 474 c 0
 943 400.666666667 925 332.5 889 269.5 c 128
 853 206.5 807.333333333 155.166666667 752 115.5 c 128
 696.666666667 75.8333333333 637.5 45 574.5 23 c 128
 511.5 1 451 -10 393 -10 c 0
 278.333333333 -10 188.333333333 12.6666666667 123 58 c 1
 111 72.6666666667 105 92.6666666667 105 118 c 0
 105 166 117.333333333 200.333333333 142 221 c 128
 166.666666667 241.666666667 193.666666667 252 223 252 c 0
 234.333333333 252 244.833333333 250.333333333 254.5 247 c 128
 264.166666667 243.666666667 272 240 278 236 c 128
 284 232 289.833333333 225.833333333 295.5 217.5 c 128
 301.166666667 209.166666667 305.166666667 202.666666667 307.5 198 c 128
 309.833333333 193.333333333 313.333333333 185.833333333 318 175.5 c 128
 322.666666667 165.166666667 325.666666667 158.666666667 327 156 c 0
 339.666666667 131.333333333 357.833333333 110.166666667 381.5 92.5 c 128
 405.166666667 74.8333333333 429 66 453 66 c 0
 513 66 566 100 612 168 c 128
 658 236 681 324 681 432 c 0
 681 502 666.833333333 554.5 638.5 589.5 c 128
 610.166666667 624.5 563 642 497 642 c 0
 471.666666667 642 443 638 411 630 c 1
 405.666666667 638.666666667 403 650.666666667 403 666 c 0
 403 676.666666667 405.666666667 686 411 694 c 1
 445 698 479.5 706.5 514.5 719.5 c 128
 549.5 732.5 582.833333333 749.166666667 614.5 769.5 c 128
 646.166666667 789.833333333 671.833333333 815.666666667 691.5 847 c 128
 711.166666667 878.333333333 721 912 721 948 c 0
 721 1005.33333333 706.5 1049.33333333 677.5 1080 c 128
 648.5 1110.66666667 611.666666667 1126 567 1126 c 0
 546.333333333 1126 525 1121.66666667 503 1113 c 128
 481 1104.33333333 460.833333333 1093 442.5 1079 c 128
 424.166666667 1065 408.166666667 1051.66666667 394.5 1039 c 128
 380.833333333 1026.33333333 368.166666667 1013.66666667 356.5 1001 c 128
 344.833333333 988.333333333 338.333333333 981.333333333 337 980 c 1
 329 980 320.333333333 985.333333333 311 996 c 128
 301.666666667 1006.66666667 297 1016.66666667 297 1026 c 1
 330.333333333 1084 387.333333333 1141.5 468 1198.5 c 128
 548.666666667 1255.5 625.666666667 1284 699 1284 c 0
EndSplineSet
Substitution2: "'pnum' Proportional Numbers lookup 12-1" three.prop
Substitution2: "'onum' Oldstyle Figures lookup 3-1" three.onum
EndChar
StartChar: four
Encoding: 52 52 20
Width: 514
Flags: HW
LayerCount: 2
Fore
SplineSet
468 627 m 0
 472 627 477 624 482 617 c 128
 487 610 490 606 489 602 c 2
 418 236 l 1
 470 236 l 2
 475 236 478 231 478 221 c 0
 478 213 477 203 473 193 c 128
 469 183 465 176 461 171 c 1
 405 171 l 1
 373 2 l 1
 350 -3 326 -5 303 -5 c 0
 298 -5 294 -5 289 -5 c 128
 284 -5 280 -4 275 -3 c 128
 270 -2 266 -2 262 -1 c 128
 258 0 255 0 253 1 c 128
 251 2 250 4 250 5 c 2
 283 171 l 1
 34 171 l 1
 31 173 29 176 27 181 c 128
 25 186 25 190 26 193 c 1
 441 611 l 2
 451 621 460 627 468 627 c 0
336 454 m 25
 122 236 l 1
 294 236 l 1
 336 454 l 25
EndSplineSet
Substitution2: "'pnum' Proportional Numbers lookup 12-1" four.prop
Substitution2: "'onum' Oldstyle Figures lookup 3-1" four.onum
EndChar
StartChar: five
Encoding: 53 53 21
Width: 514
Flags: W
HStem: -5 37<177 267> 323 83<203 295> 518 103<224 418>
VStem: 49 108<49 111> 330 125<150 288>
LayerCount: 2
Fore
SplineSet
455 241 m 0
 455 91 299 -5 189 -5 c 0
 124 -5 80 12 58 28 c 1
 54 33 49 47 49 58 c 0
 49 111 85 123 106 123 c 0
 141 123 148 95 157 76 c 0
 169 53 195 32 219 32 c 0
 275 32 330 101 330 211 c 0
 330 283 294 323 227 323 c 3
 207 323 172 318 153 312 c 1
 150 314 146 320 142 325 c 1
 175 457 200 577 209 620 c 1
 298 620 407 620 456 631 c 1
 462 627 466 619 466 616 c 1
 466 597 430 541 420 527 c 1
 376 517 246 518 229 518 c 1
 226 506 210 428 200 383 c 1
 227 401 280 406 291 406 c 0
 366 406 455 349 455 241 c 0
EndSplineSet
Substitution2: "'pnum' Proportional Numbers lookup 12-1" five.prop
Substitution2: "'onum' Oldstyle Figures lookup 3-1" five.onum
EndChar
StartChar: six
Encoding: 54 54 22
Width: 514
VWidth: 0
Flags: HW
LayerCount: 2
Fore
SplineSet
319 365 m 0
 356 365 386 353 407 327 c 128
 428 301 438 267 438 223 c 0
 438 182 427 143 406 108 c 128
 385 73 357 44 321 24 c 128
 285 4 247 -6 206 -6 c 0
 186 -6 166 -1 147 7 c 128
 128 15 110 27 94 42 c 128
 78 57 66 76 56 99 c 128
 46 122 41 147 41 174 c 0
 41 221 51 268 72 316 c 128
 93 364 123 411 165 456 c 0
 202 497 248 533 302 566 c 128
 356 599 411 619 469 627 c 1
 474 623 476 616 474 604 c 1
 414 579 363 546 322 508 c 128
 281 470 249 423 223 367 c 0
 187 288 168 209 168 130 c 0
 168 97 172 73 181 55 c 128
 190 37 201 28 214 28 c 0
 231 28 248 40 263 62 c 128
 278 84 290 109 298 139 c 128
 306 169 311 197 311 223 c 0
 311 284 294 314 260 314 c 0
 249 314 241 314 237 312 c 1
 234 314 232 319 232 326 c 0
 232 332 242 340 263 350 c 128
 284 360 302 365 319 365 c 0
EndSplineSet
Substitution2: "'pnum' Proportional Numbers lookup 12-1" six.prop
Substitution2: "'onum' Oldstyle Figures lookup 3-1" six.onum
EndChar
StartChar: seven
Encoding: 55 55 23
Width: 514
Flags: HW
LayerCount: 2
Fore
SplineSet
35 13 m 1
 59 41 107 107 177 211 c 128
 247 315 314 416 376 514 c 1
 166 514 l 2
 155 514 145 512 136 507 c 128
 127 502 119 495 112 486 c 128
 105 477 99 469 94 461 c 128
 89 453 84 444 78 432 c 1
 76 429 72 427 66 426 c 0
 57 425 51 428 46 434 c 1
 51 446 60 465 73 494 c 128
 86 523 98 549 109 573 c 128
 120 597 127 612 131 621 c 1
 393 622 l 2
 402 622 413 622 426 623 c 128
 439 624 450 624 459 625 c 128
 468 626 474 626 475 626 c 0
 480 626 481 621 479 611 c 0
 479 609 477 607 476 605 c 128
 475 603 473 600 471 596 c 128
 469 592 466 588 464 584 c 128
 462 580 458 575 454 569 c 128
 450 563 445 557 442 552 c 2
 86 -8 l 1
 83 -9 79 -10 72 -10 c 0
 68 -10 65 -9 59 -8 c 128
 53 -7 48 -5 42 -1 c 128
 36 3 34 7 35 13 c 1
EndSplineSet
Substitution2: "'pnum' Proportional Numbers lookup 12-1" seven.prop
Substitution2: "'onum' Oldstyle Figures lookup 3-1" seven.onum
EndChar
StartChar: eight
Encoding: 56 56 24
Width: 1054
Flags: W
LayerCount: 2
Fore
SplineSet
660 1284 m 0,0,1
 712 1284 712 1284 759 1275 c 128,-1,2
 806 1266 806 1266 851.5 1245.5 c 128,-1,3
 897 1225 897 1225 924.5 1190.5 c 128,-1,4
 952 1156 952 1156 966.5 1105.5 c 128,-1,5
 981 1055 981 1055 966 986 c 1,6,7
 932 807 932 807 698 710 c 1,8,9
 689 705 689 705 696 698 c 0,10,11
 920 504 920 504 884 324 c 0,12,13
 867 240 867 240 819 173.5 c 128,-1,14
 771 107 771 107 705.5 67.5 c 128,-1,15
 640 28 640 28 566.5 8 c 128,-1,16
 493 -12 493 -12 418 -12 c 0,17,18
 317 -12 317 -12 234.5 34 c 128,-1,19
 152 80 152 80 111 161 c 128,-1,20
 70 242 70 242 88 336 c 0,21,22
 95 372 95 372 110.5 405 c 128,-1,23
 126 438 126 438 141.5 461 c 128,-1,24
 157 484 157 484 186 508.5 c 128,-1,25
 215 533 215 533 232 545.5 c 128,-1,26
 249 558 249 558 285.5 576.5 c 128,-1,27
 322 595 322 595 334 600.5 c 128,-1,28
 346 606 346 606 382 622 c 0,29,30
 386 623 386 623 387.5 628 c 128,-1,31
 389 633 389 633 386 634 c 1,32,33
 325 688 325 688 286 778.5 c 128,-1,34
 247 869 247 869 266 970 c 1,35,36
 292 1101 292 1101 402 1192.5 c 128,-1,37
 512 1284 512 1284 660 1284 c 0,0,1
642 1216 m 0,38,39
 587 1216 587 1216 545.5 1158.5 c 128,-1,40
 504 1101 504 1101 504 1016 c 0,41,42
 504 875 504 875 628 766 c 1,43,-1
 636 762 l 1,44,45
 642 762 642 762 646 768 c 0,46,47
 738 895 738 895 738 1038 c 0,48,49
 738 1069 738 1069 734 1096.5 c 128,-1,50
 730 1124 730 1124 721 1153 c 128,-1,51
 712 1182 712 1182 691.5 1199 c 128,-1,52
 671 1216 671 1216 642 1216 c 0,38,39
456 62 m 0,53,54
 520 62 520 62 567.5 115 c 128,-1,55
 615 168 615 168 626 240 c 0,56,57
 652 404 652 404 461.566335631 563.293765269 c 0,58,59
 457 567 457 567 456 568 c 0,60,61
 452 570 452 570 448 570 c 0,62,63
 446 570 446 570 442 566 c 1,64,65
 375 455 375 455 352 302 c 0,66,67
 336 189 336 189 364.5 125.5 c 128,-1,68
 393 62 393 62 456 62 c 0,53,54
EndSplineSet
Substitution2: "'pnum' Proportional Numbers lookup 12-1" eight.prop
Substitution2: "'onum' Oldstyle Figures lookup 3-1" eight.onum
EndChar
StartChar: nine
Encoding: 57 57 25
Width: 514
VWidth: 0
Flags: W
HStem: -6 23<42 63> 256 51<169 264> 593 34<268 328>
VStem: 76 128<318 493> 347 127<342 535>
LayerCount: 2
Fore
SplineSet
195 256 m 0
 120 256 76 312 76 398 c 0
 76 525 185 627 309 627 c 0
 387 627 474 558 474 447 c 0
 474 357 436 258 350 165 c 0
 285 94 171 12 46 -6 c 1
 40 -2 40 12 41 18 c 1
 161 69 240 143 292 254 c 0
 332 341 347 424 347 491 c 0
 347 558 326 593 301 593 c 0
 246 593 204 473 204 398 c 0
 204 350 215 307 255 307 c 0
 264 307 271 307 277 310 c 1
 280 308 282 303 282 295 c 3
 282 283 231 256 195 256 c 0
EndSplineSet
Substitution2: "'pnum' Proportional Numbers lookup 12-1" nine.prop
Substitution2: "'onum' Oldstyle Figures lookup 3-1" nine.onum
EndChar
StartChar: colon
Encoding: 58 58 26
Width: 236
Flags: W
HStem: -11 135<43 115> 298 135<102 174>
VStem: 18 183
LayerCount: 2
Fore
SplineSet
77 367 m 0
 84 403 118 433 152 433 c 27
 185 433 207 403 200 367 c 0
 193 331 161 298 127 298 c 27
 92 298 70 331 77 367 c 0
18 59 m 0
 25 95 58 124 92 124 c 27
 125 124 148 95 141 59 c 0
 134 23 102 -11 68 -11 c 27
 33 -11 11 23 18 59 c 0
EndSplineSet
EndChar
StartChar: semicolon
Encoding: 59 59 27
Width: 476
Flags: W
LayerCount: 2
Fore
SplineSet
-36 -206 m 1,0,1
 -19 -195 -19 -195 10.5 -170 c 128,-1,2
 40 -145 40 -145 76 -94.5 c 128,-1,3
 112 -44 112 -44 112 0 c 0,4,5
 112 19 112 19 101 35 c 128,-1,6
 90 51 90 51 77 60.5 c 128,-1,7
 64 70 64 70 53 90 c 128,-1,8
 42 110 42 110 42 136 c 0,9,10
 42 193 42 193 92.5 231.5 c 128,-1,11
 143 270 143 270 210 270 c 0,12,13
 228 270 228 270 247 262.5 c 128,-1,14
 266 255 266 255 274 246 c 1,15,16
 280 231 280 231 280 202 c 0,17,18
 280 87 280 87 222 -20 c 1,19,20
 177 -100 177 -100 128.5 -146 c 128,-1,21
 80 -192 80 -192 -4 -246 c 1,22,23
 -17 -243 -17 -243 -26.5 -231.5 c 128,-1,24
 -36 -220 -36 -220 -36 -206 c 1,0,1
404 752 m 0,25,26
 393 695 393 695 349.5 652.5 c 128,-1,27
 306 610 306 610 254 610 c 0,28,29
 201 610 201 610 171 653 c 128,-1,30
 141 696 141 696 152 752 c 128,-1,31
 163 808 163 808 207.5 847 c 128,-1,32
 252 886 252 886 304 886 c 0,33,34
 355 886 355 886 384.5 846.5 c 128,-1,35
 414 807 414 807 404 752 c 0,25,26
EndSplineSet
EndChar
StartChar: less
Encoding: 60 60 28
Width: 454
Flags: HW
LayerCount: 2
Fore
SplineSet
101 204 m 1
 361 50 l 1
 361 50 363 49 362 44 c 0
 361 37 343 -15 337 -15 c 0
 336 -15 335 -14 333 -13 c 2
 28 173 l 2
 16 181 16 195 19 212 c 0
 21 223 30 230 40 235 c 2
 415 418 l 2
 417 419 419 420 420 420 c 0
 423 420 424 413 424 377 c 0
 424 364 420 355 420 355 c 1
 101 204 l 1
EndSplineSet
EndChar
StartChar: equal
Encoding: 61 61 29
Width: 529
Flags: HW
LayerCount: 2
Fore
SplineSet
54 160 m 2
 51 160 49 163 49 168 c 0
 49 183 53 197 63 210 c 1
 445 210 l 2
 447 210 448 207 448 202 c 0
 448 183 444 169 436 160 c 1
 54 160 l 2
80 297 m 2
 77 297 75 300 75 305 c 0
 75 320 80 334 90 347 c 1
 472 347 l 2
 474 347 475 344 475 339 c 0
 475 320 470 306 462 297 c 1
 80 297 l 2
EndSplineSet
EndChar
StartChar: greater
Encoding: 62 62 30
Width: 934
Flags: HW
LayerCount: 2
Fore
SplineSet
682 418 m 1
 150 728 l 2
 149.333333333 728.666666667 148.833333333 729.333333333 148.5 730 c 128
 148.166666667 730.666666667 147.666666667 732.666666667 147 736 c 128
 146.333333333 739.333333333 146.666666667 742.666666667 148 746 c 0
 176.666666667 822 194.666666667 860 202 860 c 1
 210 856 l 1
 832 482 l 2
 851.333333333 470 859.333333333 454 856 434 c 0
 848.666666667 394 832 367.333333333 806 354 c 2
 36 -26 l 2
 30.6666666667 -28.6666666667 27.3333333333 -30 26 -30 c 0
 20.6666666667 -30 17.5 -11.6666666667 16.5 25 c 128
 15.5 61.6666666667 16 83.3333333333 18 90 c 0
 18.6666666667 92.6666666667 19.6666666667 95 21 97 c 128
 22.3333333333 99 23.5 100.333333333 24.5 101 c 2
 26 102 l 1
 682 418 l 1
EndSplineSet
EndChar
StartChar: question
Encoding: 63 63 31
Width: 366
Flags: HW
LayerCount: 2
Fore
SplineSet
40 59 m 128
 44 77 53 92 67 105 c 128
 81 118 97 124 114 124 c 0
 131 124 143 118 153 105 c 128
 163 92 166 77 163 59 c 0
 159 40 150 24 136 10 c 128
 122 -4 106 -11 89 -11 c 0
 72 -11 59 -4 49 10 c 128
 39 24 36 41 40 59 c 128
200 210 m 1
 200 207 198 203 195 199 c 128
 192 195 190 192 187 190 c 1
 181 190 172 193 160 199 c 128
 148 205 135 213 123 222 c 128
 111 231 100 243 91 256 c 128
 82 269 77 282 77 295 c 0
 77 305 78 315 81 324 c 128
 84 333 87 341 91 347 c 128
 95 353 100 359 107 366 c 128
 114 373 120 378 124 381 c 128
 128 384 134 388 142 393 c 128
 150 398 155 401 156 402 c 0
 162 406 178 415 205 429 c 128
 232 443 251 456 263 466 c 0
 283 483 293 500 293 521 c 0
 293 546 281 560 257 560 c 0
 247 560 233 552 213 535 c 128
 193 518 178 510 168 510 c 0
 154 510 142 514 134 523 c 128
 126 532 121 543 121 556 c 128
 121 569 122 582 126 595 c 1
 145 619 173 631 208 631 c 0
 248 631 284 616 316 587 c 128
 348 558 365 524 365 488 c 0
 365 458 359 433 347 412 c 128
 335 391 313 370 279 349 c 0
 275 347 264 340 246 331 c 128
 228 322 215 315 205 308 c 0
 180 291 167 275 167 261 c 0
 167 241 178 224 200 210 c 1
EndSplineSet
EndChar
StartChar: at
Encoding: 64 64 32
Width: 1556
Flags: HW
LayerCount: 2
Back
SplineSet
33.669921875 456 m 1
 53.9042329152 560.095599675 93.0352430372 659.561899648 151.062952241 754.398899919 c 0
 209.090661444 849.23590019 278.189420009 930.928300244 358.359227935 999.476100081 c 0
 438.529035861 1068.02389992 528.706481723 1122.58149987 628.891565522 1163.14889992 c 0
 729.07664932 1203.71629997 829.764812375 1224 930.956054688 1224 c 0
 998.583689069 1224 1062.95975605 1214.85185185 1124.08425564 1196.55555556 c 0
 1185.20875523 1178.25925926 1239.71546457 1152.44444444 1287.60438368 1119.11111111 c 0
 1335.49330279 1085.77777778 1378.19841708 1045.74074074 1415.71972656 999 c 0
 1453.24103605 952.259259259 1482.21231788 900.444444445 1502.63357205 843.555555556 c 0
 1523.05482622 786.666666667 1536.36003817 725.518518518 1542.5492079 660.111111111 c 0
 1548.73837763 594.703703704 1544.44528229 526.666666667 1529.66992188 456 c 1
 1509.43561614 351.904427598 1470.30461829 252.438129898 1412.27692832 157.6011069 c 0
 1354.24923836 62.7640839011 1285.15054681 -18.9283206987 1204.98085366 -87.4761068996 c 0
 1124.81116051 -156.023893101 1034.63391213 -210.581488501 934.4491085 -251.1488931 c 0
 834.264304876 -291.7162977 733.576516105 -312 632.385742188 -312 c 0
 564.758103837 -312 500.381988626 -302.851851852 439.257396557 -284.555555556 c 0
 378.132804488 -266.259259259 323.625974578 -240.444444444 275.736906829 -207.111111111 c 0
 227.84783908 -173.777777778 185.142568053 -133.740740741 147.62109375 -87 c 0
 110.099619447 -40.2592592593 81.128180886 11.5555555555 60.7067780671 68.4444444444 c 0
 40.2853752483 125.333333333 26.9800427348 186.481481482 20.7907805266 251.888888889 c 0
 14.6015183184 317.296296296 18.8945654345 385.333333333 33.669921875 456 c 1
135.28125 454 m 1
 152.822198539 544.23838462 186.657123443 630.531601039 236.786024712 712.879649256 c 0
 286.914925981 795.227697473 346.614140504 866.24125548 415.883668281 925.920323279 c 0
 485.153196058 985.59939108 563.141735848 1033.11902602 649.849287651 1068.47922811 c 0
 736.556839454 1103.8394302 823.737610758 1121.51953125 911.391601562 1121.51953125 c 0
 969.985443192 1121.51953125 1025.72288653 1113.54127936 1078.60393157 1097.58477557 c 0
 1131.48497661 1081.62827178 1178.58295235 1059.1315285 1219.8978588 1030.09454572 c 0
 1261.21276524 1001.05756293 1298.03978106 966.199346848 1330.37890625 925.519897461 c 0
 1362.71803144 884.840448074 1387.642595 839.777777778 1405.15259693 790.331886574 c 0
 1422.66259886 740.885995371 1434.05321784 687.775889456 1439.32445385 631.00156883 c 0
 1444.59568986 574.227248204 1440.82087191 515.226725261 1428 454 c 1
 1410.45930815 363.761461951 1376.62431983 277.467963174 1326.49503504 195.119503671 c 0
 1276.36575025 112.771044168 1216.66606746 41.7571506075 1147.39598669 -17.922177011 c 0
 1078.12590592 -77.6015046297 1000.13684766 -125.121383855 913.428811892 -160.481814688 c 0
 826.720776129 -195.842245521 739.539752895 -213.522460938 651.885742188 -213.522460938 c 0
 593.291916177 -213.522460938 537.554569292 -205.544159313 484.673701534 -189.587556062 c 0
 431.792833775 -173.630952811 384.695099159 -151.134078414 343.380497685 -122.09693287 c 0
 302.065896211 -93.0597873263 265.239193858 -58.2013858748 232.900390625 -17.5217285156 c 0
 200.561587392 23.1579288435 175.637337296 68.2208116321 158.127640336 117.66691985 c 0
 140.617943375 167.113028067 129.22756553 220.223346475 123.9565068 276.997875072 c 0
 118.685448069 333.77240367 122.460362469 392.773111979 135.28125 454 c 1
EndSplineSet
Fore
SplineSet
1050 264 m 1
 1039.33333333 216 1037.33333333 180.333333333 1044 157 c 128
 1050.66666667 133.666666667 1068 122 1096 122 c 0
 1119.33333333 122 1146.66666667 134.333333333 1178 159 c 128
 1209.33333333 183.666666667 1239.83333333 216.166666667 1269.5 256.5 c 128
 1299.16666667 296.833333333 1324.33333333 347.833333333 1345 409.5 c 128
 1365.66666667 471.166666667 1376 534.666666667 1376 600 c 0
 1376 671.333333333 1367.5 735.666666667 1350.5 793 c 128
 1333.5 850.333333333 1307.5 900.666666667 1272.5 944 c 128
 1237.5 987.333333333 1191 1020.83333333 1133 1044.5 c 128
 1075 1068.16666667 1007.33333333 1080 930 1080 c 0
 873.333333333 1080 811.166666667 1068 743.5 1044 c 128
 675.833333333 1020 608 984.333333333 540 937 c 128
 472 889.666666667 410 834.833333333 354 772.5 c 128
 298 710.166666667 252.333333333 636.166666667 217 550.5 c 128
 181.666666667 464.833333333 164 376 164 284 c 0
 164 196 177.5 116.5 204.5 45.5 c 128
 231.5 -25.5 278 -91.3333333333 344 -152 c 0
 364 -170.666666667 392.666666667 -189.333333333 430 -208 c 1
 414 -221.333333333 391.333333333 -228 362 -228 c 0
 351.333333333 -228 333.333333333 -223.333333333 308 -214 c 128
 282.666666667 -204.666666667 260.666666667 -192 242 -176 c 0
 120.666666667 -71.3333333333 60 74.6666666667 60 262 c 0
 60 360 78 455.666666667 114 549 c 128
 150 642.333333333 198.5 725.333333333 259.5 798 c 128
 320.5 870.666666667 389.666666667 935 467 991 c 128
 544.333333333 1047 626.166666667 1089.83333333 712.5 1119.5 c 128
 798.833333333 1149.16666667 883.333333333 1164 966 1164 c 0
 1038 1164 1103.5 1153.83333333 1162.5 1133.5 c 128
 1221.5 1113.16666667 1271 1086 1311 1052 c 128
 1351 1018 1384.66666667 977.833333333 1412 931.5 c 128
 1439.33333333 885.166666667 1459.16666667 836.666666667 1471.5 786 c 128
 1483.83333333 735.333333333 1490 682.666666667 1490 628 c 0
 1490 544 1475.83333333 464.666666667 1447.5 390 c 128
 1419.16666667 315.333333333 1383.66666667 253 1341 203 c 128
 1298.33333333 153 1251.83333333 109.5 1201.5 72.5 c 128
 1151.16666667 35.5 1104 8.5 1060 -8.5 c 128
 1016 -25.5 978.666666667 -34 948 -34 c 0
 898.666666667 -34 861.333333333 -21.3333333333 836 4 c 128
 810.666666667 29.3333333333 798 66.6666666667 798 116 c 0
 798 122.666666667 799.333333333 135.333333333 802 154 c 0
 803.333333333 162 806 174.666666667 810 192 c 1
 784 146.666666667 742.333333333 101 685 55 c 128
 627.666666667 9 572 -14 518 -14 c 128
 464 -14 421.833333333 9 391.5 55 c 128
 361.166666667 101 346 159.333333333 346 230 c 0
 346 316 366.166666667 400.833333333 406.5 484.5 c 128
 446.833333333 568.166666667 497.333333333 639.666666667 558 699 c 128
 618.666666667 758.333333333 685 806.333333333 757 843 c 128
 829 879.666666667 896.666666667 898 960 898 c 0
 993.333333333 898 1031.5 894 1074.5 886 c 128
 1117.5 878 1150.66666667 870 1174 862 c 1
 1050 264 l 1
848 788 m 0
 804 788 762.5 764.166666667 723.5 716.5 c 128
 684.5 668.833333333 653.833333333 607.666666667 631.5 533 c 128
 609.166666667 458.333333333 598 382 598 304 c 0
 598 209.333333333 622 162 670 162 c 0
 703.333333333 162 741.166666667 203.5 783.5 286.5 c 128
 825.833333333 369.5 857.333333333 461.333333333 878 562 c 1
 918 764 l 1
 904 780 880.666666667 788 848 788 c 0
EndSplineSet
EndChar
StartChar: A
Encoding: 65 65 33
Width: 605
Flags: W
HStem: -4 36<-57 -2 88 141 309 370 521 568> 220 47<193 346> 627 20G<382 391>
LayerCount: 2
Fore
SplineSet
60 131 m 2
 347 609 l 2
 355 622 377 646 387 646 c 0
 395 646 404 643 405 640 c 1
 495 145 l 2
 501 115 503 95 507 74 c 0
 515 34 564 32 571 32 c 1
 574 23 569 0 565 -4 c 1
 529 -2 485 4 445 4 c 0
 403 4 339 -2 306 -4 c 1
 302 1 309 32 314 32 c 1
 330 32 355 38 370 50 c 0
 377 55 381 59 382 66 c 0
 384 75 356 215 356 215 c 1
 356 215 354 219 351 219 c 0
 317 221 286 220 264 220 c 0
 227 220 201 220 169 219 c 0
 166 219 163 216 162 214 c 1
 162 214 129 159 113 132 c 0
 99 108 81 72 80 65 c 0
 75 40 137 32 144 32 c 1
 148 25 141 0 137 -4 c 1
 106 0 80 4 40 4 c 0
 -2 4 -27 0 -59 -4 c 1
 -62 0 -60 20 -54 31 c 1
 -43 31 3 46 15 62 c 0
 36 89 43 104 60 131 c 2
308 465 m 1
 193 273 l 1
 193 273 193 270 195 270 c 0
 213 268 248 267 269 267 c 0
 297 267 314 267 342 269 c 0
 344 269 346 273 346 273 c 1
 308 465 l 1
EndSplineSet
EndChar
StartChar: B
Encoding: 66 66 34
Width: 575
Flags: HW
LayerCount: 2
Fore
SplineSet
256 362 m 1
 303 362 l 2
 326 362 347 372 365 392 c 128
 383 412 395 440 402 476 c 1
 418 563 402 605 353 605 c 0
 326 605 310 602 305 594 c 0
 304 592 302 589 301 586 c 128
 300 583 299 579 298 575 c 128
 297 571 296 568 295 565 c 128
 294 562 293 557 292 550 c 128
 291 543 290 537 289 534 c 2
 256 362 l 1
248 324 m 1
 206 106 l 1
 201 74 199 56 202 50 c 0
 206 42 224 38 257 38 c 0
 268 38 279 40 291 45 c 128
 303 50 314 57 326 67 c 128
 338 77 349 91 358 109 c 128
 367 127 374 148 379 172 c 1
 384 190 385 209 384 227 c 128
 383 245 380 262 375 276 c 128
 370 290 360 302 346 311 c 128
 332 320 316 324 295 324 c 2
 248 324 l 1
387 645 m 0
 405 645 421 642 437 639 c 128
 453 636 468 631 483 623 c 128
 498 615 511 606 520 594 c 128
 529 582 537 567 541 550 c 128
 545 533 545 512 540 490 c 1
 536 472 529 454 518 438 c 128
 507 422 496 409 482 398 c 128
 468 387 456 379 445 372 c 128
 434 365 424 360 416 357 c 1
 412 355 410 354 410 352 c 1
 419 351 430 347 441 342 c 128
 452 337 463 329 475 320 c 128
 487 311 496 300 505 288 c 128
 514 276 520 261 524 243 c 128
 528 225 528 207 524 188 c 0
 518 156 504 127 481 99 c 128
 458 71 431 48 398 29 c 0
 379 18 357 11 333 6 c 128
 309 1 288 -3 272 -3 c 128
 256 -3 233 -3 203 -3 c 1
 -8 -3 l 1
 -10 0 -10 6 -8 15 c 128
 -6 24 -4 30 -1 33 c 1
 36 36 57 42 61 50 c 0
 68 63 76 94 85 142 c 1
 155 501 l 2
 156 504 157 510 158 518 c 128
 159 526 161 531 162 534 c 128
 163 537 163 542 164 548 c 128
 165 554 166 559 166 562 c 128
 166 565 167 569 167 573 c 128
 167 577 167 581 167 584 c 128
 167 587 167 590 166 593 c 0
 165 600 146 605 110 608 c 1
 109 611 109 618 111 627 c 128
 113 636 115 642 118 645 c 1
 145 643 188 642 247 642 c 0
 258 642 280 642 311 643 c 128
 342 644 368 645 387 645 c 0
EndSplineSet
EndChar
StartChar: C
Encoding: 67 67 35
Width: 630
Flags: W
HStem: -7 43<284 442> 609 42<351 511>
VStem: 51 141<160 395> 577 33<469 532>
LayerCount: 2
Fore
SplineSet
433 609 m 0
 305 609 191 467 191 262 c 0
 191 172 228 36 356 36 c 0
 402 36 445 54 474 78 c 0
 519 115 558 191 561 199 c 1
 575 199 585 195 591 188 c 1
 589 177 538 47 524 39 c 0
 469 9 413 -7 329 -7 c 0
 139 -7 51 139 51 270 c 0
 51 514 260 651 433 651 c 0
 493 651 571 635 623 623 c 1
 623 612 612 494 610 482 c 0
 609 476 600 469 589 469 c 3
 584 469 580 469 577 473 c 1
 575 511 548 609 433 609 c 0
EndSplineSet
EndChar
StartChar: D
Encoding: 68 68 36
Width: 1440
Flags: HW
LayerCount: 2
Fore
SplineSet
592 1094 m 2
 434 282 l 1
 419.333333333 195.333333333 414 142.666666667 418 124 c 0
 420.666666667 110.666666667 433 99.6666666667 455 91 c 128
 477 82.3333333333 500.666666667 78 526 78 c 0
 679.333333333 78 799.833333333 121.333333333 887.5 208 c 128
 975.166666667 294.666666667 1038 434.666666667 1076 628 c 0
 1113.33333333 820 1099 970 1033 1078 c 128
 967 1186 863.333333333 1240 722 1240 c 0
 666.666666667 1240 634 1232 624 1216 c 0
 621.333333333 1211.33333333 618.833333333 1206.16666667 616.5 1200.5 c 128
 614.166666667 1194.83333333 612 1187.5 610 1178.5 c 128
 608 1169.5 606.333333333 1162.16666667 605 1156.5 c 128
 603.666666667 1150.83333333 601.5 1140.66666667 598.5 1126 c 128
 595.5 1111.33333333 593.333333333 1100.66666667 592 1094 c 2
792 1320 m 1
 934 1320 1053.5 1291.5 1150.5 1234.5 c 128
 1247.5 1177.5 1315.33333333 1097 1354 993 c 128
 1392.66666667 889 1398.66666667 769.333333333 1372 634 c 0
 1354.66666667 542.666666667 1326.5 460.666666667 1287.5 388 c 128
 1248.5 315.333333333 1202.5 254.666666667 1149.5 206 c 128
 1096.5 157.333333333 1035.83333333 117 967.5 85 c 128
 899.166666667 53 828.166666667 29.8333333333 754.5 15.5 c 128
 680.833333333 1.16666666667 602.666666667 -6 520 -6 c 2
 -16 -6 l 1
 -19.3333333333 0 -19.3333333333 12.1666666667 -16 30.5 c 128
 -12.6666666667 48.8333333333 -8 61.3333333333 -2 68 c 1
 73.3333333333 74 115.333333333 85.3333333333 124 102 c 0
 139.333333333 129.333333333 156 192 174 290 c 1
 318 1026 l 2
 319.333333333 1032.66666667 321.5 1044.16666667 324.5 1060.5 c 128
 327.5 1076.83333333 329.666666667 1088.16666667 331 1094.5 c 128
 332.333333333 1100.83333333 334 1110.33333333 336 1123 c 128
 338 1135.66666667 339.333333333 1145 340 1151 c 128
 340.666666667 1157 341.333333333 1164.5 342 1173.5 c 128
 342.666666667 1182.5 342.833333333 1190.16666667 342.5 1196.5 c 128
 342.166666667 1202.83333333 341.333333333 1208.66666667 340 1214 c 0
 337.333333333 1229.33333333 299.333333333 1240 226 1246 c 1
 223.333333333 1252.66666667 224 1265.16666667 228 1283.5 c 128
 232 1301.83333333 236.666666667 1314 242 1320 c 1
 296.666666667 1316 384.666666667 1314 506 1314 c 0
 536 1314 585.166666667 1314.83333333 653.5 1316.5 c 128
 721.833333333 1318.16666667 768 1319.33333333 792 1320 c 1
EndSplineSet
EndChar
StartChar: E
Encoding: 69 69 37
Width: 1144
Flags: W
LayerCount: 2
Back
SplineSet
213.919921875 4 m 0,0,1
 162.833502122 4 162.833502122 4 125.204761381 1.96622222222 c 0,2,3
 87.5760206404 -0.0675555555556 87.5760206404 -0.0675555555556 48.6350823688 -3.29955555556 c 0,4,5
 9.69414409722 -6.53155555556 9.69414409722 -6.53155555556 -24.080078125 -8 c 1,2,3
 -28.080078125 -4 -28.080078125 -4 -28.080078125 10 c 0,4,5
 -28.080078125 21.094017094 -28.080078125 21.094017094 -24.8856336806 33.2735042735 c 0,6,7
 -21.6911892361 45.452991453 -21.6911892361 45.452991453 -17.9411892361 52.7264957265 c 0,8,9
 -14.1911892361 60 -14.1911892361 60 -12.080078125 60 c 0,6,7
 8.70370565878 60 8.70370565878 60 52.5947148236 76.239673391 c 0,8,9
 96.4857239884 92.4793467819 96.4857239884 92.4793467819 105.919921875 110 c 0,8,9
 130.730140853 152.854014599 130.730140853 152.854014599 155.919921875 286 c 2,10,-1
 301.919921875 1042 l 2,11,12
 302.794921875 1047.25 302.794921875 1047.25 307.619276086 1073.92526982 c 0,13,14
 312.443630297 1100.60053963 312.443630297 1100.60053963 315.158067664 1117.41848018 c 0,15,16
 317.872505031 1134.23642074 317.872505031 1134.23642074 320.244276086 1158.11276982 c 0,17,18
 322.61604714 1181.9891189 322.61604714 1181.9891189 321.919921875 1198 c 1,13,14
 319.160700564 1214.55532787 319.160700564 1214.55532787 279.067485132 1235.27766393 c 0,15,16
 238.974269701 1256 238.974269701 1256 219.919921875 1256 c 0,15,16
 215.919921875 1256 215.919921875 1256 215.919921875 1270 c 0,17,18
 215.919921875 1310 215.919921875 1310 229.919921875 1324 c 1,19,20
 390.119921875 1318 390.119921875 1318 491.919921875 1318 c 0,21,22
 598.426648332 1318.9103139 598.426648332 1318.9103139 792.33995177 1323.45515695 c 0,23,24
 986.253255208 1328 986.253255208 1328 1093.91992188 1328 c 1,23,24
 1089.91992188 1268 1089.91992188 1268 1089.91992188 1146 c 2,25,26
 1089.91992188 1032 l 1,27,28
 1079.91992188 1022 1079.91992188 1022 1045.91992188 1022 c 0,29,30
 1024.71992187 1022 1024.71992187 1022 1021.91992188 1036 c 1,31,32
 1000.69769965 1111.79365079 1000.69769965 1111.79365079 935.693139122 1165.8968254 c 0,33,34
 870.688578591 1220 870.688578591 1220 797.919921875 1220 c 2,33,-1
 727.919921875 1220 l 2,34,35
 663.419921875 1220 663.419921875 1220 635.44933364 1215.33823529 c 0,36,37
 607.478745404 1210.67647059 607.478745404 1210.67647059 601.919921875 1194 c 0,36,37
 577.543451287 1127.83529412 577.543451287 1127.83529412 561.919921875 1038 c 1,38,-1
 501.919921875 730 l 2,39,40
 500.554027835 723.170529801 500.554027835 723.170529801 522.344117712 720.585264901 c 0,41,42
 544.134207589 718 544.134207589 718 579.919921875 718 c 2,41,-1
 737.919921875 718 l 2,42,43
 754.873729615 718 754.873729615 718 763.701802052 718.472640382 c 0,44,45
 772.529874488 718.945280765 772.529874488 718.945280765 783.138041698 724.444026284 c 0,46,47
 793.746208909 729.942771804 793.746208909 729.942771804 798.886987237 735.231899642 c 0,48,49
 804.027765565 740.521027479 804.027765565 740.521027479 814.101004661 757.925507766 c 0,50,51
 824.174243758 775.329988053 824.174243758 775.329988053 831.405505755 791.324492234 c 0,52,53
 838.636767753 807.318996416 838.636767753 807.318996416 853.919921875 842 c 0,44,45
 859.519921875 856 859.519921875 856 885.919921875 856 c 0,46,47
 917.253255208 856 917.253255208 856 923.919921875 846 c 1,48,-1
 851.919921875 468 l 1,49,50
 849.031032986 465.111111111 849.031032986 465.111111111 834.975477431 462.555555556 c 0,51,52
 820.919921875 460 820.919921875 460 809.919921875 460 c 0,51,52
 787.119921875 460 787.119921875 460 783.919921875 476 c 1,53,54
 782.200497415 525.863309353 782.200497415 525.863309353 778.284347576 548.707516745 c 0,55,56
 774.368197737 571.551724138 774.368197737 571.551724138 761.919921875 584 c 0,55,56
 747.541873095 598.37804878 747.541873095 598.37804878 714.552326056 603.18902439 c 0,57,58
 681.562779018 608 681.562779018 608 611.919921875 608 c 0,57,58
 477.919921875 608 477.919921875 608 473.919921875 590 c 2,59,-1
 415.919921875 282 l 2,60,61
 399.919921875 202 399.919921875 202 399.919921875 164 c 0,62,63
 399.919921875 138.965174129 399.919921875 138.965174129 405.8184726 129.074626866 c 0,64,65
 411.717023324 119.184079602 411.717023324 119.184079602 437.354704484 113.592039801 c 0,66,67
 462.992385643 108 462.992385643 108 521.919921875 108 c 2,64,-1
 569.919921875 108 l 2,65,66
 621.879381334 108 621.879381334 108 683.152738024 122.62654321 c 0,67,68
 744.426094715 137.25308642 744.426094715 137.25308642 789.919921875 160 c 0,67,68
 824.408110851 177.244094488 824.408110851 177.244094488 873.892232131 227.532835626 c 0,69,70
 923.37635341 277.821576763 923.37635341 277.821576763 957.919921875 340 c 0,69,70
 963.919921875 352 963.919921875 352 985.919921875 352 c 0,71,72
 1000.25325521 352 1000.25325521 352 1018.65415611 348.148648649 c 0,73,74
 1037.05505701 344.297297297 1037.05505701 344.297297297 1039.91992188 340 c 1,73,74
 1031.47108467 323.705813953 1031.47108467 323.705813953 996.232740146 256.736611891 c 0,75,76
 960.994395627 189.767409828 960.994395627 189.767409828 944.200853604 156.825888109 c 0,77,78
 927.40731158 123.88436639 927.40731158 123.88436639 904.920240146 75.3616118909 c 0,79,80
 882.433168713 26.8388573921 882.433168713 26.8388573921 871.919921875 -4 c 1,75,76
 766.919921875 -4 766.919921875 -4 530.919921875 0 c 0,77,78
 294.919921875 4 294.919921875 4 213.919921875 4 c 0,0,1
EndSplineSet
Fore
SplineSet
506 1314 m 0,0,1
 551 1314 551 1314 815.5 1320.5 c 128,-1,2
 1080 1327 1080 1327 1114 1328 c 1,3,4
 1110 1261 1110 1261 1110 1032 c 1,5,6
 1100 1022 1100 1022 1064 1022 c 0,7,8
 1041 1022 1041 1022 1038 1038 c 0,9,10
 1030 1085 1030 1085 1020.5 1117 c 128,-1,11
 1011 1149 1011 1149 993.5 1179.5 c 128,-1,12
 976 1210 976 1210 946.5 1225 c 128,-1,13
 917 1240 917 1240 876 1240 c 2,14,-1
 722 1240 l 2,15,16
 639 1240 639 1240 624 1216 c 0,17,18
 620 1209 620 1209 616.5 1200.5 c 128,-1,19
 613 1192 613 1192 610 1178.5 c 128,-1,20
 607 1165 607 1165 605 1156.5 c 128,-1,21
 603 1148 603 1148 598.5 1126 c 128,-1,22
 594 1104 594 1104 592 1094 c 2,23,-1
 522 736 l 2,24,25
 521 730 521 730 531.5 725 c 128,-1,26
 542 720 542 720 560 717 c 128,-1,27
 578 714 578 714 598 714 c 2,28,-1
 696 714 l 2,29,30
 778 714 778 714 813.5 740 c 128,-1,31
 849 766 849 766 888 854 c 0,32,33
 894 870 894 870 912 870 c 0,34,35
 939 870 939 870 946 860 c 1,36,-1
 872 476 l 1,37,38
 864 468 864 468 836 468 c 0,39,40
 814 468 814 468 814 484 c 0,41,42
 810 587 810 587 772 606 c 0,43,44
 744 620 744 620 634 620 c 0,45,46
 499 620 499 620 494 592 c 2,47,-1
 434 282 l 1,48,49
 412 152 412 152 418 124 c 0,50,51
 422 105 422 105 455.5 94.5 c 128,-1,52
 489 84 489 84 530 84 c 2,53,-1
 654 84 l 2,54,55
 765 84 765 84 840 150 c 0,56,57
 899 202 899 202 976 340 c 0,58,59
 982 352 982 352 1006 352 c 0,60,61
 1020 352 1020 352 1037.5 348 c 128,-1,62
 1055 344 1055 344 1058 340 c 1,63,64
 1054 333 1054 333 1023.5 274.5 c 128,-1,65
 993 216 993 216 982 194 c 128,-1,66
 971 172 971 172 949 127.5 c 128,-1,67
 927 83 927 83 914 52 c 128,-1,68
 901 21 901 21 892 -4 c 1,69,70
 491 -4 491 -4 240 -5 c 0,71,72
 8 -5 8 -5 -16 -6 c 1,73,74
 -21 3 -21 3 -16 30.5 c 128,-1,75
 -11 58 -11 58 -2 68 c 1,76,77
 111 77 111 77 124 102 c 0,78,79
 147 143 147 143 174 290 c 1,80,-1
 318 1026 l 2,81,82
 320 1036 320 1036 324.5 1060.5 c 128,-1,83
 329 1085 329 1085 331 1094.5 c 128,-1,84
 333 1104 333 1104 336 1123 c 128,-1,85
 339 1142 339 1142 340 1151 c 128,-1,86
 341 1160 341 1160 342 1173.5 c 128,-1,87
 343 1187 343 1187 342.5 1196.5 c 128,-1,88
 342 1206 342 1206 340 1214 c 0,89,90
 336 1237 336 1237 226 1246 c 1,91,92
 222 1256 222 1256 228 1283.5 c 128,-1,93
 234 1311 234 1311 242 1320 c 1,94,95
 324 1314 324 1314 506 1314 c 0,0,1
EndSplineSet
EndChar
StartChar: F
Encoding: 70 70 38
Width: 512
Flags: HW
LayerCount: 2
Back
SplineSet
115.1953125 2.9296875 m 0
 98.287109375 2.9296875 83.4697265625 2.60546875 70.744140625 1.9560546875 c 0
 58.0185546875 1.3076171875 43.8154296875 0.3291015625 28.1357421875 -0.9794921875 c 0
 12.4560546875 -2.2890625 -0.841796875 -3.263671875 -11.7578125 -3.90625 c 1
 -13.0595703125 -2.6044921875 -13.7109375 0.3251953125 -13.7109375 4.8828125 c 0
 -13.7109375 8.494140625 -13.19140625 12.2822265625 -12.1513671875 16.2470703125 c 0
 -11.111328125 20.2119140625 -9.9814453125 23.3779296875 -8.7607421875 25.7451171875 c 0
 -7.5400390625 28.11328125 -6.5859375 29.296875 -5.8984375 29.296875 c 0
 0.8671875 29.296875 11.3935546875 31.9404296875 25.6806640625 37.2265625 c 0
 39.96875 42.5126953125 48.6474609375 48.0078125 51.71875 53.7109375 c 0
 59.794921875 67.6611328125 67.9326171875 96.306640625 76.1328125 139.6484375 c 2
 147.421875 508.7890625 l 2
 147.70703125 510.498046875 148.634765625 515.694335938 150.205078125 524.377929688 c 0
 151.775390625 533.060546875 153.001953125 540.139648438 153.885742188 545.614257812 c 0
 154.76953125 551.088867188 155.59765625 557.712890625 156.369140625 565.484375 c 0
 157.141601562 573.256835938 157.4140625 579.749023438 157.1875 584.9609375 c 1
 156.2890625 590.349609375 149.314453125 596.416992188 136.263671875 603.163085938 c 0
 123.211914062 609.908203125 113.584960938 613.28125 107.3828125 613.28125 c 0
 106.081054688 613.28125 105.4296875 615.559570312 105.4296875 620.1171875 c 0
 105.4296875 633.137695312 107.708007812 641.926757812 112.265625 646.484375 c 1
 164.4140625 644.53125 207.057617188 643.5546875 240.1953125 643.5546875 c 0
 274.904296875 643.8515625 323.65234375 644.739257812 386.438476562 646.21875 c 0
 449.225585938 647.698242188 498.134765625 648.4375 533.1640625 648.4375 c 1
 531.862304688 628.90625 531.2109375 599.284179688 531.2109375 559.5703125 c 2
 531.2109375 503.90625 l 1
 527.956054688 500.651367188 520.793945312 499.0234375 509.7265625 499.0234375 c 0
 502.825195312 499.0234375 498.918945312 501.301757812 498.0078125 505.859375 c 1
 491.099609375 530.532226562 477.065429688 551.673828125 455.905273438 569.28515625 c 0
 434.744140625 586.897460938 412.3203125 595.703125 388.6328125 595.703125 c 2
 354.453125 595.703125 l 2
 333.45703125 595.703125 318.40625 594.944335938 309.301757812 593.426757812 c 0
 300.196289062 591.909179688 294.739257812 588.436523438 292.9296875 583.0078125 c 0
 284.994140625 561.469726562 278.484375 536.079101562 273.3984375 506.8359375 c 1
 244.1015625 356.4453125 l 2
 243.657226562 354.22265625 246.981445312 352.689453125 254.07421875 351.848632812 c 0
 261.166992188 351.006835938 270.538085938 350.5859375 282.1875 350.5859375 c 2
 359.3359375 350.5859375 l 2
 364.854492188 350.5859375 369.05078125 350.663085938 371.924804688 350.81640625 c 0
 374.798828125 350.970703125 377.961914062 351.942382812 381.415039062 353.732421875 c 0
 384.868164062 355.522460938 387.431640625 357.278320312 389.104492188 359 c 0
 390.778320312 360.721679688 393.254882812 364.415039062 396.534179688 370.081054688 c 0
 399.8125 375.74609375 402.62890625 381.182617188 404.983398438 386.388671875 c 0
 407.336914062 391.595703125 411.001953125 399.84375 415.9765625 411.1328125 c 0
 417.799804688 415.690429688 423.0078125 417.96875 431.6015625 417.96875 c 0
 441.80078125 417.96875 447.986328125 416.340820312 450.15625 413.0859375 c 1
 415 228.515625 l 1
 414.059570312 227.575195312 411.301757812 226.689453125 406.7265625 225.857421875 c 0
 402.151367188 225.025390625 398.073242188 224.609375 394.4921875 224.609375 c 0
 387.0703125 224.609375 382.838867188 227.213867188 381.796875 232.421875 c 1
 381.237304688 248.653320312 380.3203125 260.487304688 379.044921875 267.923828125 c 0
 377.770507812 275.359375 375.106445312 281.104492188 371.0546875 285.15625 c 0
 366.374023438 289.836914062 358.665039062 292.959960938 347.92578125 294.526367188 c 0
 337.1875 296.091796875 320.482421875 296.875 297.8125 296.875 c 0
 254.192382812 296.875 231.731445312 293.9453125 230.4296875 288.0859375 c 2
 202.109375 137.6953125 l 1
 196.25 108.3984375 193.3203125 86.5888671875 193.3203125 72.265625 c 0
 193.3203125 64.4013671875 196.005859375 57.5634765625 201.375976562 51.751953125 c 0
 206.747070312 45.9404296875 212.821289062 41.6630859375 219.600585938 38.919921875 c 0
 226.37890625 36.1767578125 234.236328125 34.005859375 243.172851562 32.408203125 c 0
 252.110351562 30.810546875 258.731445312 29.892578125 263.038085938 29.654296875 c 0
 267.34375 29.416015625 271.123046875 29.296875 274.375 29.296875 c 0
 276.76171875 29.296875 277.087890625 24.0888671875 275.3515625 13.671875 c 0
 273.3984375 3.90625 271.770507812 -1.953125 270.46875 -3.90625 c 1
 186.159179688 0.6513671875 134.401367188 2.9296875 115.1953125 2.9296875 c 0
EndSplineSet
Fore
SplineSet
247 642 m 0
 262 642 312 643 398 645 c 128
 484 647 533 648 544 648 c 1
 543 626 542 579 542 504 c 1
 539 501 532 499 520 499 c 0
 513 499 508 502 507 507 c 0
 504 522 501 535 498 545 c 128
 495 555 491 566 485 576 c 128
 479 586 472 593 462 598 c 128
 452 603 441 605 428 605 c 2
 353 605 l 2
 326 605 310 602 305 594 c 0
 304 592 302 589 301 586 c 128
 300 583 299 579 298 575 c 128
 297 571 296 568 295 565 c 128
 294 562 293 557 292 550 c 128
 291 543 290 537 289 534 c 2
 254 355 l 2
 254 353 256 352 259 350 c 128
 262 348 266 347 272 346 c 128
 278 345 284 345 291 345 c 2
 339 345 l 2
 366 345 384 349 396 357 c 128
 408 365 420 384 433 413 c 0
 435 418 438 421 444 421 c 0
 453 421 459 419 461 416 c 1
 425 229 l 1
 422 226 416 225 407 225 c 0
 400 225 396 227 396 232 c 0
 395 266 388 286 376 292 c 0
 367 297 345 299 309 299 c 0
 265 299 242 294 240 285 c 2
 213 142 l 2
 212 139 211 133 210 125 c 128
 209 117 208 111 207 108 c 128
 206 105 205 100 204 94 c 128
 203 88 202 84 202 81 c 128
 202 78 201 74 201 70 c 128
 201 66 201 61 201 58 c 128
 201 55 201 53 202 50 c 0
 203 42 225 35 265 32 c 1
 266 29 266 23 264 14 c 128
 262 5 261 -1 258 -4 c 1
 218 1 172 3 121 3 c 0
 77 3 33 1 -9 -4 c 1
 -11 -1 -10 5 -8 14 c 128
 -6 23 -4 29 -1 32 c 1
 35 35 56 41 61 50 c 0
 68 63 76 94 85 142 c 1
 155 501 l 2
 156 504 157 510 158 518 c 128
 159 526 161 531 162 534 c 128
 163 537 163 542 164 548 c 128
 165 554 166 559 166 562 c 128
 166 565 167 569 167 573 c 128
 167 577 167 581 167 584 c 128
 167 587 167 590 166 593 c 0
 165 600 146 605 110 608 c 1
 109 611 109 618 111 627 c 128
 113 636 115 642 118 645 c 1
 145 643 188 642 247 642 c 0
EndSplineSet
EndChar
StartChar: G
Encoding: 71 71 39
Width: 662
Flags: W
HStem: -7 43<284 415> 268 36<394 447 594 643> 609 42<351 511>
VStem: 51 141<160 395> 450 103<99 209> 577 33<469 532>
LayerCount: 2
Fore
SplineSet
433 651 m 0
 493 651 571 635 623 623 c 1
 623 612 612 494 610 482 c 0
 609 476 600 469 589 469 c 3
 584 469 580 469 577 473 c 1
 575 511 547 609 433 609 c 0
 305 609 191 467 191 262 c 0
 191 172 228 36 356 36 c 0
 389 36 405 44 412 49 c 0
 416 52 420 56 422 65 c 0
 425 80 436 144 445 191 c 0
 449 211 451 220 450 241 c 0
 448 265 402 268 391 268 c 0
 386 268 391 299 397 304 c 1
 443 302 494 298 540 298 c 0
 578 298 610 302 647 304 c 1
 648 291 643 268 640 268 c 1
 633 268 606 262 594 255 c 0
 588 251 579 232 575 213 c 0
 568 177 560 129 553 96 c 0
 551 87 554 72 553 67 c 0
 551 56 530 41 517 35 c 0
 465 10 413 -7 329 -7 c 0
 139 -7 51 139 51 270 c 0
 51 514 260 651 433 651 c 0
EndSplineSet
EndChar
StartChar: H
Encoding: 72 72 40
Width: 1414
Flags: HW
LayerCount: 2
Back
SplineSet
729.919921875 738 m 0
 877.919921875 738 952.586588542 742 953.919921875 750 c 2
 1009.91992188 1046 l 1
 1021.91992188 1118 1027.91992188 1169.33333333 1027.91992188 1200 c 0
 1027.91992188 1212.07796853 1024.16718065 1222.23029924 1016.66169819 1230.45699213 c 0
 1009.15621574 1238.68368502 999.442948193 1244.4415236 987.521895559 1247.73050787 c 0
 975.600842928 1251.01949213 965.376610472 1253.21998688 956.849198191 1254.33199213 c 0
 948.32178591 1255.44399738 940.012027138 1256 931.919921875 1256 c 0
 929.253255208 1256 927.919921875 1260 927.919921875 1268 c 0
 927.919921875 1277.22222222 929.608093918 1287.88261649 932.984438004 1299.9811828 c 0
 936.36078209 1312.07974911 940.00594338 1320.08602151 943.919921875 1324 c 1
 961.16436632 1323.17883598 988.295230518 1321.63174603 1025.31251447 1319.35873016 c 0
 1062.32979842 1317.08571429 1095.62362558 1315.29100529 1125.19399595 1313.97460317 c 0
 1154.76436632 1312.65820106 1182.33967496 1312 1207.91992188 1312 c 0
 1232.33144451 1312 1258.11992188 1312.65575049 1285.28535397 1313.96725146 c 0
 1312.45078607 1315.27875243 1342.87383134 1317.07836257 1376.55448978 1319.36608187 c 0
 1410.23514821 1321.65380117 1434.69029225 1323.19844055 1449.91992188 1324 c 1
 1449.91992188 1312 l 2
 1449.91992188 1298.68641975 1448.63650803 1287.46666667 1446.06968033 1278.34074074 c 0
 1443.50285263 1269.21481481 1440.95856922 1263.20987654 1438.43683009 1260.32592593 c 0
 1435.91509096 1257.44197531 1433.74278822 1256 1431.91992188 1256 c 0
 1422.08208404 1256 1401.94545922 1250.42519685 1371.51004743 1239.27559055 c 0
 1341.07463564 1228.12598425 1323.21126046 1217.7007874 1317.91992188 1208 c 0
 1315.07492181 1202.74769219 1312.42636315 1197.5270432 1309.97424589 1192.33805302 c 0
 1307.52212862 1187.14906284 1305.16492496 1181.38459951 1302.9026349 1175.04466303 c 0
 1300.64034483 1168.70472656 1298.71222614 1163.36722372 1297.11827881 1159.03215453 c 0
 1295.52433148 1154.69708533 1293.7267986 1148.55950815 1291.72568017 1140.61942298 c 0
 1289.72456174 1132.67933781 1288.22442658 1126.85898175 1287.22527469 1123.1583548 c 0
 1286.22612281 1119.45772785 1284.72488623 1112.72755808 1282.72156494 1102.96784547 c 0
 1280.71824365 1093.20813287 1279.38271755 1086.68544485 1278.71498663 1083.39978141 c 0
 1278.04725571 1080.11411798 1276.57894094 1072.57187687 1274.31004231 1060.77305809 c 0
 1272.04114368 1048.97423932 1270.5777702 1041.38321995 1269.91992188 1038 c 2
 1121.91992188 278 l 2
 1120.33510436 269.811776156 1118.08871993 258.724258543 1115.18076859 244.73744716 c 0
 1112.27281725 230.750635777 1110.15758611 220.189671004 1108.83507516 213.05455284 c 0
 1107.51256421 205.919434677 1106.02246202 196.843066117 1104.36476859 185.82544716 c 0
 1102.70707516 174.807828203 1101.55184401 163.926863429 1100.89907516 153.18255284 c 0
 1100.24630631 142.438242251 1099.91992188 130.710724638 1099.91992188 118 c 0
 1099.91992188 104.128205128 1113.35047743 90.9935897436 1140.21158854 78.5961538462 c 0
 1167.07269965 66.1987179487 1186.30881077 60 1197.91992188 60 c 0
 1200.58658855 60 1201.91992188 56.6666666667 1201.91992188 50 c 0
 1201.91992188 41.8888888889 1200.2404347 31.6752136752 1196.88146034 19.358974359 c 0
 1193.52248598 7.04273504274 1189.86863983 -2.07692307692 1185.91992188 -8 c 1
 1183.17918113 -7.85185185185 1149.66066261 -5.48148148148 1085.36436632 -0.888888888889 c 0
 1021.06807002 3.7037037037 972.586588542 6 939.919921875 6 c 0
 906.47547743 6 858.697699653 3.83333333333 796.586588542 -0.5 c 0
 734.475477431 -4.83333333333 696.253255208 -7.33333333333 681.919921875 -8 c 1
 680.586588542 -6.66666666667 679.919921875 -2.66666666667 679.919921875 4 c 0
 679.919921875 14.25 681.097458107 26.1458333333 683.452530571 39.6875 c 0
 685.807603034 53.2291666667 687.963400136 60 689.919921875 60 c 0
 704.38456834 60 726.218715339 64.7708929139 755.422362872 74.3126787417 c 0
 784.626010405 83.8544645694 802.791863406 94.4169049889 809.919921875 106 c 0
 822.300874256 127.047619047 838.300874256 181.714285714 857.919921875 270 c 1
 925.919921875 608 l 1
 925.919921875 610 l 2
 925.919921875 618 852.586588542 622 705.919921875 622 c 0
 556.586588542 622 480.586588542 616.666666667 477.919921875 606 c 2
 413.919921875 278 l 2
 413.146186294 274.002366164 411.55677206 265.901983645 409.151679174 253.698852442 c 0
 406.746586288 241.495721239 405.2257063 233.626515433 404.589039211 230.091235022 c 0
 403.952372122 226.555954611 402.798810905 219.991729903 401.128355559 210.398560897 c 0
 399.457900213 200.805391891 398.380168913 193.519276463 397.89516166 188.540214614 c 0
 397.410154407 183.561152764 396.746389108 176.833662749 395.903865763 168.35774457 c 0
 395.061342418 159.881826391 394.520054268 151.686089972 394.280001311 143.770535313 c 0
 394.039948354 135.854980655 393.919921875 127.264802217 393.919921875 118 c 0
 393.919921875 104.116104869 407.048890129 90.9784644195 433.306826637 78.5870786517 c 0
 459.564763145 66.1956928839 478.435794891 60 489.919921875 60 c 0
 492.586588542 60 493.919921875 56.6666666667 493.919921875 50 c 0
 493.919921875 41.4 492.534864404 31.0057471264 489.764749461 18.8172413793 c 0
 486.994634518 6.62873563218 483.713025323 -2.31034482759 479.919921875 -8 c 1
 463.908225968 -7.13450292397 438.596157919 -5.41520467836 403.983717728 -2.84210526316 c 0
 369.371277537 -0.269005847953 337.106524746 1.84795321637 307.189459355 3.50877192982 c 0
 277.272393964 5.16959064327 250.182548138 6 225.919921875 6 c 0
 192.642144097 6 146.256576464 3.84963768116 86.7632189764 -0.451086956522 c 0
 27.2698614885 -4.7518115942 -10.3445708786 -7.26811594203 -26.080078125 -8 c 1
 -27.4134114583 -6.66666666667 -28.080078125 -2.66666666667 -28.080078125 4 c 0
 -28.080078125 13.8666666667 -26.5873245018 25.6666666667 -23.6018172554 39.4 c 0
 -20.6163100091 53.1333333333 -18.1090636323 60 -16.080078125 60 c 0
 -1.32738995296 60 20.2513820259 64.4472248957 48.6562378115 73.3416746872 c 0
 77.0610935972 82.2361244787 94.8156549517 92.4555662496 101.919921875 104 c 0
 110.921390304 119.302496329 120.568277557 145.173907957 130.860583636 181.614234884 c 0
 141.152889715 218.054561811 148.172669128 247.516483517 151.919921875 270 c 2
 301.919921875 1046 l 2
 313.919921875 1110 319.919921875 1158.66666667 319.919921875 1192 c 0
 319.919921875 1206.41628763 312.576006531 1218.88499025 297.888175843 1229.40610786 c 0
 283.200345156 1239.92722547 268.999286955 1246.98982023 255.28500124 1250.59389214 c 0
 241.570715526 1254.19796405 231.115689071 1256 223.919921875 1256 c 0
 222.586588542 1256 221.919921875 1258.66666667 221.919921875 1264 c 0
 221.919921875 1273.66666667 223.208383413 1285.37179487 225.78530649 1299.11538462 c 0
 228.362229567 1312.85897436 231.073768029 1321.15384615 233.919921875 1324 c 1
 253.27317858 1323.07841635 278.980401511 1321.51877395 311.04159067 1319.3210728 c 0
 343.102779829 1317.12337165 372.577222854 1315.35376756 399.464919746 1314.01226054 c 0
 426.352616639 1312.67075351 452.504284015 1312 477.919921875 1312 c 0
 501.919921875 1312 589.919921875 1316 741.919921875 1324 c 1
 741.919921875 1314 l 2
 741.919921875 1303 740.190755208 1290.58333333 736.732421875 1276.75 c 0
 733.274088542 1262.91666667 729.669921875 1256 725.919921875 1256 c 0
 715.883885839 1256 695.027609949 1250.41889961 663.351094205 1239.25669882 c 0
 631.674578461 1228.09449803 613.197521018 1217.67559843 607.919921875 1208 c 0
 600.254176018 1194.37200737 590.923156221 1166.14417587 579.926862483 1123.31650552 c 0
 568.930568744 1080.48883517 562.261588542 1052.05 559.919921875 1038 c 2
 505.919921875 756 l 1
 505.919921875 752 l 2
 505.919921875 750.154748808 506.724860147 748.642733162 508.33473669 747.463953062 c 0
 509.944613233 746.285172962 513.390292246 745.11475981 518.671773727 743.952713605 c 0
 523.953255208 742.7906674 531.532267554 741.880833639 541.408810764 741.223212321 c 0
 551.285353974 740.565591004 564.545847801 739.969251925 581.190292245 739.434195086 c 0
 597.83473669 738.899138247 618.265600887 738.526341523 642.482884838 738.315804914 c 0
 666.700168789 738.105268305 695.845847801 738 729.919921875 738 c 0
EndSplineSet
Fore
SplineSet
506 1310 m 0
 595.333333333 1310 683.333333333 1314.66666667 770 1324 c 1
 773.333333333 1318 773.333333333 1305.83333333 770 1287.5 c 128
 766.666666667 1269.16666667 762 1256.66666667 756 1250 c 1
 681.333333333 1244 639.333333333 1232 630 1214 c 0
 612.666666667 1182.66666667 595.333333333 1120 578 1026 c 2
 524 742 l 1
 526 736 l 1
 670 732 744.666666667 730 750 730 c 0
 759.333333333 730 832 732 968 736 c 1
 972 738.666666667 974 741.333333333 974 744 c 2
 1026 1026 l 2
 1027.33333333 1032.66666667 1029.5 1044.16666667 1032.5 1060.5 c 128
 1035.5 1076.83333333 1037.66666667 1088.16666667 1039 1094.5 c 128
 1040.33333333 1100.83333333 1042 1110.33333333 1044 1123 c 128
 1046 1135.66666667 1047.33333333 1145 1048 1151 c 128
 1048.66666667 1157 1049.33333333 1164.5 1050 1173.5 c 128
 1050.66666667 1182.5 1050.83333333 1190.16666667 1050.5 1196.5 c 128
 1050.16666667 1202.83333333 1049.33333333 1208.66666667 1048 1214 c 0
 1045.33333333 1232 1008 1244 936 1250 c 1
 933.333333333 1256.66666667 933.666666667 1269.16666667 937 1287.5 c 128
 940.333333333 1305.83333333 944.666666667 1318 950 1324 c 1
 1031.33333333 1314.66666667 1119.33333333 1310 1214 1310 c 0
 1303.33333333 1310 1391.33333333 1314.66666667 1478 1324 c 1
 1481.33333333 1318 1481.33333333 1305.83333333 1478 1287.5 c 128
 1474.66666667 1269.16666667 1470 1256.66666667 1464 1250 c 1
 1389.33333333 1244 1347.33333333 1232 1338 1214 c 0
 1320.66666667 1182.66666667 1303.33333333 1120 1286 1026 c 1
 1144 290 l 2
 1142.66666667 283.333333333 1140.5 271.833333333 1137.5 255.5 c 128
 1134.5 239.166666667 1132.33333333 227.833333333 1131 221.5 c 128
 1129.66666667 215.166666667 1128 205.666666667 1126 193 c 128
 1124 180.333333333 1122.66666667 171 1122 165 c 128
 1121.33333333 159 1120.66666667 151.5 1120 142.5 c 128
 1119.33333333 133.5 1119.16666667 125.833333333 1119.5 119.5 c 128
 1119.83333333 113.166666667 1120.66666667 107.333333333 1122 102 c 0
 1124.66666667 84 1162 72 1234 66 c 1
 1236.66666667 59.3333333333 1236.33333333 46.8333333333 1233 28.5 c 128
 1229.66666667 10.1666666667 1225.33333333 -2 1220 -8 c 1
 1138.66666667 1.33333333333 1050.66666667 6 956 6 c 0
 866.666666667 6 778.666666667 1.33333333333 692 -8 c 1
 688.666666667 -2 688.666666667 10.1666666667 692 28.5 c 128
 695.333333333 46.8333333333 700 59.3333333333 706 66 c 1
 780.666666667 72 822.666666667 84 832 102 c 0
 849.333333333 133.333333333 866.666666667 196 884 290 c 1
 948 620 l 1
 946 630 l 1
 855.333333333 632.666666667 783.333333333 634 730 634 c 0
 586 634 510 631.333333333 502 626 c 1
 498 618 l 1
 436 290 l 2
 434.666666667 283.333333333 432.5 271.833333333 429.5 255.5 c 128
 426.5 239.166666667 424.333333333 227.833333333 423 221.5 c 128
 421.666666667 215.166666667 420 205.666666667 418 193 c 128
 416 180.333333333 414.666666667 171 414 165 c 128
 413.333333333 159 412.666666667 151.5 412 142.5 c 128
 411.333333333 133.5 411.166666667 125.833333333 411.5 119.5 c 128
 411.833333333 113.166666667 412.666666667 107.333333333 414 102 c 0
 416.666666667 84 454 72 526 66 c 1
 528.666666667 59.3333333333 528.333333333 46.8333333333 525 28.5 c 128
 521.666666667 10.1666666667 517.333333333 -2 512 -8 c 1
 430.666666667 1.33333333333 342.666666667 6 248 6 c 0
 157.333333333 6 68.6666666667 1.33333333333 -18 -8 c 1
 -21.3333333333 -2 -21 10.1666666667 -17 28.5 c 128
 -13 46.8333333333 -8 59.3333333333 -2 66 c 1
 72.6666666667 72 114.666666667 84 124 102 c 0
 139.333333333 129.333333333 156 192 174 290 c 1
 318 1026 l 2
 319.333333333 1032.66666667 321.5 1044.16666667 324.5 1060.5 c 128
 327.5 1076.83333333 329.666666667 1088.16666667 331 1094.5 c 128
 332.333333333 1100.83333333 334 1110.33333333 336 1123 c 128
 338 1135.66666667 339.333333333 1145 340 1151 c 128
 340.666666667 1157 341.333333333 1164.5 342 1173.5 c 128
 342.666666667 1182.5 342.833333333 1190.16666667 342.5 1196.5 c 128
 342.166666667 1202.83333333 341.333333333 1208.66666667 340 1214 c 0
 337.333333333 1232 300 1244 228 1250 c 1
 225.333333333 1256.66666667 225.666666667 1269.16666667 229 1287.5 c 128
 232.333333333 1305.83333333 236.666666667 1318 242 1324 c 1
 323.333333333 1314.66666667 411.333333333 1310 506 1310 c 0
EndSplineSet
EndChar
StartChar: I
Encoding: 73 73 41
Width: 344
Flags: HW
LayerCount: 2
Fore
SplineSet
247 640 m 0
 291 640 334 641 376 646 c 1
 378 643 378 638 376 629 c 128
 374 620 372 613 369 610 c 1
 333 607 313 602 308 593 c 0
 300 578 290 547 282 501 c 1
 213 142 l 2
 212 139 211 133 210 125 c 128
 209 117 208 111 207 108 c 128
 206 105 205 100 204 94 c 128
 203 88 202 84 202 81 c 128
 202 78 201 74 201 70 c 128
 201 66 201 61 201 58 c 128
 201 55 201 53 202 50 c 0
 203 41 222 35 257 32 c 1
 258 29 258 23 256 14 c 128
 254 5 253 -1 250 -4 c 1
 210 1 167 3 121 3 c 0
 77 3 33 1 -9 -4 c 1
 -11 -1 -10 5 -8 14 c 128
 -6 23 -4 29 -1 32 c 1
 35 35 56 41 61 50 c 0
 68 63 76 94 85 142 c 1
 155 501 l 2
 156 504 157 510 158 518 c 128
 159 526 161 531 162 534 c 128
 163 537 163 542 164 548 c 128
 165 554 166 559 166 562 c 128
 166 565 167 569 167 573 c 128
 167 577 167 581 167 584 c 128
 167 587 167 590 166 593 c 0
 165 602 146 607 111 610 c 1
 110 613 110 620 112 629 c 128
 114 638 115 643 118 646 c 1
 158 641 201 640 247 640 c 0
EndSplineSet
EndChar
StartChar: J
Encoding: 74 74 42
Width: 328
Flags: W
HStem: -213 23<-105 -87> 610 36<109 160 302 367>
LayerCount: 2
Fore
SplineSet
241 640 m 0
 279 640 334 642 370 646 c 1
 373 640 369 617 363 610 c 1
 351 609 309 606 302 593 c 0
 291 573 284 543 276 501 c 2
 206 140 l 2
 163 -83 -38 -195 -96 -213 c 1
 -101 -210 -106 -200 -106 -195 c 0
 -106 -192 -105 -190 -104 -189 c 1
 -3 -134 47 -30 78 132 c 2
 149 501 l 2
 157 543 164 573 160 593 c 0
 158 606 117 609 105 610 c 1
 102 617 107 640 112 646 c 1
 146 642 203 640 241 640 c 0
EndSplineSet
EndChar
StartChar: K
Encoding: 75 75 43
Width: 1376
Flags: W
LayerCount: 2
Fore
SplineSet
1042 282 m 0,0,1
 1085 217 1085 217 1129 170.5 c 128,-1,2
 1173 124 1173 124 1202 103 c 128,-1,3
 1231 82 1231 82 1261 71 c 128,-1,4
 1291 60 1291 60 1300 59 c 128,-1,5
 1309 58 1309 58 1320 58 c 1,6,7
 1324 49 1324 49 1318.5 26 c 128,-1,8
 1313 3 1313 3 1310 -4 c 1,9,10
 1293 -5 1293 -5 1272 -7.5 c 128,-1,11
 1251 -10 1251 -10 1232.5 -11 c 128,-1,12
 1214 -12 1214 -12 1180 -12 c 0,13,14
 1035 -12 1035 -12 955.5 30.5 c 128,-1,15
 876 73 876 73 802 184 c 0,16,17
 801 186 801 186 534 604 c 0,18,19
 529 612 529 612 516 612 c 0,20,21
 505 612 505 612 496 600 c 1,22,-1
 436 290 l 2,23,24
 434 280 434 280 429.5 255.5 c 128,-1,25
 425 231 425 231 423 221.5 c 128,-1,26
 421 212 421 212 418 193 c 128,-1,27
 415 174 415 174 414 165 c 128,-1,28
 413 156 413 156 412 142.5 c 128,-1,29
 411 129 411 129 411.5 119.5 c 128,-1,30
 412 110 412 110 414 102 c 0,31,32
 418 75 418 75 526 66 c 1,33,34
 530 56 530 56 525 28.5 c 128,-1,35
 520 1 520 1 512 -8 c 1,36,37
 390 6 390 6 248 6 c 0,38,39
 112 6 112 6 -18 -8 c 1,40,41
 -23 1 -23 1 -17 28.5 c 128,-1,42
 -11 56 -11 56 -2 66 c 1,43,44
 110 75 110 75 124 102 c 0,45,46
 147 143 147 143 174 290 c 1,47,-1
 318 1026 l 2,48,49
 320 1036 320 1036 324.5 1060.5 c 128,-1,50
 329 1085 329 1085 331 1094.5 c 128,-1,51
 333 1104 333 1104 336 1123 c 128,-1,52
 339 1142 339 1142 340 1151 c 128,-1,53
 341 1160 341 1160 342 1173.5 c 128,-1,54
 343 1187 343 1187 342.5 1196.5 c 128,-1,55
 342 1206 342 1206 340 1214 c 0,56,57
 336 1241 336 1241 228 1250 c 1,58,59
 224 1260 224 1260 229 1287.5 c 128,-1,60
 234 1315 234 1315 242 1324 c 1,61,62
 364 1310 364 1310 506 1310 c 0,63,64
 640 1310 640 1310 770 1324 c 1,65,66
 775 1315 775 1315 770 1287.5 c 128,-1,67
 765 1260 765 1260 756 1250 c 1,68,69
 644 1241 644 1241 630 1214 c 0,70,71
 604 1167 604 1167 578 1026 c 1,72,-1
 510 674 l 1,73,74
 658 782 658 782 738 856 c 0,75,76
 762 877 762 877 809.5 919.5 c 128,-1,77
 857 962 857 962 875 978.5 c 128,-1,78
 893 995 893 995 925 1025 c 128,-1,79
 957 1055 957 1055 982 1081 c 128,-1,80
 1007 1107 1007 1107 1036 1140 c 1,81,82
 1063 1169 1063 1169 1068 1206 c 0,83,84
 1071 1221 1071 1221 1060.5 1231 c 128,-1,85
 1050 1241 1050 1241 1032 1245 c 128,-1,86
 1014 1249 1014 1249 1000 1250.5 c 128,-1,87
 986 1252 986 1252 972 1252 c 1,88,89
 968 1264 968 1264 971 1287 c 128,-1,90
 974 1310 974 1310 982 1324 c 1,91,92
 1003 1323 1003 1323 1055 1319 c 128,-1,93
 1107 1315 1107 1315 1149.5 1312.5 c 128,-1,94
 1192 1310 1192 1310 1222 1310 c 0,95,96
 1332 1310 1332 1310 1454 1324 c 1,97,98
 1456 1312 1456 1312 1451 1287 c 128,-1,99
 1446 1262 1446 1262 1438 1254 c 1,100,101
 1287 1237 1287 1237 1210 1166 c 0,102,103
 930 910 930 910 760 752 c 0,104,105
 742 734 742 734 750 720 c 0,106,107
 798 643 798 643 843.5 574.5 c 128,-1,108
 889 506 889 506 949.5 418 c 128,-1,109
 1010 330 1010 330 1042 282 c 0,0,1
EndSplineSet
EndChar
StartChar: L
Encoding: 76 76 44
Width: 1094
Flags: HW
LayerCount: 2
Back
SplineSet
413.919921875 278 m 1
 404.586588542 222 399.919921875 184 399.919921875 164 c 0
 399.919921875 147.902708679 401.829974785 136.55721393 405.650080605 129.963515755 c 0
 409.470186425 123.369817579 420.094525049 118.060807076 437.523096478 114.036484245 c 0
 454.951667907 110.012161415 483.083943039 108 521.919921875 108 c 2
 569.919921875 108 l 2
 604.559561514 108 642.303833564 112.875514403 683.152738024 122.62654321 c 0
 724.001642485 132.377572017 759.590703768 144.835390947 789.919921875 160 c 0
 812.912047859 171.496062992 840.902817944 194.007008201 873.892232131 227.532835626 c 0
 906.881646317 261.058663051 934.890876232 298.547717842 957.919921875 340 c 0
 961.919921875 348 971.253255208 352 985.919921875 352 c 0
 995.475477432 352 1006.38688884 350.716216216 1018.65415611 348.148648649 c 0
 1030.92142338 345.581081081 1038.01001197 342.864864865 1039.91992188 340 c 1
 1034.28736374 329.137209302 1019.72496983 301.382746599 996.232740146 256.736611891 c 0
 972.740510467 212.090477182 955.396548286 178.786902588 944.200853604 156.825888109 c 0
 933.005158921 134.86487363 919.911621102 107.71011489 904.920240146 75.3616118909 c 0
 889.928859191 43.0131088917 878.9287531 16.5592382614 871.919921875 -4 c 1
 801.919921875 -4 692.253255208 -2.66666666667 542.919921875 0 c 0
 393.586588542 2.66666666667 291.919921875 4 237.919921875 4 c 0
 206.512514468 4 168.975477431 3 125.308810764 1 c 0
 81.6421440973 -1 45.8273292824 -3 17.8643663194 -5 c 2
 -24.080078125 -8 l 1
 -26.7467447917 -2.66666666667 -28.080078125 3.33333333333 -28.080078125 10 c 0
 -28.080078125 17.4478114478 -27.1854021991 25.2121212121 -25.3960503472 33.2929292929 c 0
 -23.6066984953 41.3737373737 -21.6182725694 47.8451178451 -19.4307725694 52.7070707071 c 0
 -17.2432725694 57.569023569 -15.4597077546 60 -14.080078125 60 c 0
 -1.12885861281 60 21.4045065946 66.152971715 53.5200174973 78.458915145 c 0
 85.6355283998 90.764858575 104.435496526 101.945220193 109.919921875 112 c 0
 124.835176112 143.186440678 138.835176112 195.853107345 151.919921875 270 c 1
 301.919921875 1046 l 2
 313.919921875 1110 319.919921875 1158.66666667 319.919921875 1192 c 0
 319.919921875 1206.41628763 312.576006531 1218.88499025 297.888175843 1229.40610786 c 0
 283.200345156 1239.92722547 268.999286955 1246.98982023 255.28500124 1250.59389214 c 0
 241.570715526 1254.19796405 231.115689071 1256 223.919921875 1256 c 0
 222.586588542 1256 221.919921875 1258.66666667 221.919921875 1264 c 0
 221.919921875 1273.66666667 223.208383413 1285.37179487 225.78530649 1299.11538462 c 0
 228.362229567 1312.85897436 231.073768029 1321.15384615 233.919921875 1324 c 1
 253.27317858 1323.07841635 278.980401511 1321.51877395 311.04159067 1319.3210728 c 0
 343.102779829 1317.12337165 372.577222854 1315.35376756 399.464919746 1314.01226054 c 0
 426.352616639 1312.67075351 452.504284015 1312 477.919921875 1312 c 0
 501.919921875 1312 589.919921875 1316 741.919921875 1324 c 1
 741.919921875 1314 l 2
 741.919921875 1303 740.190755208 1290.58333333 736.732421875 1276.75 c 0
 733.274088542 1262.91666667 729.669921875 1256 725.919921875 1256 c 0
 715.883885839 1256 695.027609949 1250.41889961 663.351094205 1239.25669882 c 0
 631.674578461 1228.09449803 613.197521018 1217.67559843 607.919921875 1208 c 0
 600.254176018 1194.37200737 590.923156221 1166.14417587 579.926862483 1123.31650552 c 0
 568.930568744 1080.48883517 562.261588542 1052.05 559.919921875 1038 c 2
 413.919921875 278 l 1
EndSplineSet
Fore
SplineSet
434 282 m 1
 419.333333333 195.333333333 414 142.666666667 418 124 c 0
 420.666666667 111.333333333 433.166666667 101.5 455.5 94.5 c 128
 477.833333333 87.5 502.666666667 84 530 84 c 2
 654 84 l 2
 728 84 790 106 840 150 c 0
 879.333333333 184.666666667 924.666666667 248 976 340 c 0
 980 348 990 352 1006 352 c 0
 1015.33333333 352 1025.83333333 350.666666667 1037.5 348 c 128
 1049.16666667 345.333333333 1056 342.666666667 1058 340 c 1
 1055.33333333 335.333333333 1043.83333333 313.5 1023.5 274.5 c 128
 1003.16666667 235.5 989.333333333 208.666666667 982 194 c 128
 974.666666667 179.333333333 963.666666667 157.166666667 949 127.5 c 128
 934.333333333 97.8333333333 922.666666667 72.6666666667 914 52 c 128
 905.333333333 31.3333333333 898 12.6666666667 892 -4 c 1
 248 -4 l 2
 209.333333333 -4 170 -4.16666666667 130 -4.5 c 128
 90 -4.83333333333 57 -5.16666666667 31 -5.5 c 128
 5 -5.83333333333 -10.6666666667 -6 -16 -6 c 1
 -19.3333333333 0 -19.3333333333 12.1666666667 -16 30.5 c 128
 -12.6666666667 48.8333333333 -8 61.3333333333 -2 68 c 1
 73.3333333333 74 115.333333333 85.3333333333 124 102 c 0
 139.333333333 129.333333333 156 192 174 290 c 1
 318 1026 l 2
 319.333333333 1032.66666667 321.5 1044.16666667 324.5 1060.5 c 128
 327.5 1076.83333333 329.666666667 1088.16666667 331 1094.5 c 128
 332.333333333 1100.83333333 334 1110.33333333 336 1123 c 128
 338 1135.66666667 339.333333333 1145 340 1151 c 128
 340.666666667 1157 341.333333333 1164.5 342 1173.5 c 128
 342.666666667 1182.5 342.833333333 1190.16666667 342.5 1196.5 c 128
 342.166666667 1202.83333333 341.333333333 1208.66666667 340 1214 c 0
 337.333333333 1232 300 1244 228 1250 c 1
 225.333333333 1256.66666667 225.666666667 1269.16666667 229 1287.5 c 128
 232.333333333 1305.83333333 236.666666667 1318 242 1324 c 1
 323.333333333 1314.66666667 411.333333333 1310 506 1310 c 0
 595.333333333 1310 683.333333333 1314.66666667 770 1324 c 1
 773.333333333 1318 773.333333333 1305.83333333 770 1287.5 c 128
 766.666666667 1269.16666667 762 1256.66666667 756 1250 c 1
 681.333333333 1244 639.333333333 1232 630 1214 c 0
 612.666666667 1182.66666667 595.333333333 1120 578 1026 c 1
 434 282 l 1
EndSplineSet
EndChar
StartChar: M
Encoding: 77 77 45
Width: 838
Flags: W
HStem: -4 36<-23 45 143 201 491 558 707 757> 610 36<135 184 800 852>
LayerCount: 2
Fore
SplineSet
236 641 m 0
 267 641 295 644 332 646 c 1
 347 584 387 398 423 232 c 1
 423 232 425 230 426 230 c 0
 427 230 431 235 431 236 c 2
 431 236 534 416 596 533 c 24
 618 575 647 643 647 643 c 1
 655 642 727 640 745 640 c 0
 776 640 815 644 852 646 c 1
 855 642 855 617 849 609 c 1
 842 609 810 606 799 599 c 0
 788 592 783 585 779 559 c 0
 768 491 732 273 713 148 c 0
 707 110 702 75 706 50 c 0
 709 36 752 32 759 32 c 1
 761 23 760 6 755 -4 c 1
 719 -2 672 4 632 4 c 0
 590 4 530 -2 488 -4 c 1
 485 0 490 24 494 32 c 1
 505 32 549 37 560 51 c 0
 566 59 573 75 575 85 c 0
 577 95 582 127 585 145 c 2
 642 485 l 2
 643 488 648 511 641 511 c 0
 639 511 638 509 635 504 c 2
 384 39 l 2
 379 30 355 -2 338 -2 c 0
 335 -2 333 -1 330 0 c 1
 226 511 l 1
 180 308 176 284 141 131 c 0
 136 110 131 70 131 63 c 0
 132 42 198 32 205 32 c 1
 206 25 204 6 199 -4 c 1
 163 -2 129 4 89 4 c 0
 47 4 15 -2 -27 -4 c 1
 -29 3 -26 21 -21 31 c 1
 -10 31 48 41 63 66 c 0
 69 76 86 136 90 152 c 0
 117 266 176 521 187 567 c 0
 188 574 189 582 186 589 c 0
 181 600 147 610 131 610 c 1
 127 618 136 644 138 646 c 1
 179 644 194 641 236 641 c 0
EndSplineSet
EndChar
StartChar: N
Encoding: 78 78 46
Width: 1430
Flags: W
LayerCount: 2
Fore
SplineSet
441 1310 m 0,0,1
 538 1310 538 1310 647 1324 c 1,2,3
 661 1269 661 1269 711.5 1166 c 128,-1,4
 762 1063 762 1063 813 972.5 c 128,-1,5
 864 882 864 882 952.5 727 c 128,-1,6
 1041 572 1041 572 1083 496 c 1,7,8
 1088 507 1088 507 1103 578 c 1,9,-1
 1175 952 l 1,10,11
 1215 1170 1215 1170 1205 1208 c 1,12,13
 1200 1231 1200 1231 1149 1241.5 c 128,-1,14
 1098 1252 1098 1252 1063 1252 c 1,15,16
 1062 1254 1062 1254 1062.5 1267 c 128,-1,17
 1063 1280 1063 1280 1067 1299 c 128,-1,18
 1071 1318 1071 1318 1077 1326 c 1,19,20
 1109 1324 1109 1324 1181 1317 c 128,-1,21
 1253 1310 1253 1310 1301 1310 c 0,22,23
 1348 1310 1348 1310 1432.5 1317.5 c 128,-1,24
 1517 1325 1517 1325 1539 1326 c 1,25,26
 1541 1315 1541 1315 1535.5 1289 c 128,-1,27
 1530 1263 1530 1263 1519 1250 c 1,28,29
 1502 1250 1502 1250 1475 1248 c 128,-1,30
 1448 1246 1448 1246 1408 1234.5 c 128,-1,31
 1368 1223 1368 1223 1357 1204 c 1,32,33
 1347 1183 1347 1183 1323.5 1098 c 128,-1,34
 1300 1013 1300 1013 1289 958 c 2,35,-1
 1157 278 l 2,36,37
 1142 196 1142 196 1111 -2 c 1,38,39
 1103 -10 1103 -10 1063 -10 c 0,40,41
 1040 -10 1040 -10 1015 36 c 2,42,-1
 451 1038 l 1,43,-1
 311 314 l 2,44,45
 301 261 301 261 295.5 201.5 c 128,-1,46
 290 142 290 142 293 120 c 0,47,48
 297 96 297 96 353.5 82 c 128,-1,49
 410 68 410 68 437 68 c 1,50,51
 442 55 442 55 436.5 30 c 128,-1,52
 431 5 431 5 425 -8 c 1,53,54
 404 -7 404 -7 322 0.5 c 128,-1,55
 240 8 240 8 193 8 c 0,56,57
 145 8 145 8 70.5 1 c 128,-1,58
 -4 -6 -4 -6 -37 -8 c 1,59,60
 -40 0 -40 0 -36.5 18.5 c 128,-1,61
 -33 37 -33 37 -28 51.5 c 128,-1,62
 -23 66 -23 66 -21 66 c 0,63,64
 8 66 8 66 65.5 80.5 c 128,-1,65
 123 95 123 95 137 118 c 128,-1,66
 151 141 151 141 170 202.5 c 128,-1,67
 189 264 189 264 199 320 c 0,68,69
 228 474 228 474 277.5 726.5 c 128,-1,70
 327 979 327 979 337 1028 c 1,71,72
 352 1112 352 1112 351 1144.5 c 128,-1,73
 350 1177 350 1177 337 1208 c 0,74,75
 329 1225 329 1225 287.5 1237.5 c 128,-1,76
 246 1250 246 1250 223 1250 c 1,77,78
 219 1252 219 1252 218.5 1266.5 c 128,-1,79
 218 1281 218 1281 222.5 1300 c 128,-1,80
 227 1319 227 1319 233 1324 c 1,81,82
 249 1323 249 1323 288.5 1319 c 128,-1,83
 328 1315 328 1315 365.5 1312.5 c 128,-1,84
 403 1310 403 1310 441 1310 c 0,0,1
EndSplineSet
EndChar
StartChar: O
Encoding: 79 79 47
Width: 688
Flags: W
HStem: -10 42<255 385> 609 42<326 452>
VStem: 48 141<146 381> 522 141<253 490>
LayerCount: 2
Fore
SplineSet
393 609 m 3
 258 609 188 399 188 238 c 0
 188 126 225 32 318 32 c 3
 450 32 522 239 522 400 c 0
 522 512 481 609 393 609 c 3
414 651 m 0
 574 651 663 510 663 384 c 0
 663 134 450 -10 288 -10 c 0
 151 -10 48 112 48 255 c 0
 48 498 253 651 414 651 c 0
EndSplineSet
EndChar
StartChar: P
Encoding: 80 80 48
Width: 543
Flags: W
HStem: -4 36<-5 60 202 253> 279 40<279 354> 605 39<115 167 305 393>
LayerCount: 2
Fore
SplineSet
559 454 m 0
 537 337 418 279 326 279 c 0
 300 279 287 289 280 294 c 0
 276 297 270 311 270 316 c 0
 270 320 273 323 275 323 c 1
 284 320 291 319 305 319 c 0
 350 319 409 376 422 440 c 0
 439 527 413 605 352 605 c 0
 331 605 312 605 305 594 c 0
 298 582 295 562 289 534 c 2
 213 142 l 2
 205 100 198 70 202 50 c 0
 204 37 245 33 257 32 c 1
 260 25 255 2 250 -4 c 1
 216 0 159 3 121 3 c 0
 83 3 27 0 -9 -4 c 1
 -12 2 -7 25 -1 32 c 1
 11 33 53 37 60 50 c 0
 71 70 77 100 85 142 c 2
 155 501 l 2
 163 543 170 573 166 593 c 0
 164 606 122 607 110 608 c 1
 107 615 113 639 118 645 c 1
 158 642 209 642 247 642 c 0
 285 642 334 645 388 645 c 0
 501 645 580 558 559 454 c 0
EndSplineSet
EndChar
StartChar: Q
Encoding: 81 81 49
Width: 689
Flags: HW
LayerCount: 2
Fore
SplineSet
415 651 m 0
 453 651 489 643 521 627 c 128
 553 611 580 591 600 565 c 128
 620 539 636 510 647 479 c 128
 658 448 664 416 664 384 c 0
 664 344 659 305 648 269 c 128
 637 233 623 202 606 175 c 128
 589 148 568 123 545 101 c 128
 522 79 498 60 473 46 c 128
 448 32 422 19 396 10 c 1
 404 5 419 -3 438 -15 c 128
 457 -27 471 -35 479 -39 c 128
 487 -43 499 -49 514 -55 c 128
 529 -61 544 -66 559 -68 c 128
 574 -70 590 -71 608 -71 c 0
 625 -71 642 -69 658 -64 c 1
 666 -64 673 -67 677 -74 c 1
 666 -83 643 -96 609 -112 c 128
 575 -128 546 -137 522 -137 c 0
 502 -137 483 -134 464 -128 c 128
 445 -122 425 -115 407 -105 c 128
 389 -95 371 -85 354 -74 c 128
 337 -63 317 -53 294 -40 c 128
 271 -27 250 -16 229 -8 c 0
 173 15 128 51 96 97 c 128
 64 143 49 196 49 255 c 0
 49 302 56 346 71 389 c 128
 86 432 106 469 131 500 c 128
 156 531 184 559 216 582 c 128
 248 605 281 622 315 634 c 128
 349 646 382 651 415 651 c 0
394 609 m 0
 368 609 343 601 321 586 c 128
 299 571 279 550 263 525 c 128
 247 500 234 471 223 439 c 128
 212 407 203 373 198 339 c 128
 193 305 189 271 189 238 c 0
 189 209 192 182 197 158 c 128
 202 134 209 112 219 93 c 128
 229 74 243 59 260 48 c 128
 277 37 297 32 319 32 c 0
 351 32 379 44 406 67 c 128
 433 90 454 120 471 156 c 128
 488 192 501 233 510 275 c 128
 519 317 523 359 523 400 c 0
 523 439 519 474 510 505 c 128
 501 536 486 560 466 580 c 128
 446 600 422 609 394 609 c 0
EndSplineSet
EndChar
StartChar: R
Encoding: 82 82 50
Width: 629
Flags: HW
LayerCount: 2
Fore
SplineSet
247 642 m 0
 258 642 280 642 312 643 c 128
 344 644 369 645 388 645 c 0
 446 645 490 627 520 591 c 128
 550 555 559 507 548 447 c 0
 544 427 535 408 521 391 c 128
 507 374 492 360 475 349 c 128
 458 338 441 330 426 323 c 128
 411 316 398 312 387 309 c 1
 395 293 404 273 415 251 c 128
 426 229 434 214 438 206 c 128
 442 198 448 187 456 173 c 128
 464 159 472 144 483 127 c 0
 495 107 510 90 525 76 c 128
 540 62 554 52 567 45 c 128
 580 38 591 34 600 31 c 128
 609 28 616 27 621 27 c 1
 622 23 623 18 622 10 c 128
 621 2 620 -2 619 -4 c 1
 613 -4 607 -5 602 -6 c 128
 597 -7 591 -7 586 -7 c 128
 581 -7 573 -8 562 -8 c 0
 534 -8 508 -6 485 0 c 128
 462 6 444 12 431 19 c 128
 418 26 407 34 396 46 c 128
 385 58 377 67 374 73 c 128
 371 79 366 87 361 97 c 2
 269 277 l 1
 264 287 260 292 255 292 c 2
 242 292 l 1
 213 142 l 2
 212 139 211 133 210 125 c 128
 209 117 208 111 207 108 c 128
 206 105 205 100 204 94 c 128
 203 88 202 84 202 81 c 128
 202 78 201 74 201 70 c 128
 201 66 201 61 201 58 c 128
 201 55 201 53 202 50 c 0
 203 41 222 35 257 32 c 1
 258 29 258 23 256 14 c 128
 254 5 253 -1 250 -4 c 1
 210 1 167 3 121 3 c 0
 77 3 33 1 -9 -4 c 1
 -11 -1 -10 5 -8 14 c 128
 -6 23 -4 29 -1 32 c 1
 35 35 56 41 61 50 c 0
 68 63 76 94 85 142 c 1
 155 501 l 2
 156 504 157 510 158 518 c 128
 159 526 161 531 162 534 c 128
 163 537 163 542 164 548 c 128
 165 554 166 559 166 562 c 128
 166 565 167 569 167 573 c 128
 167 577 167 581 167 584 c 128
 167 587 167 590 166 593 c 0
 165 600 146 605 110 608 c 1
 109 611 109 618 111 627 c 128
 113 636 115 642 118 645 c 1
 145 643 188 642 247 642 c 0
249 330 m 17
 291 330 l 2
 318 330 343 339 364 357 c 128
 385 375 401 403 411 438 c 0
 416 457 420 475 421 494 c 128
 422 513 420 531 417 548 c 128
 414 565 407 578 396 589 c 128
 385 600 371 605 353 605 c 0
 326 605 310 602 305 594 c 0
 304 592 302 589 301 586 c 128
 300 583 299 579 298 575 c 128
 297 571 296 568 295 565 c 128
 294 562 293 557 292 550 c 128
 291 543 290 537 289 534 c 2
 249 330 l 17
EndSplineSet
EndChar
StartChar: S
Encoding: 83 83 51
Width: 988
Flags: HW
LayerCount: 2
Back
SplineSet
610.3203125 1340 m 0
 642.877274525 1340 674.542023752 1337.12885598 705.31456018 1331.38656795 c 0
 736.087096608 1325.64427992 771.202042599 1317.60879018 810.659398153 1307.28009871 c 0
 850.116753708 1296.95140725 884.003725157 1289.19137435 912.3203125 1284 c 1
 878.97652165 1048 859.643188317 930 854.3203125 930 c 2
 826.3203125 930 l 2
 816.601793981 930 809.053645833 930.535612536 803.675868056 931.606837607 c 0
 798.298090278 932.678062678 793.394386574 935.829059829 788.964756944 941.05982906 c 0
 784.535127315 946.290598291 782.3203125 953.937321937 782.3203125 964 c 0
 782.3203125 980.659393939 780.357375791 999.580606059 776.431502373 1020.76363636 c 0
 772.505628956 1041.94666667 765.679502374 1064.90424243 755.953122627 1089.63636364 c 0
 746.22674288 1114.36848485 734.364869462 1136.85090909 720.367502373 1157.08363636 c 0
 706.370135285 1177.31636363 688.024008703 1194.19393939 665.329122627 1207.71636364 c 0
 642.634236551 1221.23878788 617.631299842 1228 590.3203125 1228 c 0
 562.33077979 1228 536.958767329 1222.47268376 514.204275117 1211.41805128 c 0
 491.449782905 1200.3634188 473.361807827 1186.76205128 459.940349883 1170.61394872 c 0
 446.518891939 1154.46584615 435.25220035 1136.53654701 426.140275117 1116.82605128 c 0
 417.028349883 1097.11555555 410.780374805 1079.35418803 407.396349883 1063.54194872 c 0
 404.012324961 1047.7297094 402.3203125 1033.88239316 402.3203125 1022 c 0
 402.3203125 1010.27383454 403.528113149 998.739389007 405.943714448 987.3966634 c 0
 408.359315746 976.053937796 412.65976383 964.637232155 418.845058701 953.146546477 c 0
 425.030353571 941.655860798 430.743622908 931.378922178 435.984866711 922.315730615 c 0
 441.226110514 913.252539052 449.460714977 902.818000764 460.6886801 891.01211575 c 0
 471.916645223 879.206230735 480.806869292 869.790746161 487.359352308 862.765662028 c 0
 493.911835323 855.740577895 504.566192873 846.046780347 519.322424956 833.684269385 c 0
 534.078657039 821.321758422 544.631432548 812.526301283 550.980751485 807.297897968 c 0
 557.330070421 802.069494653 568.889777764 792.875011234 585.659873515 779.714447711 c 0
 602.429969266 766.553884189 613.316782261 757.982401619 618.3203125 754 c 0
 628.249710648 746.013310185 643.664699074 734.328362689 664.565277778 718.945157511 c 0
 685.465856481 703.561952332 701.580324074 691.404069547 712.908680556 682.471509156 c 0
 724.237037037 673.538948765 737.937384259 660.628930315 754.009722222 643.741453807 c 0
 770.082060185 626.853977299 782.307638889 610.455353773 790.686458333 594.54558323 c 0
 799.065277778 578.635812687 806.432291667 558.633201645 812.7875 534.537750103 c 0
 819.142708333 510.442298562 822.3203125 484.263048527 822.3203125 456 c 0
 822.3203125 394.167004016 811.858690878 336.6077751 790.935447635 283.322313253 c 0
 770.012204392 230.036851406 742.615447635 185.219309237 708.745177365 148.869686747 c 0
 674.874907094 112.520064257 636.404997184 81.326939759 593.335447635 55.290313253 c 0
 550.265898086 29.253686747 506.709141329 10.1961445783 462.665177365 -1.88231325301 c 0
 418.621213401 -13.9607710843 375.839591779 -20 334.3203125 -20 c 0
 245.558407738 -20 135.558407738 -2.66666666667 4.3203125 32 c 1
 10.9869791667 89.450980392 14.3203125 148.117647059 14.3203125 208 c 0
 14.3203125 229.5 13.9869791667 260.75 13.3203125 301.75 c 0
 12.6536458333 342.75 12.3203125 363.5 12.3203125 364 c 0
 12.3203125 366.733578677 13.0355700316 369.12412178 14.4660850948 371.171629307 c 0
 15.8966001579 373.219136835 17.9179801385 374.805397569 20.5302250364 375.930411509 c 0
 23.1424699344 377.055425449 25.8324602162 377.972566076 28.6001958819 378.681833389 c 0
 31.3679315476 379.391100702 34.5554922862 379.834504293 38.1628780977 380.012044162 c 0
 41.7702639092 380.189584031 44.7867848032 380.290398127 47.2124407799 380.31448645 c 0
 49.6380967566 380.338574774 52.3125379616 380.292182447 55.235764395 380.175309468 c 0
 58.1589908285 380.058436489 59.8538401968 380 60.3203125 380 c 0
 65.4314236111 380 74.0373263889 378.229166667 86.1380208333 374.6875 c 0
 98.2387152778 371.145833333 105.6328125 367.583333333 108.3203125 364 c 1
 108.3203125 336.245016611 113.216493056 306.932101329 123.008854167 276.061254153 c 0
 132.801215278 245.190406977 146.352604166 216.066237542 163.663020833 188.688745847 c 0
 180.9734375 161.311254153 203.442881944 138.685423588 231.071354167 120.811254153 c 0
 258.699826389 102.937084718 288.449479167 94 320.3203125 94 c 0
 351.621387769 94 380.082737828 99.237743567 405.704362679 109.713230701 c 0
 431.32598753 120.188717834 451.986620744 133.907675145 467.686262321 150.870102633 c 0
 483.385903898 167.83253012 496.928974387 185.699992563 508.31547379 204.47248996 c 0
 519.701973193 223.244987357 528.084828629 242.315796519 533.464040099 261.684917448 c 0
 538.843251568 281.054038376 542.664099836 296.9029823 544.926584901 309.231749219 c 0
 547.189069967 321.560516138 548.3203125 331.149933065 548.3203125 338 c 0
 548.3203125 358.470133799 543.85500733 378.615114425 534.92439699 398.43494188 c 0
 525.99378665 418.254769334 512.78039699 437.452808081 495.28422801 456.02905812 c 0
 477.78805903 474.605308159 461.572115357 490.479269413 446.63639699 503.65094188 c 0
 431.700678623 516.822614347 412.567288963 532.500653093 389.23622801 550.68505812 c 0
 365.905167057 568.869463147 349.599861887 581.974443774 340.3203125 590 c 0
 335.297451625 594.219203135 325.431705489 602.422298948 310.723074094 614.609287437 c 0
 296.014442698 626.796275927 285.869934969 635.272084302 280.289550906 640.036712563 c 0
 274.709166843 644.801340824 265.469674573 652.980199115 252.571074094 664.573287437 c 0
 239.672473615 676.16637576 230.447965885 685.102184135 224.897550906 691.380712563 c 0
 219.347135927 697.659240991 211.459643656 706.674099282 201.235074094 718.425287437 c 0
 191.010504531 730.176475592 183.569996802 740.324283968 178.913550906 748.868712563 c 0
 174.25710501 757.413141158 168.585612739 768.015999449 161.899074094 780.677287437 c 0
 155.212535448 793.338575425 150.420027719 805.4503838 147.521550906 817.012712563 c 0
 144.623074093 828.575041325 142.031581823 841.517899616 139.747074094 855.841287437 c 0
 137.462566365 870.164675258 136.3203125 884.884246112 136.3203125 900 c 0
 136.3203125 951.178137741 146.436130755 1000.33943802 166.667767265 1047.48390083 c 0
 186.899403775 1094.62836364 213.627767265 1135.53776308 246.852857735 1170.21209917 c 0
 280.077948206 1204.88643526 317.349584716 1235.25170248 358.667767265 1261.30790083 c 0
 399.985949814 1287.36409918 442.394313304 1306.99349862 485.892857735 1320.19609917 c 0
 529.391402166 1333.39869972 570.867220421 1340 610.3203125 1340 c 0
EndSplineSet
Fore
SplineSet
664 1340 m 0
 690 1340 717 1338 745 1334 c 128
 773 1330 795.666666667 1326.16666667 813 1322.5 c 128
 830.333333333 1318.83333333 856.5 1312.33333333 891.5 1303 c 128
 926.5 1293.66666667 951.333333333 1287.33333333 966 1284 c 1
 955.333333333 1187.33333333 940.666666667 1076.66666667 922 952 c 1
 914 944 906 940 898 940 c 0
 863.333333333 940 846 944.666666667 846 954 c 0
 848 995.333333333 843.5 1038.16666667 832.5 1082.5 c 128
 821.5 1126.83333333 800.5 1166.83333333 769.5 1202.5 c 128
 738.5 1238.16666667 700.666666667 1256 656 1256 c 0
 613.333333333 1256 573.666666667 1242.33333333 537 1215 c 128
 500.333333333 1187.66666667 476 1143.33333333 464 1082 c 0
 459.333333333 1058 460.666666667 1033.33333333 468 1008 c 128
 475.333333333 982.666666667 485.166666667 960.166666667 497.5 940.5 c 128
 509.833333333 920.833333333 527.666666667 898.5 551 873.5 c 128
 574.333333333 848.5 593.833333333 829.166666667 609.5 815.5 c 128
 625.166666667 801.833333333 646 784 672 762 c 0
 728.303789561 715.257231308 761.859315628 686.571117881 772.666578203 675.941659719 c 0
 838.994691828 610.70479665 873.17242054 535.367151998 875.19976434 449.928725764 c 0
 875.937061006 418.856804567 872.870472893 385.547229313 866 350 c 0
 852.666666667 279.333333333 820.666666667 215.166666667 770 157.5 c 128
 719.333333333 99.8333333333 660.166666667 55.8333333333 592.5 25.5 c 128
 524.833333333 -4.83333333333 456.666666667 -20 388 -20 c 0
 290 -20 175.333333333 -2.66666666667 44 32 c 1
 43.3333333333 72 45.6666666667 130.5 51 207.5 c 128
 56.3333333333 284.5 61.3333333333 339.333333333 66 372 c 1
 70.6666666667 377.333333333 80.5 383.333333333 95.5 390 c 128
 110.5 396.666666667 120.666666667 400 126 400 c 0
 139.333333333 400 146 394.666666667 146 384 c 0
 144.666666667 355.333333333 148.833333333 323.333333333 158.5 288 c 128
 168.166666667 252.666666667 182.333333333 218 201 184 c 128
 219.666666667 150 245.333333333 121.5 278 98.5 c 128
 310.666666667 75.5 346.666666667 64 386 64 c 0
 438 64 484 79.6666666667 524 111 c 128
 564 142.333333333 590.666666667 191.333333333 604 258 c 0
 608.666666667 282.666666667 607.666666667 307.833333333 601 333.5 c 128
 594.333333333 359.166666667 585.333333333 381.5 574 400.5 c 128
 562.666666667 419.5 546.166666667 440.666666667 524.5 464 c 128
 502.833333333 487.333333333 485 505 471 517 c 128
 457 529 438.59090195 544.712687153 415.77270585 564.13806146 c 0
 404.59090195 573.37935382 396.666666667 580 392 584 c 0
 330.444487513 636.003795033 289.656784872 673.425770488 269.636892078 696.265926365 c 0
 207.824295478 766.786251128 182.100897469 848.624853226 192.466698052 941.781732658 c 0
 193.777358275 953.560563957 195.621792257 965.633319738 198 978 c 0
 210.666666667 1044 242.166666667 1105.33333333 292.5 1162 c 128
 342.833333333 1218.66666667 401.333333333 1262.5 468 1293.5 c 128
 534.666666667 1324.5 600 1340 664 1340 c 0
EndSplineSet
EndChar
StartChar: T
Encoding: 84 84 52
Width: 1192
Flags: HW
LayerCount: 2
Fore
SplineSet
728 1314 m 1
 1056 1314 l 2
 1095.33333333 1314 1129 1317.16666667 1157 1323.5 c 128
 1185 1329.83333333 1206.66666667 1336.16666667 1222 1342.5 c 128
 1237.33333333 1348.83333333 1248.66666667 1352 1256 1352 c 0
 1264.66666667 1352 1272 1350 1278 1346 c 1
 1256 978 l 1
 1253.33333333 975.333333333 1245.33333333 972.333333333 1232 969 c 128
 1218.66666667 965.666666667 1208 964 1200 964 c 0
 1189.33333333 964 1184 967.333333333 1184 974 c 0
 1187.33333333 1040.66666667 1174.66666667 1099.33333333 1146 1150 c 128
 1117.33333333 1200.66666667 1080 1226 1034 1226 c 2
 860 1226 l 1
 678 290 l 2
 676.666666667 283.333333333 674.5 271.833333333 671.5 255.5 c 128
 668.5 239.166666667 666.333333333 227.833333333 665 221.5 c 128
 663.666666667 215.166666667 662 205.666666667 660 193 c 128
 658 180.333333333 656.666666667 171 656 165 c 128
 655.333333333 159 654.666666667 151.5 654 142.5 c 128
 653.333333333 133.5 653.166666667 125.833333333 653.5 119.5 c 128
 653.833333333 113.166666667 654.666666667 107.333333333 656 102 c 0
 658.666666667 84 696 72 768 66 c 1
 770.666666667 59.3333333333 770.333333333 46.8333333333 767 28.5 c 128
 763.666666667 10.1666666667 759.333333333 -2 754 -8 c 1
 672.666666667 1.33333333333 585.333333333 6 492 6 c 0
 401.333333333 6 312.666666667 1.33333333333 226 -8 c 1
 222.666666667 -2 222.666666667 10.1666666667 226 28.5 c 128
 229.333333333 46.8333333333 234 59.3333333333 240 66 c 1
 314.666666667 72 356.666666667 84 366 102 c 0
 383.333333333 133.333333333 400.666666667 196 418 290 c 1
 600 1226 l 1
 426 1226 l 2
 380 1226 332.833333333 1200.66666667 284.5 1150 c 128
 236.166666667 1099.33333333 200.666666667 1040.66666667 178 974 c 1
 174.666666667 967.333333333 168 964 158 964 c 0
 150 964 140.166666667 965.666666667 128.5 969 c 128
 116.833333333 972.333333333 110 975.333333333 108 978 c 1
 228 1346 l 1
 236 1350 244 1352 252 1352 c 0
 259.333333333 1352 269.5 1348.83333333 282.5 1342.5 c 128
 295.5 1336.16666667 314.833333333 1329.83333333 340.5 1323.5 c 128
 366.166666667 1317.16666667 398.666666667 1314 438 1314 c 2
 728 1314 l 1
EndSplineSet
EndChar
StartChar: U
Encoding: 85 85 53
Width: 1384
Flags: W
LayerCount: 2
Fore
SplineSet
469 1310 m 0,0,1
 604 1310 604 1310 733 1324 c 1,2,3
 738 1315 738 1315 733 1287.5 c 128,-1,4
 728 1260 728 1260 719 1250 c 1,5,6
 607 1241 607 1241 593 1214 c 0,7,8
 567 1167 567 1167 541 1026 c 2,9,-1
 471 660 l 2,10,11
 460 600 460 600 454 562 c 128,-1,12
 448 524 448 524 443.5 479 c 128,-1,13
 439 434 439 434 441 395 c 128,-1,14
 443 356 443 356 451 318 c 0,15,16
 490 126 490 126 697 126 c 0,17,18
 755 126 755 126 812.5 154.5 c 128,-1,19
 870 183 870 183 924.5 240 c 128,-1,20
 979 297 979 297 1023.5 394.5 c 128,-1,21
 1068 492 1068 492 1093 618 c 2,22,-1
 1159 958 l 1,23,24
 1193 1141 1193 1141 1181 1202 c 0,25,26
 1173 1240 1173 1240 1051 1250 c 1,27,28
 1047 1260 1047 1260 1052 1287.5 c 128,-1,29
 1057 1315 1057 1315 1065 1324 c 1,30,31
 1216 1310 1216 1310 1295 1310 c 0,32,33
 1342 1310 1342 1310 1417 1316.5 c 128,-1,34
 1492 1323 1492 1323 1515 1324 c 1,35,36
 1520 1315 1520 1315 1515 1287.5 c 128,-1,37
 1510 1260 1510 1260 1501 1250 c 1,38,39
 1370 1239 1370 1239 1349 1202 c 0,40,41
 1332 1172 1332 1172 1309.5 1098 c 128,-1,42
 1287 1024 1287 1024 1275 960 c 2,43,-1
 1199 572 l 2,44,45
 1170 424 1170 424 1106 308.5 c 128,-1,46
 1042 193 1042 193 957 123 c 128,-1,47
 872 53 872 53 775 17.5 c 128,-1,48
 678 -18 678 -18 575 -18 c 0,49,50
 454 -18 454 -18 359.5 26.5 c 128,-1,51
 265 71 265 71 217 158 c 0,52,53
 140 297 140 297 199 602 c 2,54,-1
 281 1026 l 2,55,56
 283 1036 283 1036 287.5 1060.5 c 128,-1,57
 292 1085 292 1085 294 1094.5 c 128,-1,58
 296 1104 296 1104 299 1123 c 128,-1,59
 302 1142 302 1142 303 1151 c 128,-1,60
 304 1160 304 1160 305 1173.5 c 128,-1,61
 306 1187 306 1187 305.5 1196.5 c 128,-1,62
 305 1206 305 1206 303 1214 c 0,63,64
 299 1241 299 1241 191 1250 c 1,65,66
 187 1260 187 1260 192 1287.5 c 128,-1,67
 197 1315 197 1315 205 1324 c 1,68,69
 328 1310 328 1310 469 1310 c 0,0,1
EndSplineSet
EndChar
StartChar: V
Encoding: 86 86 54
Width: 612
Flags: HW
LayerCount: 2
Fore
SplineSet
192 640 m 0
 236 640 280 641 322 646 c 1
 324 643 324 638 322 629 c 128
 320 620 317 613 314 610 c 0
 314 610 313 610 310 610 c 128
 307 610 304 610 302 610 c 128
 300 610 298 609 295 609 c 128
 292 609 288 608 286 607 c 128
 284 606 280 606 277 605 c 128
 274 604 271 603 269 602 c 128
 267 601 264 599 262 597 c 128
 260 595 258 593 257 591 c 128
 256 589 255 587 254 584 c 0
 251 571 254 547 262 511 c 2
 333 182 l 1
 446 382 507 491 517 509 c 0
 519 512 522 518 527 528 c 128
 532 538 536 545 538 550 c 128
 540 555 543 562 546 569 c 128
 549 576 551 582 552 587 c 0
 554 599 531 606 483 610 c 1
 482 613 482 620 484 629 c 128
 486 638 488 643 491 646 c 1
 540 641 576 640 598 640 c 0
 613 640 632 641 654 643 c 128
 676 645 692 646 700 646 c 1
 702 643 702 638 700 629 c 128
 698 620 696 613 693 610 c 1
 692 610 691 610 687 610 c 128
 683 610 680 609 677 609 c 128
 674 609 671 609 667 608 c 128
 663 607 658 607 655 606 c 128
 652 605 648 604 644 603 c 128
 640 602 637 601 634 599 c 128
 631 597 629 595 627 593 c 0
 614 579 596 552 573 512 c 0
 561 490 467 329 292 29 c 0
 287 21 278 12 266 3 c 128
 254 -6 246 -11 240 -11 c 0
 238 -11 236 -10 235 -9 c 128
 234 -8 233 -6 232 -3 c 128
 231 0 230 2 230 3 c 2
 129 498 l 2
 128 505 125 514 123 526 c 128
 121 538 119 547 117 556 c 128
 115 565 113 572 112 578 c 0
 109 589 103 597 91 602 c 128
 79 607 68 609 57 610 c 1
 56 613 56 620 58 629 c 128
 60 638 61 643 64 646 c 1
 104 641 146 640 192 640 c 0
EndSplineSet
EndChar
StartChar: W
Encoding: 87 87 55
Width: 856
Flags: HW
LayerCount: 2
Fore
SplineSet
195 640 m 0
 239 640 282 641 324 646 c 1
 326 643 326 638 324 629 c 128
 322 620 320 613 317 610 c 1
 278 607 258 594 258 572 c 0
 258 559 260 539 264 511 c 2
 301 245 l 1
 406 446 470 568 493 610 c 0
 498 620 504 629 511 636 c 128
 518 643 523 646 528 646 c 0
 531 646 534 641 536 631 c 2
 609 209 l 1
 697 388 746 488 756 509 c 0
 758 513 762 520 766 529 c 128
 770 538 773 544 776 550 c 128
 779 556 781 562 784 569 c 128
 787 576 789 582 790 587 c 0
 792 599 769 606 723 610 c 1
 722 613 722 620 724 629 c 128
 726 638 728 643 731 646 c 1
 780 641 815 640 837 640 c 0
 852 640 872 641 895 643 c 128
 918 645 933 646 941 646 c 1
 943 643 942 638 940 629 c 128
 938 620 936 613 933 610 c 1
 932 610 931 610 927 610 c 128
 923 610 920 609 917 609 c 128
 914 609 910 609 906 608 c 128
 902 607 898 607 895 606 c 128
 892 605 888 604 884 603 c 128
 880 602 877 601 874 599 c 128
 871 597 869 595 867 593 c 0
 846 570 828 543 813 512 c 1
 762 410 682 252 573 39 c 0
 566 27 558 15 549 5 c 128
 540 -5 532 -11 527 -11 c 0
 521 -11 516 -6 512 3 c 1
 441 408 l 1
 365 258 302 136 254 43 c 0
 248 33 242 21 233 8 c 128
 224 -5 217 -11 212 -11 c 0
 206 -11 202 -6 198 3 c 1
 130 498 l 1
 129 508 126 534 120 576 c 0
 119 582 115 587 110 592 c 128
 105 597 99 601 92 603 c 128
 85 605 78 607 73 608 c 128
 68 609 63 610 59 610 c 1
 57 613 57 619 59 628 c 128
 61 637 63 643 66 646 c 1
 106 641 149 640 195 640 c 0
EndSplineSet
EndChar
StartChar: X
Encoding: 88 88 56
Width: 1318
Flags: HW
LayerCount: 2
Back
SplineSet
566.48046875 1312 m 0
 594.085407021 1312 622.830262988 1312.6090535 652.715036651 1313.82716049 c 0
 682.599810314 1315.04526749 718.665653935 1316.93827161 760.912567515 1319.50617284 c 0
 803.159481096 1322.07407407 828.348781507 1323.57201646 836.48046875 1324 c 1
 836.653810421 1322.95855487 836.614463547 1320.57255366 836.362428128 1316.84199635 c 0
 836.110392709 1313.11143904 835.984375 1310.16410693 835.984375 1308 c 0
 835.984375 1296.48669511 833.992874249 1283.94170222 830.009872747 1270.36502133 c 0
 826.026871245 1256.78834044 822.183736579 1250 818.48046875 1250 c 0
 800.073061343 1250 778.685553419 1246.30378973 754.317944979 1238.91136919 c 0
 729.95033654 1231.51894866 716.00451113 1221.21515893 712.48046875 1208 c 1
 709.813802083 1192 711.813802083 1177.33333333 718.48046875 1164 c 1
 860.48046875 828 l 1
 879.039151155 848.1314521 904.479110245 875.118239468 936.80034602 908.960362104 c 0
 969.121581795 942.80248474 997.345663615 972.476910004 1021.47259148 997.983637896 c 0
 1045.59951935 1023.49036579 1070.00477086 1049.84794052 1094.68834602 1077.0563621 c 0
 1119.37192118 1104.26478368 1138.796003 1127.37920895 1152.96059148 1146.3996379 c 0
 1167.12517996 1165.42006685 1174.96513905 1179.28685421 1176.48046875 1188 c 0
 1179.3840562 1204.45366218 1167.42847158 1218.90041106 1140.61371489 1231.34024664 c 0
 1113.7989582 1243.78008221 1083.75454282 1250 1050.48046875 1250 c 0
 1048.48697917 1250 1047.49023438 1257.33333333 1047.49023438 1272 c 0
 1047.49023438 1281.4260899 1049.36375389 1291.65081175 1053.1107929 1302.67416555 c 0
 1056.85783191 1313.69751936 1060.64772386 1320.80613084 1064.48046875 1324 c 1
 1075.1142136 1323.3744856 1097.98664159 1321.85185186 1133.0977527 1319.43209877 c 0
 1168.20886381 1317.01234568 1198.46400785 1315.16872428 1223.8631848 1313.90123457 c 0
 1249.26236175 1312.63374486 1272.13478974 1312 1292.48046875 1312 c 0
 1321.10598315 1312 1349.54120949 1312.65037037 1377.78614776 1313.95111111 c 0
 1406.03108603 1315.25185185 1436.93841114 1317.06222222 1470.50812307 1319.38222222 c 0
 1504.077835 1321.70222222 1528.0686169 1323.24148148 1542.48046875 1324 c 1
 1542.984375 1322.4871627 1543.23632812 1317.82049603 1543.23632812 1310 c 0
 1543.23632812 1298.24246872 1541.37818183 1285.3030859 1537.66188925 1271.18185154 c 0
 1533.94559666 1257.06061718 1530.2184565 1250 1526.48046875 1250 c 0
 1509.11814991 1250 1481.0332794 1243.80159229 1442.22585721 1231.40477687 c 0
 1403.41843503 1219.00796145 1370.83663888 1199.20636916 1344.48046875 1172 c 2
 908.48046875 712 l 1
 1056.98046875 362.75 1138.31380208 176.083333333 1152.48046875 152 c 0
 1161.72993112 135.81344086 1173.91006536 121.599977598 1189.02087149 109.359610215 c 0
 1204.13167762 97.1192428315 1219.05265912 88.1399193548 1233.78381601 82.4216397849 c 0
 1248.5149729 76.703360215 1261.07315806 72.5368503584 1271.45837149 69.9221102151 c 0
 1281.84358492 67.3073700717 1289.51761734 66 1294.48046875 66 c 0
 1295.61264723 66 1296.31023569 64.9664578313 1296.57323414 62.899373494 c 0
 1296.83623259 60.8322891567 1296.72105567 58.003373494 1296.22770336 54.412626506 c 0
 1295.73435105 50.8218795181 1295.15619465 47.2401285141 1294.49323414 43.667373494 c 0
 1293.83027364 40.0946184739 1293.07509671 36.1457028113 1292.22770336 31.820626506 c 0
 1291.38031001 27.4955502008 1290.79789847 24.2220080321 1290.48046875 22 c 0
 1289.14713542 15.3333333333 1285.14713542 5.33333333333 1278.48046875 -8 c 1
 1130.48046875 0 1041.14713542 4 1010.48046875 4 c 0
 979.797341178 4 948.242486087 3.32702915682 915.815903476 1.98108747045 c 0
 883.389320865 0.635145784082 847.832364381 -1.13002364066 809.145034024 -3.31442080378 c 0
 770.457703668 -5.4988179669 738.902848577 -7.06067769897 714.48046875 -8 c 1
 713.291015625 -6.51384469487 712.696289062 -0.513844694867 712.696289062 10 c 0
 712.696289062 20.9754491945 715.070263672 33.0526448265 719.818212891 46.2315868959 c 0
 724.56616211 59.4105289653 728.786914063 66 732.48046875 66 c 0
 748.287486294 66 770.586365093 71.4160798122 799.377105147 82.2482394366 c 0
 828.167845202 93.080399061 843.868966403 106.330985915 846.48046875 122 c 1
 848.924913195 129.333333333 848.924913195 136.666666667 846.48046875 144 c 2
 680.48046875 538 l 1
 678.052747469 535.225461393 661.549393609 516.642421032 630.970407169 482.250878915 c 0
 600.39142073 447.859336798 571.06212845 414.609417522 542.982530331 382.501121085 c 0
 514.902932212 350.392824648 484.594891158 315.365410592 452.058407169 277.418878915 c 0
 419.521923181 239.472347238 393.072630902 207.342427962 372.710530331 181.029121085 c 0
 352.34842976 154.715814208 341.605075899 138.372773847 340.48046875 132 c 0
 336.807741477 111.8 348.764559659 95.75 376.350923295 83.85 c 0
 403.937286932 71.95 433.98046875 66 466.48046875 66 c 0
 470.48046875 66 470.48046875 52 466.48046875 24 c 0
 464.88046875 12.8 461.547135417 2.13333333333 456.48046875 -8 c 1
 336.48046875 0 255.813802083 4 214.48046875 4 c 0
 192.288161058 4 169.652037378 3.54411764706 146.572097709 2.63235294118 c 0
 123.492158041 1.72058823529 103.826905402 0.694852941175 87.5763397907 -0.444852941176 c 0
 71.3257741798 -1.58455882353 52.1160268194 -2.93382352941 29.9470977093 -4.49264705882 c 0
 7.77816859918 -6.05147058823 -10.7107077206 -7.22058823529 -25.51953125 -8 c 1
 -25.51953125 -7.44444444445 -26.050483631 -3.62698412699 -27.1123883929 3.45238095238 c 0
 -28.1742931548 10.5317460317 -28.3100074405 16.0476190476 -27.51953125 20 c 0
 -22.4084201389 50.6666666667 -17.0750868055 66 -11.51953125 66 c 0
 3.6730613426 66 32.5339980411 72.4222068329 75.0632788454 85.2666204986 c 0
 117.59255965 98.1110341642 147.398289618 114.355493998 164.48046875 134 c 2
 626.48046875 664 l 1
 456.48046875 1074 l 2
 454.535389385 1078.59746032 450.096254739 1089.28725661 443.163064812 1106.06938886 c 0
 436.229874885 1122.85152112 430.996144177 1135.24792855 427.461872688 1143.25861114 c 0
 423.927601199 1151.26929373 419.273331907 1161.44355297 413.499064812 1173.78138886 c 0
 407.724797717 1186.11922475 402.491067009 1195.95563217 397.797872688 1203.29061114 c 0
 393.104678367 1210.6255901 388.665543721 1216.19538639 384.48046875 1220 c 0
 374.473524305 1229.09722222 359.930121528 1236.37152778 340.850260417 1241.82291667 c 0
 321.770399306 1247.27430556 305.647135417 1250 292.48046875 1250 c 0
 290.653645833 1250 289.740234375 1258 289.740234375 1274 c 0
 289.740234375 1283.21795579 291.590234229 1293.07260605 295.290233938 1303.56395077 c 0
 298.990233647 1314.05529549 302.720311917 1320.8673119 306.48046875 1324 c 1
 327.324350607 1323.07360525 354.771399625 1321.51336147 388.821615804 1319.31926864 c 0
 422.871831984 1317.12517581 454.19995617 1315.3567745 482.805988362 1314.0140647 c 0
 511.412020555 1312.6713549 539.303514017 1312 566.48046875 1312 c 0
EndSplineSet
Fore
SplineSet
478 1312 m 0
 506 1312 596 1316 748 1324 c 1
 749.333333333 1316.66666667 747.833333333 1302.5 743.5 1281.5 c 128
 739.166666667 1260.5 734.666666667 1250 730 1250 c 0
 711.333333333 1250 689.833333333 1246.33333333 665.5 1239 c 128
 641.166666667 1231.66666667 627.333333333 1221.33333333 624 1208 c 1
 621.333333333 1192 623.333333333 1177.33333333 630 1164 c 1
 772 828 l 1
 794 852 831 891.166666667 883 945.5 c 128
 935 999.833333333 977.833333333 1045.66666667 1011.5 1083 c 128
 1045.16666667 1120.33333333 1068 1148.66666667 1080 1168 c 0
 1085.33333333 1175.33333333 1088 1182 1088 1188 c 1
 1090.66666667 1204.66666667 1079 1219.16666667 1053 1231.5 c 128
 1027 1243.83333333 997.333333333 1250 964 1250 c 1
 961.333333333 1251.33333333 960 1256.83333333 960 1266.5 c 128
 960 1276.16666667 961.666666667 1287.33333333 965 1300 c 128
 968.333333333 1312.66666667 972 1320.66666667 976 1324 c 1
 1050.66666667 1314.66666667 1132 1310 1220 1310 c 0
 1305.33333333 1310 1380.66666667 1314.66666667 1446 1324 c 1
 1448 1317.33333333 1447 1303.33333333 1443 1282 c 128
 1439 1260.66666667 1434.66666667 1250 1430 1250 c 0
 1418 1250 1403.33333333 1248.66666667 1386 1246 c 128
 1368.66666667 1243.33333333 1341.16666667 1233.33333333 1303.5 1216 c 128
 1265.83333333 1198.66666667 1232 1174.66666667 1202 1144 c 2
 804 738 l 1
 857.333333333 610 911.333333333 484.5 966 361.5 c 128
 1020.66666667 238.5 1053.33333333 168.666666667 1064 152 c 1
 1081.33333333 122 1108 100.166666667 1144 86.5 c 128
 1180 72.8333333333 1209.33333333 66 1232 66 c 1
 1234 56.6666666667 1233.66666667 44 1231 28 c 128
 1228.33333333 12 1224 0 1218 -8 c 1
 1070 0 971.333333333 4 922 4 c 0
 891.333333333 4 859.833333333 3.33333333333 827.5 2 c 128
 795.166666667 0.666666666667 759.666666667 -1.16666666667 721 -3.5 c 128
 682.333333333 -5.83333333333 650.666666667 -7.33333333333 626 -8 c 1
 622 -3.33333333333 622.666666667 10.1666666667 628 32.5 c 128
 633.333333333 54.8333333333 638.666666667 66 644 66 c 0
 660 66 682.666666667 71.5 712 82.5 c 128
 741.333333333 93.5 757.333333333 106.666666667 760 122 c 1
 762 127.333333333 761.333333333 134.666666667 758 144 c 2
 588 546 l 1
 406.666666667 344 296.666666667 217.333333333 258 166 c 0
 245.333333333 148.666666667 238 137.333333333 236 132 c 1
 231.333333333 110.666666667 245 94.3333333333 277 83 c 128
 309 71.6666666667 342.666666667 66 378 66 c 1
 381.333333333 59.3333333333 382 48 380 32 c 128
 378 16 374.666666667 2.66666666667 370 -8 c 1
 250 0 168.666666667 4 126 4 c 0
 97.3333333333 4 69.5 3.33333333333 42.5 2 c 128
 15.5 0.666666666667 -13.3333333333 -1.16666666667 -44 -3.5 c 128
 -74.6666666667 -5.83333333333 -98 -7.33333333333 -114 -8 c 1
 -117.333333333 -2 -117.333333333 10.1666666667 -114 28.5 c 128
 -110.666666667 46.8333333333 -106 59.3333333333 -100 66 c 1
 -92 66 -81.6666666667 66.8333333333 -69 68.5 c 128
 -56.3333333333 70.1666666667 -38.3333333333 73.5 -15 78.5 c 128
 8.33333333333 83.5 32.3333333333 93 57 107 c 128
 81.6666666667 121 102.666666667 138 120 158 c 2
 546 644 l 1
 370 1074 l 2
 335.333333333 1159.33333333 311.333333333 1208 298 1220 c 0
 288 1228.66666667 269.166666667 1235.83333333 241.5 1241.5 c 128
 213.833333333 1247.16666667 192 1250 176 1250 c 1
 173.333333333 1251.33333333 172.166666667 1256.83333333 172.5 1266.5 c 128
 172.833333333 1276.16666667 174.833333333 1287.33333333 178.5 1300 c 128
 182.166666667 1312.66666667 186 1320.66666667 190 1324 c 1
 370 1316 466 1312 478 1312 c 0
EndSplineSet
EndChar
StartChar: Y
Encoding: 89 89 57
Width: 562
Flags: HW
LayerCount: 2
Fore
SplineSet
187 142 m 2
 213 277 l 2
 214 282 213 289 211 297 c 0
 207 313 200 340 188 378 c 128
 176 416 166 449 156 479 c 2
 142 524 l 2
 133 553 127 571 124 578 c 0
 120 588 113 596 101 601 c 128
 89 606 78 609 68 610 c 1
 67 613 67 620 69 629 c 128
 71 638 72 643 75 646 c 1
 115 641 158 640 204 640 c 0
 248 640 291 641 333 646 c 1
 335 643 335 638 333 629 c 128
 331 620 329 613 326 610 c 0
 326 610 324 610 321 610 c 128
 318 610 316 610 314 610 c 128
 312 610 309 609 306 609 c 128
 303 609 300 608 298 607 c 128
 296 606 292 606 289 605 c 128
 286 604 283 603 281 602 c 128
 279 601 276 599 274 597 c 128
 272 595 270 593 269 591 c 128
 268 589 267 587 266 584 c 0
 266 583 267 578 270 568 c 2
 336 353 l 1
 337 352 340 355 345 361 c 128
 350 367 357 376 366 388 c 128
 375 400 385 413 395 427 c 128
 405 441 416 456 429 474 c 128
 442 492 453 508 462 521 c 128
 471 534 481 548 492 564 c 1
 497 572 500 580 501 587 c 0
 503 599 482 606 438 610 c 1
 437 613 437 620 439 629 c 128
 441 638 442 643 445 646 c 1
 494 641 528 640 546 640 c 0
 561 640 580 641 603 643 c 128
 626 645 641 646 649 646 c 1
 651 643 651 638 649 629 c 128
 647 620 646 613 643 610 c 0
 643 610 640 610 637 610 c 128
 634 610 631 609 629 609 c 128
 627 609 623 608 619 608 c 128
 615 608 611 607 608 606 c 128
 605 605 602 604 598 603 c 128
 594 602 590 601 587 599 c 128
 584 597 581 595 578 593 c 128
 575 591 572 589 570 586 c 0
 553 565 515 517 458 442 c 128
 401 367 364 316 348 291 c 1
 343 284 340 278 339 272 c 2
 313 142 l 1
 303 94 300 64 303 50 c 1
 304 41 322 35 357 32 c 1
 358 29 359 23 357 14 c 128
 355 5 354 -1 351 -4 c 1
 311 1 268 3 222 3 c 0
 178 3 135 1 93 -4 c 1
 91 -1 91 5 93 14 c 128
 95 23 97 29 100 32 c 1
 136 35 156 41 161 50 c 0
 164 56 168 64 171 75 c 128
 174 86 177 94 178 101 c 128
 179 108 183 122 187 142 c 2
EndSplineSet
EndChar
StartChar: Z
Encoding: 90 90 58
Width: 1216
Flags: HW
LayerCount: 2
Fore
SplineSet
582 1220 m 2
 560.666666667 1220 540.5 1218.5 521.5 1215.5 c 128
 502.5 1212.5 484.833333333 1207 468.5 1199 c 128
 452.166666667 1191 437.833333333 1183.83333333 425.5 1177.5 c 128
 413.166666667 1171.16666667 400.5 1160.83333333 387.5 1146.5 c 128
 374.5 1132.16666667 364.166666667 1121.16666667 356.5 1113.5 c 128
 348.833333333 1105.83333333 339.333333333 1092.33333333 328 1073 c 128
 316.666666667 1053.66666667 309 1040.33333333 305 1033 c 128
 301 1025.66666667 293.166666667 1011 281.5 989 c 128
 269.833333333 967 262.666666667 953.333333333 260 948 c 1
 254.666666667 940 246 936 234 936 c 0
 204 936 186.666666667 939.333333333 182 946 c 1
 253.333333333 1134.66666667 300 1260.66666667 322 1324 c 1
 334 1320.66666667 371.666666667 1317.5 435 1314.5 c 128
 498.333333333 1311.5 541.333333333 1310 564 1310 c 2
 824 1312 l 1
 962.666666667 1314 1108 1320.66666667 1260 1332 c 1
 1264 1331.33333333 1266.5 1322.66666667 1267.5 1306 c 128
 1268.5 1289.33333333 1268 1276 1266 1266 c 1
 1264 1261.33333333 1183.66666667 1161.33333333 1025 966 c 128
 866.333333333 770.666666667 708.166666667 576.5 550.5 383.5 c 2
 314 94 l 1
 716 94 l 2
 790 94 853.333333333 117.333333333 906 164 c 1
 950.666666667 202.666666667 994.666666667 261.333333333 1038 340 c 0
 1042 348 1051.33333333 352 1066 352 c 0
 1075.33333333 352 1086.16666667 350.666666667 1098.5 348 c 128
 1110.83333333 345.333333333 1118 342.666666667 1120 340 c 1
 1108.66666667 316.666666667 1081.33333333 262.666666667 1038 178 c 128
 994.666666667 93.3333333333 966.666666667 34.6666666667 954 2 c 1
 -2 0 l 2
 -9.33333333333 0 -16.8333333333 3.16666666667 -24.5 9.5 c 128
 -32.1666666667 15.8333333333 -37.6666666667 22.5 -41 29.5 c 128
 -44.3333333333 36.5 -44.6666666667 41.3333333333 -42 44 c 2
 924 1220 l 1
 582 1220 l 2
EndSplineSet
EndChar
StartChar: bracketleft
Encoding: 91 91 59
Width: 256
Flags: HW
LayerCount: 2
Fore
SplineSet
167 732 m 1
 169 738 172 741 176 741 c 0
 245 741 298 743 335 747 c 1
 338 744 340 740 340 735 c 0
 340 730 338 726 334 721 c 128
 330 716 326 713 321 711 c 0
 301 702 268 695 222 690 c 0
 219 690 217 689 215 685 c 1
 68 -55 l 2
 67 -58 69 -61 74 -62 c 0
 75 -62 80 -64 91 -66 c 128
 102 -68 110 -70 116 -72 c 128
 122 -74 130 -77 140 -81 c 128
 150 -85 158 -89 165 -93 c 0
 175 -100 181 -105 181 -112 c 0
 181 -120 178 -126 173 -130 c 1
 88 -114 34 -105 10 -104 c 0
 8 -104 6 -103 5 -101 c 128
 4 -99 3 -97 3 -95 c 2
 167 732 l 1
EndSplineSet
EndChar
StartChar: backslash
Encoding: 92 92 60
Width: 780
Flags: HW
LayerCount: 2
Fore
SplineSet
606 -8 m 2
 608.666666667 -22.6666666667 601.666666667 -38.3333333333 585 -55 c 128
 568.333333333 -71.6666666667 554 -80 542 -80 c 0
 531.333333333 -80 523.333333333 -78 518 -74 c 1
 246 1510 l 1
 252 1519.33333333 261.333333333 1524 274 1524 c 0
 292.666666667 1524 310.666666667 1514.83333333 328 1496.5 c 128
 345.333333333 1478.16666667 355.333333333 1462.66666667 358 1450 c 2
 606 -8 l 2
EndSplineSet
EndChar
StartChar: bracketright
Encoding: 93 93 61
Width: 520
Flags: HW
LayerCount: 2
Fore
SplineSet
204 1530 m 0
 344 1518 454 1512 534 1512 c 0
 541.333333333 1512 546.833333333 1509.5 550.5 1504.5 c 128
 554.166666667 1499.5 555.333333333 1494.66666667 554 1490 c 2
 224 -194 l 1
 222 -197 l 2
 220.666666667 -199 219.166666667 -201 217.5 -203 c 128
 215.833333333 -205 213.5 -206.833333333 210.5 -208.5 c 128
 207.5 -210.166666667 204 -211.333333333 200 -212 c 0
 76 -223.333333333 -26 -241.333333333 -106 -266 c 1
 -108.666666667 -264.666666667 -111.666666667 -261.166666667 -115 -255.5 c 128
 -118.333333333 -249.833333333 -120 -244 -120 -238 c 0
 -120 -218.666666667 -102 -200 -66 -182 c 0
 -5.33333333333 -152 52.6666666667 -128.666666667 108 -112 c 0
 118 -108.666666667 124 -103.333333333 126 -96 c 2
 420 1394 l 2
 422 1404 417.333333333 1410 406 1412 c 0
 319.333333333 1422.66666667 256 1437.33333333 216 1456 c 1
 196 1466.66666667 186 1484.66666667 186 1510 c 0
 186 1514.66666667 187.5 1518.66666667 190.5 1522 c 128
 193.5 1525.33333333 196.166666667 1527.5 198.5 1528.5 c 128
 200.833333333 1529.5 202.666666667 1530 204 1530 c 0
EndSplineSet
EndChar
StartChar: asciicircum
Encoding: 94 94 62
Width: 315
Flags: HW
LayerCount: 2
Fore
SplineSet
20 487 m 1
 21 490 27 496 38 506 c 128
 49 516 62 526 76 539 c 128
 90 552 107 569 126 591 c 128
 145 613 163 637 178 661 c 0
 179 662 179 665 180 667 c 128
 181 669 183 671 183 671 c 128
 183 671 184 672 185 673 c 128
 186 674 187 674 189 674 c 0
 193 674 197 673 199 671 c 128
 201 669 203 666 205 661 c 128
 207 656 209 650 211 643 c 128
 213 636 216 627 221 614 c 128
 226 601 231 588 238 574 c 1
 243 566 250 555 260 541 c 128
 270 527 278 515 285 505 c 128
 292 495 296 489 296 488 c 1
 295 484 293 478 289 470 c 128
 285 462 281 458 278 458 c 0
 270 458 254 469 231 493 c 128
 208 517 189 542 173 568 c 1
 150 542 121 518 88 494 c 128
 55 470 33 458 25 458 c 0
 21 458 20 467 20 487 c 1
EndSplineSet
EndChar
StartChar: underscore
Encoding: 95 95 63
Width: 948
Flags: HW
LayerCount: 2
Fore
SplineSet
-71 -70 m 0
 -70.3333333333 -67.3333333333 -69.6666666667 -63.6666666667 -69 -59 c 128
 -68.3333333333 -54.3333333333 -66.3333333333 -46 -63 -34 c 128
 -59.6666666667 -22 -56.3333333333 -11.3333333333 -53 -2 c 128
 -49.6666666667 7.33333333333 -45.5 15.6666666667 -40.5 23 c 128
 -35.5 30.3333333333 -30.3333333333 34 -25 34 c 2
 811 34 l 2
 813.666666667 34 815 28.6666666667 815 18 c 0
 815 -2.66666666667 805 -34.6666666667 785 -78 c 0
 783 -81.3333333333 780.5 -84 777.5 -86 c 128
 774.5 -88 772 -89.1666666667 770 -89.5 c 2
 767 -90 l 1
 -61 -90 l 2
 -62 -90 -62 -90 -62.5 -90 c 128
 -62.8333333333 -90 -63.8333333333 -89.6666666667 -65.5 -89 c 128
 -67.1666666667 -88.3333333333 -68.3333333333 -87.3333333333 -69 -86 c 128
 -69.6666666667 -84.6666666667 -70.5 -82.6666666667 -71.5 -80 c 128
 -72.5 -77.3333333333 -72.3333333333 -74 -71 -70 c 0
EndSplineSet
EndChar
StartChar: a
Encoding: 97 97 65
Width: 477
Flags: W
HStem: -8 84<67 186 275 375> 385 54<223 328>
VStem: 11 123<84 217>
LayerCount: 2
Fore
SplineSet
311 438 m 0
 346 438 395 428 415 421 c 1
 354 129 l 2
 353 125 351 102 351 97 c 0
 351 88 354 76 364 76 c 0
 385 76 431 130 434 136 c 1
 441 136 447 115 447 109 c 1
 430 78 345 -8 292 -8 c 0
 258 -8 231 14 231 57 c 0
 231 61 232 68 233 75 c 0
 234 83 236 90 237 94 c 1
 216 58 154 -7 95 -7 c 0
 40 -7 11 46 11 112 c 0
 11 287 187 438 311 438 c 0
256 385 m 0
 190 385 134 263 134 148 c 0
 134 101 148 79 169 79 c 0
 202 79 251 177 271 274 c 2
 290 373 l 1
 283 381 270 385 256 385 c 0
EndSplineSet
EndChar
StartChar: b
Encoding: 98 98 66
Width: 454
Flags: HW
LayerCount: 2
Fore
SplineSet
273 353 m 0
 252 353 230 332 205 291 c 128
 180 250 163 208 154 163 c 0
 150 143 148 124 148 106 c 128
 148 88 150 73 155 59 c 128
 160 45 168 38 179 38 c 0
 199 38 217 53 237 83 c 128
 257 113 273 148 284 188 c 128
 295 228 301 263 301 295 c 0
 301 333 291 353 273 353 c 0
186 328 m 1
 201 352 225 376 257 401 c 128
 289 426 316 438 338 438 c 0
 366 438 387 429 403 410 c 128
 419 391 427 364 427 329 c 0
 427 285 418 242 399 200 c 128
 380 158 357 121 329 92 c 128
 301 63 271 39 238 21 c 128
 205 3 175 -6 147 -6 c 0
 115 -6 89 5 67 25 c 128
 45 45 34 71 34 104 c 0
 34 122 36 140 40 158 c 1
 116 547 l 1
 122 573 125 591 125 599 c 0
 125 611 105 617 65 617 c 1
 64 619 64 624 65 631 c 128
 66 638 67 644 69 646 c 1
 94 648 127 653 167 661 c 128
 207 669 233 676 245 680 c 1
 249 678 251 671 251 661 c 0
 251 653 246 629 238 588 c 2
 186 328 l 1
EndSplineSet
EndChar
StartChar: c
Encoding: 99 99 67
Width: 368
Flags: W
HStem: -6 81<103 200> 390 49<187 279>
VStem: 15 123<88 240>
LayerCount: 2
Fore
SplineSet
260 438 m 0
 299 438 333 427 346 417 c 1
 352 408 360 390 360 368 c 0
 360 339 335 309 306 309 c 0
 282 309 266 326 256 345 c 0
 247 362 234 390 213 390 c 0
 177 390 138 269 138 166 c 0
 138 100 159 75 198 75 c 0
 242 75 293 134 296 137 c 1
 304 137 309 117 309 111 c 1
 294 89 206 -6 132 -6 c 0
 74 -6 15 36 15 128 c 0
 15 280 143 438 260 438 c 0
EndSplineSet
EndChar
StartChar: d
Encoding: 100 100 68
Width: 974
Flags: W
LayerCount: 2
Fore
SplineSet
574 706 m 0,0,1
 574 788 574 788 522 788 c 0,2,3
 456 788 456 788 397.5 716.5 c 128,-1,4
 339 645 339 645 305.5 533 c 128,-1,5
 272 421 272 421 272 304 c 0,6,7
 272 162 272 162 344 162 c 0,8,9
 377 162 377 162 422 228.5 c 128,-1,10
 467 295 467 295 503.5 389 c 128,-1,11
 540 483 540 483 552 562 c 1,12,13
 574 680 574 680 574 706 c 0,0,1
664 1120 m 2,14,15
 666 1132 666 1132 671 1156.5 c 128,-1,16
 676 1181 676 1181 679 1198.5 c 128,-1,17
 682 1216 682 1216 682 1226 c 0,18,19
 682 1264 682 1264 560 1264 c 1,20,21
 556 1270 556 1270 559 1293 c 128,-1,22
 562 1316 562 1316 568 1322 c 1,23,24
 645 1329 645 1329 768 1354 c 128,-1,25
 891 1379 891 1379 928 1392 c 1,26,27
 940 1385 940 1385 940 1354 c 0,28,29
 940 1329 940 1329 914 1204 c 2,30,-1
 724 264 l 1,31,32
 716 232 716 232 716 198 c 0,33,34
 716 182 716 182 723 169 c 128,-1,35
 730 156 730 156 744 156 c 0,36,37
 772 156 772 156 824.5 208 c 128,-1,38
 877 260 877 260 886 278 c 1,39,40
 895 278 895 278 904.5 257 c 128,-1,41
 914 236 914 236 914 224 c 1,42,43
 895 189 895 189 842 134 c 128,-1,44
 789 79 789 79 717.5 31.5 c 128,-1,45
 646 -16 646 -16 596 -16 c 0,46,47
 529 -16 529 -16 496 32 c 0,48,49
 472 68 472 68 472 116 c 0,50,51
 472 144 472 144 484 192 c 1,52,53
 445 124 445 124 359 55 c 128,-1,54
 273 -14 273 -14 192 -14 c 128,-1,55
 111 -14 111 -14 65.5 55 c 128,-1,56
 20 124 20 124 20 230 c 0,57,58
 20 350 20 350 73.5 468.5 c 128,-1,59
 127 587 127 587 210 674.5 c 128,-1,60
 293 762 293 762 393 822 c 128,-1,61
 493 882 493 882 586 896 c 0,62,63
 598 898 598 898 620 898 c 1,64,-1
 664 1120 l 2,14,15
EndSplineSet
EndChar
StartChar: e
Encoding: 101 101 69
Width: 788
Flags: W
LayerCount: 2
Fore
SplineSet
536 898 m 0,0,1
 577 898 577 898 614 888.5 c 128,-1,2
 651 879 651 879 684.5 859 c 128,-1,3
 718 839 718 839 738 801.5 c 128,-1,4
 758 764 758 764 758 714 c 0,5,6
 758 642 758 642 702 575.5 c 128,-1,7
 646 509 646 509 567 467 c 128,-1,8
 488 425 488 425 411 400.5 c 128,-1,9
 334 376 334 376 284 376 c 1,10,11
 280 364 280 364 280 326 c 0,12,13
 280 295 280 295 285.5 267.5 c 128,-1,14
 291 240 291 240 303.5 213 c 128,-1,15
 316 186 316 186 341 170 c 128,-1,16
 366 154 366 154 402 154 c 0,17,18
 416 154 416 154 432 158 c 128,-1,19
 448 162 448 162 463 169.5 c 128,-1,20
 478 177 478 177 493 186 c 128,-1,21
 508 195 508 195 521.5 206 c 128,-1,22
 535 217 535 217 547 227 c 128,-1,23
 559 237 559 237 569.5 247.5 c 128,-1,24
 580 258 580 258 586.5 265 c 128,-1,25
 593 272 593 272 598.5 278 c 2,26,-1
 604 284 l 1,27,28
 616 284 616 284 625 260.5 c 128,-1,29
 634 237 634 237 634 224 c 1,30,31
 623 206 623 206 581.5 168 c 128,-1,32
 540 130 540 130 486 89.5 c 128,-1,33
 432 49 432 49 369 18.5 c 128,-1,34
 306 -12 306 -12 262 -12 c 0,35,36
 155 -12 155 -12 93.5 65 c 128,-1,37
 32 142 32 142 32 280 c 0,38,39
 32 388 32 388 78.5 501 c 128,-1,40
 125 614 125 614 197 700.5 c 128,-1,41
 269 787 269 787 360.5 842.5 c 128,-1,42
 452 898 452 898 536 898 c 0,0,1
290 452 m 1,43,44
 319 452 319 452 358.5 477.5 c 128,-1,45
 398 503 398 503 434 543 c 128,-1,46
 470 583 470 583 495 638 c 128,-1,47
 520 693 520 693 520 746 c 0,48,49
 520 824 520 824 468 824 c 0,50,51
 434 824 434 824 401.5 781 c 128,-1,52
 369 738 369 738 346.5 676 c 128,-1,53
 324 614 324 614 309 554 c 128,-1,54
 294 494 294 494 290 452 c 1,43,44
EndSplineSet
EndChar
StartChar: f
Encoding: 102 102 70
Width: 636
Flags: W
LayerCount: 2
Fore
SplineSet
686 1390 m 0,0,1
 733 1390 733 1390 774 1379 c 128,-1,2
 815 1368 815 1368 834 1354 c 1,3,4
 852 1325 852 1325 852 1288 c 0,5,6
 852 1249 852 1249 830.5 1219.5 c 128,-1,7
 809 1190 809 1190 776 1190 c 0,8,9
 727 1190 727 1190 692 1238 c 0,10,11
 691 1239 691 1239 686 1246.5 c 128,-1,12
 681 1254 681 1254 679.5 1256 c 128,-1,13
 678 1258 678 1258 673 1265 c 128,-1,14
 668 1272 668 1272 665.5 1274 c 128,-1,15
 663 1276 663 1276 658 1281 c 128,-1,16
 653 1286 653 1286 649 1288 c 128,-1,17
 645 1290 645 1290 640 1293 c 128,-1,18
 635 1296 635 1296 629.5 1297 c 128,-1,19
 624 1298 624 1298 618 1298 c 0,20,21
 574 1298 574 1298 543.5 1202.5 c 128,-1,22
 513 1107 513 1107 462 848 c 1,23,-1
 662 848 l 2,24,25
 672 848 672 848 672 824 c 0,26,27
 672 791 672 791 650 756 c 1,28,-1
 444 756 l 1,29,30
 382 368 382 368 334 116 c 0,31,32
 311 -2 311 -2 259.5 -107.5 c 128,-1,33
 208 -213 208 -213 145 -283.5 c 128,-1,34
 82 -354 82 -354 13 -395 c 128,-1,35
 -56 -436 -56 -436 -116 -436 c 0,36,37
 -163 -436 -163 -436 -204 -425 c 128,-1,38
 -245 -414 -245 -414 -264 -400 c 1,39,40
 -282 -371 -282 -371 -282 -334 c 0,41,42
 -282 -295 -282 -295 -260.5 -265.5 c 128,-1,43
 -239 -236 -239 -236 -206 -236 c 0,44,45
 -157 -236 -157 -236 -122 -284 c 0,46,47
 -121 -285 -121 -285 -116 -292.5 c 128,-1,48
 -111 -300 -111 -300 -109.5 -302 c 128,-1,49
 -108 -304 -108 -304 -103 -311 c 128,-1,50
 -98 -318 -98 -318 -95.5 -320 c 128,-1,51
 -93 -322 -93 -322 -88 -327 c 128,-1,52
 -83 -332 -83 -332 -79 -334 c 128,-1,53
 -75 -336 -75 -336 -70 -339 c 128,-1,54
 -65 -342 -65 -342 -59.5 -343 c 128,-1,55
 -54 -344 -54 -344 -48 -344 c 0,56,57
 -3 -344 -3 -344 19 -280.5 c 128,-1,58
 41 -217 41 -217 75.6559500425 -31.1766874823 c 0,59,60
 92 57 92 57 102 108 c 1,61,-1
 214 756 l 1,62,-1
 84 756 l 2,63,64
 80 756 80 756 80 762 c 0,65,66
 80 780 80 780 112.5 814 c 128,-1,67
 145 848 145 848 176 848 c 2,68,-1
 230 848 l 1,69,70
 253 965 253 965 309 1070 c 128,-1,71
 365 1175 365 1175 432 1243 c 128,-1,72
 499 1311 499 1311 567 1350.5 c 128,-1,73
 635 1390 635 1390 686 1390 c 0,0,1
EndSplineSet
EndChar
StartChar: g
Encoding: 103 103 71
Width: 433
VWidth: 0
Flags: W
HStem: -221 47<93 235> 385 54<356 433> 409 38<191 257>
VStem: -56 113<-141 -54> 19 165<45 113> 40 111<202 352> 268 102<-132 10> 273 109<228 377>
LayerCount: 2
Fore
SplineSet
268 -110 m 0x92
 268 -70 170 -32 112 -14 c 1
 77 -33 58 -52 58 -82 c 0
 58 -145 109 -174 168 -174 c 0
 206 -174 268 -153 268 -110 c 0x92
229 409 m 0xa5
 181 411 154 336 151 271 c 0
 149 225 158 176 194 174 c 0
 237 172 271 236 273 295 c 0
 275 341 267 407 229 409 c 0xa5
355 385 m 1xc4
 359 379 383 352 383 302 c 0
 383 210 295 156 248 137 c 0
 221 126 184 124 184 103 c 0xc9
 184 74 369 59 369 -39 c 0
 369 -132 261 -221 118 -221 c 0
 11 -221 -56 -169 -56 -107 c 0xd2
 -56 -38 30 -13 77 4 c 1
 77 4 40 20 33 27 c 0
 25 35 19 36 19 55 c 0xc8
 19 79 113 130 160 141 c 1
 99 157 40 194 40 271 c 0
 40 368 122 447 218 447 c 1xa4
 256 447 287 435 311 424 c 0
 320 420 382 436 395 438 c 1
 408 434 444 414 444 402 c 0
 444 395 437 385 429 385 c 0
 415 385 368 385 355 385 c 1xc4
EndSplineSet
EndChar
StartChar: h
Encoding: 104 104 72
Width: 1008
Flags: HW
LayerCount: 2
Fore
SplineSet
494 1204 m 1
 420.666666667 832 382.666666667 640 380 628 c 2
 364 548 l 1
 384.666666667 594 415 644 455 698 c 128
 495 752 538.333333333 798.833333333 585 838.5 c 128
 631.666666667 878.166666667 670.666666667 898 702 898 c 0
 756 898 793.5 884 814.5 856 c 128
 835.5 828 846 784 846 724 c 0
 846 690.666666667 832.666666667 604.666666667 806 466 c 2
 768 264 l 1
 762.666666667 242.666666667 760 220.666666667 760 198 c 0
 760 187.333333333 762.333333333 177.666666667 767 169 c 128
 771.666666667 160.333333333 778.666666667 156 788 156 c 0
 806.666666667 156 833.5 173.333333333 868.5 208 c 128
 903.5 242.666666667 924 266 930 278 c 1
 936 278 942.166666667 271 948.5 257 c 128
 954.833333333 243 958 232 958 224 c 1
 945.333333333 200.666666667 921.333333333 170.666666667 886 134 c 128
 850.666666667 97.3333333333 809.166666667 63.1666666667 761.5 31.5 c 128
 713.833333333 -0.166666666667 673.333333333 -16 640 -16 c 0
 604 -16 574 -4.33333333333 550 19 c 128
 526 42.3333333333 514 78 514 126 c 0
 514 158 520 198 532 246 c 1
 578 484 l 1
 581.333333333 497.333333333 586.166666667 523.666666667 592.5 563 c 128
 598.833333333 602.333333333 602 626.666666667 602 636 c 0
 602 647.333333333 599.166666667 657.166666667 593.5 665.5 c 128
 587.833333333 673.833333333 580 678 570 678 c 0
 550.666666667 678 523.333333333 654.833333333 488 608.5 c 128
 452.666666667 562.166666667 416.833333333 499.5 380.5 420.5 c 128
 344.166666667 341.5 317.333333333 262 300 182 c 2
 260 0 l 1
 233.333333333 -8 196 -12 148 -12 c 0
 101.333333333 -12 62 -8 30 0 c 1
 161.333333333 678 232.666666667 1051.33333333 244 1120 c 1
 256 1177.33333333 262 1212.66666667 262 1226 c 0
 262 1251.33333333 221.333333333 1264 140 1264 c 1
 137.333333333 1268 137 1277.66666667 139 1293 c 128
 141 1308.33333333 144 1318 148 1322 c 1
 199.333333333 1326.66666667 266 1337.33333333 348 1354 c 128
 430 1370.66666667 483.333333333 1383.33333333 508 1392 c 1
 516 1387.33333333 520 1374.66666667 520 1354 c 0
 520 1334.66666667 511.333333333 1284.66666667 494 1204 c 1
EndSplineSet
EndChar
StartChar: i
Encoding: 105 105 73
Width: 620
VWidth: 0
Flags: HW
LayerCount: 2
Fore
SplineSet
212 618 m 1
 218.666666667 644.666666667 222 666.666666667 222 684 c 0
 222 694 219.333333333 703.5 214 712.5 c 128
 208.666666667 721.5 201.333333333 726 192 726 c 0
 173.333333333 726 146.5 708.666666667 111.5 674 c 128
 76.5 639.333333333 56 616 50 604 c 1
 44 604 37.8333333333 611 31.5 625 c 128
 25.1666666667 639 22 650 22 658 c 1
 44 699.333333333 89.1666666667 749.666666667 157.5 809 c 128
 225.833333333 868.333333333 284 898 332 898 c 0
 372.666666667 898 405.166666667 885.666666667 429.5 861 c 128
 453.833333333 836.333333333 466 801.333333333 466 756 c 0
 466 736 460 696 448 636 c 2
 374 264 l 1
 368.666666667 242.666666667 366 220.666666667 366 198 c 0
 366 187.333333333 368.333333333 177.666666667 373 169 c 128
 377.666666667 160.333333333 384.666666667 156 394 156 c 0
 412.666666667 156 439.5 173.333333333 474.5 208 c 128
 509.5 242.666666667 530 266 536 278 c 1
 542 278 548.166666667 271 554.5 257 c 128
 560.833333333 243 564 232 564 224 c 1
 551.333333333 200.666666667 527.333333333 170.666666667 492 134 c 128
 456.666666667 97.3333333333 415.166666667 63.1666666667 367.5 31.5 c 128
 319.833333333 -0.166666666667 279.333333333 -16 246 -16 c 0
 210 -16 180 -4.33333333333 156 19 c 128
 132 42.3333333333 120 78 120 126 c 0
 120 158 126 198 138 246 c 1
 212 618 l 1
426 1374 m 0
 460 1374 487.833333333 1362.16666667 509.5 1338.5 c 128
 531.166666667 1314.83333333 542 1285.33333333 542 1250 c 0
 542 1205.33333333 526.333333333 1165.83333333 495 1131.5 c 128
 463.666666667 1097.16666667 427.333333333 1080 386 1080 c 0
 352.666666667 1080 325 1092.16666667 303 1116.5 c 128
 281 1140.83333333 270 1170.66666667 270 1206 c 0
 270 1250 285.5 1289 316.5 1323 c 128
 347.5 1357 384 1374 426 1374 c 0
EndSplineSet
Substitution2: "'ccmp' Turkish i-1" i.TRK
EndChar
StartChar: j
Encoding: 106 106 74
Width: 279
VWidth: 0
Flags: HW
LayerCount: 2
Fore
SplineSet
113 302 m 1
 116 315 118 326 118 334 c 0
 118 339 117 344 114 348 c 128
 111 352 109 354 104 354 c 0
 95 354 81 346 64 329 c 128
 47 312 37 301 34 295 c 1
 31 295 28 298 25 305 c 128
 22 312 21 317 21 321 c 1
 32 341 54 366 87 395 c 128
 120 424 149 438 172 438 c 0
 192 438 207 432 219 420 c 128
 231 408 237 391 237 369 c 0
 237 359 235 340 229 311 c 1
 214 231 201 166 191 117 c 0
 184 78 174 45 160 15 c 128
 146 -15 128 -44 106 -73 c 0
 87 -98 55 -127 12 -159 c 128
 -31 -191 -61 -208 -77 -213 c 1
 -79 -213 -81 -211 -83 -206 c 128
 -85 -201 -86 -196 -86 -191 c 1
 -36 -153 0 -114 21 -74 c 128
 42 -34 59 23 74 98 c 2
 113 302 l 1
230 673 m 0
 246 673 260 667 271 655 c 128
 282 643 287 628 287 611 c 0
 287 589 279 570 264 553 c 128
 249 536 231 528 211 528 c 0
 195 528 181 534 170 546 c 128
 159 558 154 573 154 590 c 0
 154 612 162 631 177 648 c 128
 192 665 210 673 230 673 c 0
EndSplineSet
EndChar
StartChar: k
Encoding: 107 107 75
Width: 491
VWidth: 0
Flags: W
HStem: -4 84<276 393> 365 73<289 396> 617 28<69 126> 660 20G<237 250>
VStem: 128 126<540 664> 321 126<316 391>
LayerCount: 2
Back
SplineSet
351.5625 128.876953125 m 0
 348.854492188 113.158203125 347.5 102.430664062 347.5 96.6962890625 c 0
 347.5 91.4296875 348.69140625 86.6923828125 351.07421875 82.484375 c 0
 353.45703125 78.2763671875 356.977539062 76.171875 361.63671875 76.171875 c 0
 370.772460938 76.171875 383.87109375 84.619140625 400.93359375 101.512695312 c 0
 417.99609375 118.40625 428.009765625 129.815429688 430.97265625 135.7421875 c 1
 434.041992188 135.7421875 437.087890625 132.30078125 440.110351562 125.416992188 c 0
 443.1328125 118.534179688 444.64453125 113.186523438 444.64453125 109.375 c 1
 440.317382812 101.229492188 432.265625 90.7255859375 420.490234375 77.86328125 c 0
 408.715820312 65.0009765625 395.416992188 52.1650390625 380.596679688 39.35546875 c 0
 365.775390625 26.5458984375 349.858398438 15.5517578125 332.846679688 6.373046875 c 0
 315.833984375 -2.8046875 301.08984375 -7.3935546875 288.61328125 -7.3935546875 c 1024
EndSplineSet
Fore
SplineSet
367 438 m 3
 424 438 447 413 447 368 c 0
 447 304 352 249 279 225 c 1
 296 178 339 80 381 80 c 0
 404 80 439 124 447 135 c 1
 457 135 461 114 461 109 c 1
 451 83 372 -4 313 -4 c 0
 238 -4 188 134 167 203 c 1
 152 130 127 0 127 0 c 17
 117 -3 83 -6 72 -6 c 0
 61 -6 27 -3 15 0 c 1
 21 30 118 541 119 547 c 0
 123 566 128 588 128 599 c 0
 128 618 84 617 68 617 c 1
 65 621 68 642 72 646 c 1
 126 651 227 672 248 680 c 1
 253 677 254 667 254 661 c 0
 254 653 244 602 241 588 c 2
 193 333 l 17
 205 358 285 438 367 438 c 3
294 365 m 3
 236 365 175 265 175 242 c 1
 236 242 321 281 321 334 c 3
 321 344 316 365 294 365 c 3
EndSplineSet
EndChar
StartChar: l
Encoding: 108 108 76
Width: 276
Flags: W
HStem: -8 84<76 175> 617 28<72 129> 660 20G<240 253>
VStem: 30 120<33 187> 131 126<546 664>
LayerCount: 2
Fore
SplineSet
122 547 m 2xf0
 125 565 131 588 131 599 c 0
 131 618 87 617 71 617 c 1
 68 621 71 642 75 646 c 1
 129 651 230 672 251 680 c 1
 256 677 257 667 257 661 c 0xe8
 257 653 249 611 244 588 c 2
 154 129 l 2
 153 123 150 102 150 97 c 0
 150 88 154 76 164 76 c 0
 185 76 230 130 233 136 c 1
 240 136 247 115 247 109 c 1
 230 78 145 -8 92 -8 c 0
 60 -8 30 12 30 62 c 0
 30 76 37 112 39 120 c 1
 122 547 l 2xf0
EndSplineSet
EndChar
StartChar: m
Encoding: 109 109 77
Width: 737
Flags: W
HStem: -8 84<542 641> 419 20G<136 182 350 401 569 618>
VStem: 108 119<240 396> 325 119<242 389> 496 120<33 179> 542 119<216 389>
LayerCount: 2
Fore
SplineSet
505 120 m 0xf8
 515 164 530 236 530 236 c 2
 533 248 542 301 542 311 c 0
 542 321 537 331 526 331 c 0
 498 331 422 213 395 89 c 1
 375 0 l 1
 365 -3 331 -6 320 -6 c 0
 309 -6 275 -3 263 0 c 1
 313 236 l 2
 316 248 325 301 325 311 c 0
 325 321 321 331 310 331 c 0
 282 331 205 213 178 89 c 2
 158 0 l 1
 148 -3 115 -6 104 -6 c 0
 93 -6 58 -3 46 0 c 1
 104 302 l 2
 105 306 108 329 108 334 c 0
 108 343 104 354 94 354 c 0
 73 354 27 301 24 295 c 1
 17 295 11 315 11 321 c 1
 28 352 109 438 162 438 c 0
 201 438 228 414 228 369 c 0
 228 355 221 321 219 311 c 0
 217 299 209 268 209 268 c 1
 238 334 325 438 374 438 c 0
 429 438 444 410 444 354 c 0
 444 338 442 313 438 290 c 1
 474 355 547 438 591 438 c 0
 646 438 661 410 661 354 c 0xf4
 661 318 647 254 642 228 c 0
 637 204 625 156 620 129 c 0
 618 119 616 102 616 97 c 0
 616 88 620 76 630 76 c 0
 651 76 696 130 699 136 c 1
 706 136 713 115 713 109 c 1
 696 78 611 -8 558 -8 c 0
 526 -8 496 12 496 62 c 0
 496 76 503 112 505 120 c 0xf8
EndSplineSet
EndChar
StartChar: n
Encoding: 110 110 78
Width: 1072
Flags: HW
LayerCount: 2
Fore
SplineSet
448 636 m 0
 446.666666667 628.666666667 444.333333333 617.666666667 441 603 c 128
 437.666666667 588.333333333 434.666666667 575.333333333 432 564 c 128
 429.333333333 552.666666667 428 547.333333333 428 548 c 0
 448.666666667 594 479 644 519 698 c 128
 559 752 602.333333333 798.833333333 649 838.5 c 128
 695.666666667 878.166666667 734.666666667 898 766 898 c 0
 820 898 857.5 884 878.5 856 c 128
 899.5 828 910 784 910 724 c 0
 910 690.666666667 896.666666667 604.666666667 870 466 c 2
 832 264 l 1
 826.666666667 242.666666667 824 220.666666667 824 198 c 0
 824 187.333333333 826.333333333 177.666666667 831 169 c 128
 835.666666667 160.333333333 842.666666667 156 852 156 c 0
 870.666666667 156 897.5 173.333333333 932.5 208 c 128
 967.5 242.666666667 988 266 994 278 c 1
 1000 278 1006.16666667 271 1012.5 257 c 128
 1018.83333333 243 1022 232 1022 224 c 1
 1009.33333333 200.666666667 985.333333333 170.666666667 950 134 c 128
 914.666666667 97.3333333333 873.166666667 63.1666666667 825.5 31.5 c 128
 777.833333333 -0.166666666667 737.333333333 -16 704 -16 c 0
 668 -16 638 -4.33333333333 614 19 c 128
 590 42.3333333333 578 78 578 126 c 0
 578 158 584 198 596 246 c 1
 642 484 l 1
 645.333333333 497.333333333 650.166666667 523.666666667 656.5 563 c 128
 662.833333333 602.333333333 666 626.666666667 666 636 c 0
 666 647.333333333 663.166666667 657.166666667 657.5 665.5 c 128
 651.833333333 673.833333333 644 678 634 678 c 0
 614.666666667 678 587.333333333 654.833333333 552 608.5 c 128
 516.666666667 562.166666667 480.833333333 499.5 444.5 420.5 c 128
 408.166666667 341.5 381.333333333 262 364 182 c 2
 324 0 l 1
 297.333333333 -8 260 -12 212 -12 c 0
 165.333333333 -12 126 -8 94 0 c 1
 212 618 l 1
 218.666666667 644.666666667 222 666.666666667 222 684 c 0
 222 694 219.333333333 703.5 214 712.5 c 128
 208.666666667 721.5 201.333333333 726 192 726 c 0
 173.333333333 726 146.5 708.666666667 111.5 674 c 128
 76.5 639.333333333 56 616 50 604 c 1
 44 604 37.8333333333 611 31.5 625 c 128
 25.1666666667 639 22 650 22 658 c 1
 44 699.333333333 89.1666666667 749.666666667 157.5 809 c 128
 225.833333333 868.333333333 284 898 332 898 c 0
 372.666666667 898 405.166666667 885.666666667 429.5 861 c 128
 453.833333333 836.333333333 466 801.333333333 466 756 c 0
 466 736 460 696 448 636 c 0
EndSplineSet
EndChar
StartChar: o
Encoding: 111 111 79
Width: 910
Flags: HW
LayerCount: 2
Back
SplineSet
518 806 m 0
 478 806 440.5 790 405.5 758 c 0
 370.5 726 341.833333333 685.333333333 319.5 636 c 0
 297.166666667 586.666666667 279.666666667 533.833333333 267 477.5 c 0
 254.333333333 421.166666667 248 367.333333333 248 316 c 0
 248 235.333333333 258 171.5 278 124.5 c 0
 298 77.5 326 54 362 54 c 0
 401.333333333 54 438.166666667 70.1666666667 472.5 102.5 c 0
 506.833333333 134.833333333 534.666666667 175.833333333 556 225.5 c 0
 577.333333333 275.166666667 594 328.166666667 606 384.5 c 0
 618 440.833333333 624 494.666666667 624 546 c 0
 624 628 615.166666667 691.833333333 597.5 737.5 c 0
 579.833333333 783.166666667 553.333333333 806 518 806 c 0
546 870 m 0
 623.333333333 870 681.666666667 843.5 721 790.5 c 0
 760.333333333 737.5 780 666 780 576 c 0
 780 507.333333333 766.833333333 437.5 740.5 366.5 c 0
 714.166666667 295.5 680.166666667 232.5 638.5 177.5 c 0
 596.833333333 122.5 548 77.5 492 42.5 c 0
 436 7.5 380 -10 324 -10 c 0
 246.666666667 -10 188.666666667 15.3333333333 150 66 c 0
 111.333333333 116.666666667 92 186.666666667 92 276 c 0
 92 344.666666667 105 414.833333333 131 486.5 c 0
 157 558.166666667 190.833333333 622 232.5 678 c 0
 274.166666667 734 322.833333333 780 378.5 816 c 0
 434.166666667 852 490 870 546 870 c 0
525.280273438 898 m 3
 578.539761104 898 624.644718409 889.634851908 663.595145354 872.904555723 c 0
 702.545572299 856.174259538 733.085657688 832.623305723 755.215401521 802.251694277 c 0
 777.345145354 771.880082831 793.555059965 737.868536646 803.845145354 700.217055723 c 0
 814.135230743 662.565574799 819.280273438 620.493222891 819.280273438 574 c 0
 819.280273438 499.954467354 806.59161603 427.325672967 781.214301215 356.113616838 c 0
 755.8369864 284.90156071 721.839301215 222.284149485 679.22124566 168.261383162 c 0
 636.603190104 114.238616839 585.267541956 70.6893613975 525.214301215 37.6136168385 c 0
 465.161060474 4.5378722795 402.516384549 -12 337.280273438 -12 c 0
 284.020551669 -12 237.915407008 -3.6348533179 198.964839455 13.0954400463 c 0
 160.014271903 29.8257334105 129.474088202 53.3766900463 107.344288352 83.7483099537 c 0
 85.2144885029 114.119929861 69.0045399611 148.131473225 58.7144427266 185.782940046 c 0
 48.4243454922 223.434406867 43.279296875 265.506760185 43.279296875 312 c 0
 43.279296875 365.489657843 51.2832857668 420.272094791 67.2912635504 476.347310846 c 0
 83.299241334 532.4225269 106.251411988 585.369653003 136.147775512 635.188689154 c 0
 166.044139036 685.007725306 200.478812132 729.681932537 239.4517948 769.211310846 c 0
 278.424777468 808.740689155 322.816948122 840.087815257 372.628306762 863.252689154 c 0
 422.439665402 886.417563051 473.323654294 898 525.280273438 898 c 3
EndSplineSet
Fore
SplineSet
524 818 m 0
 488.666666667 818 455.166666667 798.833333333 423.5 760.5 c 128
 391.833333333 722.166666667 365.833333333 674 345.5 616 c 128
 325.166666667 558 309.166666667 496.666666667 297.5 432 c 128
 285.833333333 367.333333333 280 306.666666667 280 250 c 0
 280 128.666666667 302.666666667 68 348 68 c 0
 394.666666667 68 437.5 100.5 476.5 165.5 c 128
 515.5 230.5 544.5 305 563.5 389 c 128
 582.5 473 592 551.333333333 592 624 c 0
 592 640 591.833333333 652.666666667 591.5 662 c 128
 591.166666667 671.333333333 590.5 685 589.5 703 c 128
 588.5 721 586.5 735.5 583.5 746.5 c 128
 580.5 757.5 576.666666667 769.166666667 572 781.5 c 128
 567.333333333 793.833333333 560.833333333 803 552.5 809 c 128
 544.166666667 815 534.666666667 818 524 818 c 0
546 898 m 0
 590 898 629 893.166666667 663 883.5 c 128
 697 873.833333333 727.833333333 857.833333333 755.5 835.5 c 128
 783.166666667 813.166666667 804.5 781.666666667 819.5 741 c 128
 834.5 700.333333333 842 651.333333333 842 594 c 0
 842 500.666666667 815 406.5 761 311.5 c 128
 707 216.5 638.833333333 138.833333333 556.5 78.5 c 128
 474.166666667 18.1666666667 394 -12 316 -12 c 0
 230.666666667 -12 161.666666667 14 109 66 c 128
 56.3333333333 118 30 190.666666667 30 284 c 128
 30 377.333333333 56.1666666667 472.166666667 108.5 568.5 c 128
 160.833333333 664.833333333 227.333333333 743.833333333 308 805.5 c 128
 388.666666667 867.166666667 468 898 546 898 c 0
EndSplineSet
EndChar
StartChar: p
Encoding: 112 112 80
Width: 484
Flags: HW
LayerCount: 2
Fore
SplineSet
294 356 m 0
 268 356 241 342 214 315 c 1
 180 146 l 1
 173 108 172 80 176 63 c 128
 180 46 189 38 202 38 c 0
 218 38 234 47 251 66 c 128
 268 85 282 107 293 134 c 128
 304 161 314 189 321 218 c 128
 328 247 332 271 332 292 c 0
 332 335 319 356 294 356 c 0
362 438 m 0
 392 438 416 428 433 406 c 128
 450 384 458 355 458 320 c 0
 458 281 448 241 430 201 c 128
 412 161 389 126 361 96 c 128
 333 66 303 42 269 23 c 128
 235 4 204 -5 175 -5 c 0
 165 -5 155 -3 148 0 c 1
 123 -123 l 2
 121 -132 120 -141 120 -150 c 0
 120 -154 122 -158 124 -163 c 128
 126 -168 130 -172 134 -173 c 0
 142 -175 158 -176 180 -176 c 1
 182 -176 182 -181 181 -190 c 128
 180 -199 178 -205 176 -206 c 1
 171 -206 165 -206 158 -206 c 128
 151 -206 145 -205 142 -205 c 0
 62 -205 -2 -208 -51 -214 c 1
 -53 -213 -53 -208 -53 -199 c 128
 -53 -190 -52 -185 -49 -183 c 1
 -31 -183 -18 -177 -10 -167 c 1
 -4 -159 1 -145 6 -125 c 1
 79 227 l 1
 32 180 l 1
 27 186 25 194 25 206 c 0
 25 216 30 225 40 233 c 1
 90 280 l 1
 119 434 l 1
 131 437 151 438 179 438 c 0
 186 438 196 437 209 436 c 128
 222 435 231 433 235 431 c 1
 233 418 229 395 222 364 c 1
 238 382 259 399 287 415 c 128
 315 431 339 438 362 438 c 0
EndSplineSet
EndChar
StartChar: q
Encoding: 113 113 81
Width: 443
Flags: W
HStem: -215 21G<120 139> -205 21<125 270 319 352> -7 86<64 184> 385 54<223 332>
VStem: 11 123<84 216>
LayerCount: 2
Fore
SplineSet
349 -206 m 1x78
 335 -206 283 -205 270 -205 c 0x78
 213 -205 157 -211 121 -215 c 1xb8
 119 -213 119 -184 125 -184 c 0
 153 -181 181 -168 186 -143 c 2
 229 82 l 1
 208 48 150 -7 93 -7 c 0
 35 -7 11 54 11 111 c 0
 11 269 168 438 314 438 c 0
 348 438 384 433 409 417 c 1
 355 136 l 2
 354 132 305 -130 305 -130 c 2
 304 -137 303 -144 303 -150 c 0
 303 -166 310 -177 353 -177 c 0
 357 -177 354 -203 349 -206 c 1x78
280 333 m 0
 283 350 282 385 256 385 c 0
 191 385 134 265 134 153 c 0
 134 99 150 79 167 79 c 0
 201 79 253 182 270 269 c 0
 275 295 276 307 280 333 c 0
EndSplineSet
EndChar
StartChar: r
Encoding: 114 114 82
Width: 864
Flags: HW
LayerCount: 2
Fore
SplineSet
750 898 m 3
 776.666666667 898 796.833333333 896.166666667 810.5 892.5 c 128
 824.166666667 888.833333333 840.666666667 882 860 872 c 1
 881.333333333 845.333333333 892 816 892 784 c 0
 892 739.333333333 880.166666667 704.166666667 856.5 678.5 c 128
 832.833333333 652.833333333 806 640 776 640 c 0
 764 640 752.833333333 641.833333333 742.5 645.5 c 128
 732.166666667 649.166666667 720.333333333 655 707 663 c 128
 693.666666667 671 686 675.333333333 684 676 c 0
 681.333333333 677.333333333 677.333333333 679.5 672 682.5 c 128
 666.666666667 685.5 663 687.333333333 661 688 c 128
 659 688.666666667 655.333333333 689.5 650 690.5 c 128
 644.666666667 691.5 638 692 630 692 c 0
 610.666666667 692 583.666666667 667.666666667 549 619 c 128
 514.333333333 570.333333333 479.333333333 505.333333333 444 424 c 128
 408.666666667 342.666666667 382 262 364 182 c 2
 324 0 l 1
 297.333333333 -8 260 -12 212 -12 c 0
 165.333333333 -12 126 -8 94 0 c 1
 212 618 l 1
 218.666666667 644.666666667 222 666.666666667 222 684 c 0
 222 694 219.333333333 703.5 214 712.5 c 128
 208.666666667 721.5 201.333333333 726 192 726 c 0
 173.333333333 726 146.5 708.666666667 111.5 674 c 128
 76.5 639.333333333 56 616 50 604 c 1
 44 604 37.8333333333 611 31.5 625 c 128
 25.1666666667 639 22 650 22 658 c 1
 44 699.333333333 89.1666666667 749.666666667 157.5 809 c 128
 225.833333333 868.333333333 284 898 332 898 c 0
 372.666666667 898 405.166666667 885.666666667 429.5 861 c 128
 453.833333333 836.333333333 466 801.333333333 466 756 c 0
 466 736 460 696 448 636 c 0
 446.666666667 628.666666667 443.666666667 614.333333333 439 593 c 128
 434.333333333 571.666666667 430 552 426 534 c 128
 422 516 420 507.333333333 420 508 c 0
 436 568 463.333333333 628.5 502 689.5 c 128
 540.666666667 750.5 582.833333333 800.5 628.5 839.5 c 128
 674.166666667 878.5 714.666666667 898 750 898 c 3
EndSplineSet
EndChar
StartChar: s
Encoding: 115 115 83
Width: 357
Flags: HW
LayerCount: 2
Fore
SplineSet
218 438 m 3
 264 438 299 428 325 408 c 1
 332 400 336 387 336 369 c 0
 336 357 332 346 323 335 c 128
 314 324 302 319 287 319 c 0
 269 319 250 334 229 364 c 0
 224 372 220 379 216 383 c 128
 212 387 208 391 202 395 c 128
 196 399 189 400 182 400 c 0
 171 400 161 396 154 388 c 128
 147 380 143 368 143 355 c 0
 143 347 146 337 153 327 c 128
 160 317 168 309 176 301 c 128
 184 293 194 283 208 271 c 128
 222 259 231 251 237 245 c 0
 246 237 253 230 257 226 c 128
 261 222 266 215 273 205 c 128
 280 195 284 185 287 173 c 128
 290 161 292 148 292 134 c 0
 292 92 275 58 240 32 c 128
 205 6 162 -7 113 -7 c 0
 94 -7 75 -4 56 2 c 128
 37 8 22 15 11 23 c 1
 3 32 -1 46 -1 61 c 0
 -1 74 3 86 12 97 c 128
 21 108 32 113 46 113 c 0
 57 113 67 110 76 103 c 128
 85 96 94 84 104 69 c 0
 113 56 122 47 129 41 c 128
 136 35 146 32 157 32 c 0
 167 32 178 37 187 46 c 128
 196 55 201 65 201 74 c 0
 201 84 197 95 190 106 c 128
 183 117 175 128 166 136 c 128
 157 144 146 155 132 167 c 128
 118 179 108 189 101 197 c 0
 100 198 97 202 92 207 c 128
 87 212 84 215 83 217 c 128
 82 219 79 222 75 227 c 128
 71 232 68 236 67 239 c 128
 66 242 65 246 62 251 c 128
 59 256 57 261 56 266 c 128
 55 271 55 275 54 282 c 128
 53 289 53 296 53 303 c 0
 53 342 69 374 100 400 c 128
 131 426 170 438 218 438 c 3
EndSplineSet
EndChar
StartChar: t
Encoding: 116 116 84
Width: 320
Flags: HW
LayerCount: 2
Fore
SplineSet
115 414 m 1
 130 492 l 1
 135 499 153 511 184 529 c 128
 215 547 233 557 237 557 c 0
 243 557 249 555 254 551 c 1
 229 414 l 1
 314 414 l 2
 317 414 318 410 318 402 c 0
 318 390 316 379 309 369 c 1
 220 369 l 1
 173 129 l 1
 170 113 169 103 169 97 c 0
 169 92 170 87 172 83 c 128
 174 79 178 76 183 76 c 0
 192 76 205 85 222 102 c 128
 239 119 249 130 252 136 c 1
 255 136 258 132 261 125 c 128
 264 118 266 113 266 109 c 1
 260 98 247 83 230 65 c 128
 213 47 193 30 170 15 c 128
 147 0 126 -8 110 -8 c 0
 92 -8 78 -2 66 9 c 128
 54 20 49 39 49 62 c 0
 49 76 52 95 58 120 c 1
 106 369 l 1
 34 369 l 2
 33 369 32 370 32 372 c 0
 32 378 37 386 48 397 c 128
 59 408 69 414 79 414 c 2
 115 414 l 1
EndSplineSet
EndChar
StartChar: u
Encoding: 117 117 85
Width: 1066
Flags: W
LayerCount: 2
Fore
SplineSet
578 226 m 0,0,1
 589 286 589 286 602 332 c 1,2,3
 545 211 545 211 431 97.5 c 128,-1,4
 317 -16 317 -16 252 -16 c 0,5,6
 178 -16 178 -16 152 22.5 c 128,-1,7
 126 61 126 61 126 156 c 0,8,9
 126 210 126 210 164 408 c 0,10,11
 201 598 201 598 204 618 c 1,12,13
 214 658 214 658 214 684 c 0,14,15
 214 699 214 699 206 712.5 c 128,-1,16
 198 726 198 726 184 726 c 0,17,18
 156 726 156 726 103.5 674 c 128,-1,19
 51 622 51 622 42 604 c 1,20,21
 33 604 33 604 23.5 625 c 128,-1,22
 14 646 14 646 14 658 c 1,23,24
 47 720 47 720 149.5 809 c 128,-1,25
 252 898 252 898 324 898 c 0,26,27
 385 898 385 898 421.5 861 c 128,-1,28
 458 824 458 824 458 756 c 0,29,30
 458 726 458 726 440 636 c 2,31,-1
 394 398 l 1,32,33
 370 254 370 254 370 246 c 0,34,35
 370 229 370 229 378.5 216.5 c 128,-1,36
 387 204 387 204 402 204 c 0,37,38
 423 204 423 204 462 254.5 c 128,-1,39
 501 305 501 305 542 381 c 128,-1,40
 583 457 583 457 620.5 556.5 c 128,-1,41
 658 656 658 656 676 744 c 2,42,-1
 704 882 l 1,43,44
 744 894 744 894 816 894 c 0,45,46
 886 894 886 894 934 882 c 1,47,-1
 818 264 l 2,48,49
 810 224 810 224 810 198 c 0,50,51
 810 182 810 182 817 169 c 128,-1,52
 824 156 824 156 838 156 c 0,53,54
 866 156 866 156 918.5 208 c 128,-1,55
 971 260 971 260 980 278 c 1,56,57
 989 278 989 278 998.5 257 c 128,-1,58
 1008 236 1008 236 1008 224 c 1,59,60
 989 189 989 189 936 134 c 128,-1,61
 883 79 883 79 811.5 31.5 c 128,-1,62
 740 -16 740 -16 690 -16 c 0,63,64
 636 -16 636 -16 600 19 c 128,-1,65
 564 54 564 54 564 126 c 0,66,67
 564 149 564 149 578 226 c 0,0,1
EndSplineSet
EndChar
StartChar: v
Encoding: 118 118 86
Width: 930
VWidth: 0
Flags: W
LayerCount: 2
Fore
SplineSet
472 224 m 1,0,1
 586 306 586 306 648 422 c 1,2,3
 696 514 696 514 696 614 c 0,4,5
 696 652 696 652 672.5 695 c 128,-1,6
 649 738 649 738 612 768 c 1,7,8
 612 819 612 819 657.5 858.5 c 128,-1,9
 703 898 703 898 744 898 c 0,10,11
 809 898 809 898 854.5 853 c 128,-1,12
 900 808 900 808 900 714 c 0,13,14
 900 642 900 642 846 542 c 128,-1,15
 792 442 792 442 710 348.5 c 128,-1,16
 628 255 628 255 539 172.5 c 128,-1,17
 450 90 450 90 372.5 40 c 128,-1,18
 295 -10 295 -10 258 -10 c 1,19,20
 225 65 225 65 204.5 230.5 c 128,-1,21
 184 396 184 396 184 580 c 2,22,-1
 184 668 l 2,23,24
 184 712 184 712 162 712 c 0,25,26
 143 712 143 712 98.5 666 c 128,-1,27
 54 620 54 620 46 604 c 1,28,29
 37 604 37 604 27.5 625 c 128,-1,30
 18 646 18 646 18 658 c 1,31,32
 53 722 53 722 154.5 810 c 128,-1,33
 256 898 256 898 328 898 c 0,34,35
 387 898 387 898 407.5 868.5 c 128,-1,36
 428 839 428 839 428 786 c 2,37,-1
 428 722 l 1,38,-1
 428 682 l 2,39,40
 428 528 428 528 443.5 384.5 c 128,-1,41
 459 241 459 241 472 224 c 1,0,1
EndSplineSet
EndChar
StartChar: w
Encoding: 119 119 87
Width: 708
VWidth: 0
Flags: HW
LayerCount: 2
Fore
SplineSet
447 396 m 1
 447 350 452 294 460 225 c 1
 469 155 476 116 481 109 c 1
 495 117 511 130 528 146 c 128
 545 162 559 180 571 201 c 0
 587 228 595 260 595 295 c 0
 595 309 590 323 583 338 c 128
 576 353 566 365 554 375 c 1
 554 392 561 406 576 419 c 128
 591 432 605 438 618 438 c 0
 639 438 657 432 672 417 c 128
 687 402 694 380 694 349 c 0
 694 325 686 297 669 265 c 128
 652 233 630 201 604 171 c 128
 578 141 551 112 523 85 c 128
 495 58 467 37 441 21 c 128
 415 5 395 -4 381 -4 c 1
 370 11 360 46 350 100 c 0
 344 134 340 163 339 188 c 1
 323 155 293 119 248 78 c 128
 203 37 162 9 127 -5 c 1
 116 20 107 60 100 114 c 128
 93 168 89 224 89 283 c 2
 89 326 l 2
 89 340 85 348 78 348 c 0
 72 348 61 340 47 325 c 128
 33 310 24 300 21 295 c 1
 18 295 15 298 12 305 c 128
 9 312 8 317 8 321 c 1
 19 342 41 367 74 396 c 128
 107 425 136 438 159 438 c 0
 178 438 191 434 198 424 c 128
 205 414 208 401 208 384 c 2
 208 353 l 1
 208 333 l 2
 208 283 210 236 215 192 c 128
 220 148 224 124 229 118 c 1
 241 126 254 139 268 157 c 128
 282 175 294 194 303 213 c 0
 320 247 331 281 337 315 c 1
 341 330 356 348 385 367 c 128
 414 386 435 396 447 396 c 1
EndSplineSet
EndChar
StartChar: x
Encoding: 120 120 88
Width: 499
VWidth: 0
Flags: W
HStem: -8 84<267 368> -7 74<53 124> 348 91<111 213> 364 74<352 419>
LayerCount: 2
Fore
SplineSet
199 438 m 0x60
 226 438 240 412 248 384 c 2
 274 290 l 1
 313 366 l 1
 337 411 368 438 407 438 c 0
 431 438 465 430 478 418 c 1
 483 409 489 387 489 371 c 0
 489 345 471 312 436 312 c 0
 413 312 399 329 392 340 c 0
 386 350 377 364 370 364 c 0
 359 364 351 352 339 332 c 2
 288 245 l 1
 327 115 l 2
 333 96 340 76 357 76 c 0
 378 76 424 130 427 136 c 1
 434 136 440 115 440 109 c 1
 423 78 337 -8 284 -8 c 0x90
 250 -8 236 24 224 57 c 0
 224 59 214 94 200 140 c 1
 162 65 l 1
 138 20 107 -7 68 -7 c 0
 37 -7 19 0 3 11 c 1
 -4 17 -12 37 -12 58 c 0
 -12 84 5 120 40 120 c 0
 63 120 77 103 84 92 c 0
 90 83 98 67 105 67 c 0
 115 67 125 74 141 102 c 2
 187 185 l 1
 150 308 l 2
 147 317 138 348 118 348 c 0
 103 348 65 301 62 295 c 1
 55 295 48 315 48 321 c 1
 66 353 146 438 199 438 c 0x60
EndSplineSet
EndChar
StartChar: y
Encoding: 121 121 89
Width: 1002
Flags: HW
LayerCount: 2
Fore
SplineSet
258 898 m 0
 290.666666667 898 320.5 888.5 347.5 869.5 c 128
 374.5 850.5 397 824.833333333 415 792.5 c 128
 433 760.166666667 449 723 463 681 c 128
 477 639 487.5 594.666666667 494.5 548 c 128
 501.5 501.333333333 507.833333333 454.333333333 513.5 407 c 128
 519.166666667 359.666666667 522.333333333 314.666666667 523 272 c 128
 523.666666667 229.333333333 524.666666667 190.666666667 526 156 c 128
 527.333333333 121.333333333 527.36149334 93.6025056999 526.08448002 72.8075170996 c 0
 526.028160007 62.9358390332 526 56 526 52 c 1
 554 86 583.166666667 130.5 613.5 185.5 c 128
 643.833333333 240.5 672.166666667 307.833333333 698.5 387.5 c 128
 724.833333333 467.166666667 738 540.666666667 738 608 c 0
 738 642.666666667 729.166666667 673.833333333 711.5 701.5 c 128
 693.833333333 729.166666667 674.666666667 751.333333333 654 768 c 1
 654 800.666666667 668.666666667 830.5 698 857.5 c 128
 727.333333333 884.5 757.333333333 898 788 898 c 0
 830 898 866.166666667 883 896.5 853 c 128
 926.833333333 823 942 776 942 712 c 0
 942 637.333333333 924.333333333 555 889 465 c 128
 853.666666667 375 808 288.666666667 752 206 c 128
 696 123.333333333 632.333333333 42.3333333333 561 -37 c 128
 489.666666667 -116.333333333 418.666666667 -185 348 -243 c 128
 277.333333333 -301 209 -347.666666667 143 -383 c 128
 77 -418.333333333 22 -436 -22 -436 c 0
 -60 -436 -91.1666666667 -425.666666667 -115.5 -405 c 128
 -139.833333333 -384.333333333 -152 -353.333333333 -152 -312 c 0
 -152 -294.666666667 -145.666666667 -275.666666667 -133 -255 c 128
 -120.333333333 -234.333333333 -106.666666667 -220 -92 -212 c 1
 -68.6666666667 -226 -38.1666666667 -240.166666667 -0.5 -254.5 c 128
 37.1666666667 -268.833333333 72.6666666667 -276 106 -276 c 0
 134.666666667 -276 160 -272.833333333 182 -266.5 c 128
 204 -260.166666667 220.666666667 -252 232 -242 c 128
 243.333333333 -232 251.333333333 -223.833333333 256 -217.5 c 128
 260.666666667 -211.166666667 264 -205.333333333 266 -200 c 0
 278 -162.666666667 284 -62 284 102 c 0
 284 186 279.333333333 272.666666667 270 362 c 128
 260.666666667 451.333333333 244.666666667 532 222 604 c 128
 199.333333333 676 172.666666667 712 142 712 c 0
 130.666666667 712 117.833333333 706.5 103.5 695.5 c 128
 89.1666666667 684.5 77.1666666667 672.833333333 67.5 660.5 c 128
 57.8333333333 648.166666667 48.5 635.666666667 39.5 623 c 2
 26 604 l 1
 18.6666666667 604.666666667 11.8333333333 612.833333333 5.5 628.5 c 128
 -0.833333333333 644.166666667 -3.33333333333 654 -2 658 c 1
 5.33333333333 670.666666667 17.8333333333 688.833333333 35.5 712.5 c 128
 53.1666666667 736.166666667 74.6666666667 762.5 100 791.5 c 128
 125.333333333 820.5 152.5 845.5 181.5 866.5 c 128
 210.5 887.5 236 898 258 898 c 0
EndSplineSet
EndChar
StartChar: z
Encoding: 122 122 90
Width: 882
Flags: HW
LayerCount: 2
Back
SplineSet
240 704 m 0
 260.666666667 704 284.166666667 697.666666667 310.5 685 c 0
 336.833333333 672.333333333 366.5 659.666666667 399.5 647 c 0
 432.5 634.333333333 468 628 506 628 c 1024
EndSplineSet
Fore
SplineSet
340 900 m 0
 400.666666667 900 464 885.333333333 530 856 c 0
 587.333333333 830.666666667 642.666666667 818 696 818 c 0
 732.666666667 818 779.333333333 844.666666667 836 898 c 1
 840 898 843.833333333 897.666666667 847.5 897 c 128
 851.166666667 896.333333333 854.333333333 895 857 893 c 128
 859.666666667 891 862 889.166666667 864 887.5 c 128
 866 885.833333333 867.666666667 883.5 869 880.5 c 128
 870.333333333 877.5 871.5 875 872.5 873 c 128
 873.5 871 874.333333333 868.166666667 875 864.5 c 128
 875.666666667 860.833333333 876.166666667 858.166666667 876.5 856.5 c 128
 876.833333333 854.833333333 877.166666667 852.166666667 877.5 848.5 c 128
 877.833333333 844.833333333 878 842.666666667 878 842 c 0
 878 834 827.5 781.333333333 726.5 684 c 128
 625.5 586.666666667 523.333333333 490.166666667 420 394.5 c 128
 316.666666667 298.833333333 264.666666667 250.666666667 264 250 c 1
 290.666666667 260.666666667 318.666666667 266 348 266 c 0
 408 266 458 256 498 236 c 0
 500 234.666666667 507.166666667 231.166666667 519.5 225.5 c 128
 531.833333333 219.833333333 541.166666667 215.5 547.5 212.5 c 128
 553.833333333 209.5 562.333333333 206 573 202 c 128
 583.666666667 198 593.5 195 602.5 193 c 128
 611.5 191 620 190 628 190 c 0
 642 190 655.833333333 194.666666667 669.5 204 c 128
 683.166666667 213.333333333 693.833333333 222.833333333 701.5 232.5 c 128
 709.166666667 242.166666667 717.666666667 254 727 268 c 128
 736.333333333 282 741.333333333 289.333333333 742 290 c 1
 751.333333333 290 759.333333333 284.5 766 273.5 c 128
 772.666666667 262.5 776.666666667 252 778 242 c 1
 767.333333333 220.666666667 752.5 196.666666667 733.5 170 c 128
 714.5 143.333333333 692.666666667 116.5 668 89.5 c 128
 643.333333333 62.5 616.333333333 39.8333333333 587 21.5 c 128
 557.666666667 3.16666666667 530.666666667 -6 506 -6 c 0
 445.333333333 -6 382 8.66666666667 316 38 c 0
 258.666666667 63.3333333333 203.333333333 76 150 76 c 0
 113.333333333 76 66.6666666667 49.3333333333 10 -4 c 1
 6 -4 2.16666666667 -3.66666666667 -1.5 -3 c 128
 -5.16666666667 -2.33333333333 -8.33333333333 -1 -11 1 c 128
 -13.6666666667 3 -16 4.83333333333 -18 6.5 c 128
 -20 8.16666666667 -21.6666666667 10.5 -23 13.5 c 128
 -24.3333333333 16.5 -25.5 19 -26.5 21 c 128
 -27.5 23 -28.3333333333 25.8333333333 -29 29.5 c 128
 -29.6666666667 33.1666666667 -30.1666666667 35.8333333333 -30.5 37.5 c 128
 -30.8333333333 39.1666666667 -31.1666666667 41.8333333333 -31.5 45.5 c 128
 -31.8333333333 49.1666666667 -32 51.3333333333 -32 52 c 0
 -32 61.3333333333 18.8333333333 114.666666667 120.5 212 c 128
 222.166666667 309.333333333 324.333333333 405.333333333 427 500 c 128
 529.666666667 594.666666667 581.333333333 642.666666667 582 644 c 1
 555.333333333 633.333333333 527.333333333 628 498 628 c 0
 438 628 388 638 348 658 c 0
 346 659.333333333 338.833333333 662.833333333 326.5 668.5 c 128
 314.166666667 674.166666667 304.833333333 678.5 298.5 681.5 c 128
 292.166666667 684.5 283.666666667 688 273 692 c 128
 262.333333333 696 252.5 699 243.5 701 c 128
 234.5 703 226 704 218 704 c 0
 204 704 190.166666667 699.333333333 176.5 690 c 128
 162.833333333 680.666666667 152.166666667 671.166666667 144.5 661.5 c 128
 136.833333333 651.833333333 128.333333333 640 119 626 c 128
 109.666666667 612 104.666666667 604.666666667 104 604 c 1
 94.6666666667 604 86.6666666667 609.5 80 620.5 c 128
 73.3333333333 631.5 69.3333333333 642 68 652 c 1
 78.6666666667 673.333333333 93.5 697.333333333 112.5 724 c 128
 131.5 750.666666667 153.333333333 777.5 178 804.5 c 128
 202.666666667 831.5 229.666666667 854.166666667 259 872.5 c 128
 288.333333333 890.833333333 315.333333333 900 340 900 c 0
EndSplineSet
EndChar
StartChar: braceleft
Encoding: 123 123 91
Width: 496
Flags: W
LayerCount: 2
Fore
SplineSet
256 808 m 0,0,1
 260 828 260 828 260 849.5 c 128,-1,2
 260 871 260 871 258.5 885 c 128,-1,3
 257 899 257 899 253 924.5 c 128,-1,4
 249 950 249 950 248 962 c 1,5,6
 234 1040 234 1040 246 1108 c 0,7,8
 259 1179 259 1179 302.5 1247 c 128,-1,9
 346 1315 346 1315 399 1362 c 128,-1,10
 452 1409 452 1409 503 1440.5 c 128,-1,11
 554 1472 554 1472 590 1480 c 1,12,13
 599 1480 599 1480 604.5 1464 c 128,-1,14
 610 1448 610 1448 604 1436 c 1,15,16
 548 1409 548 1409 486.5 1342.5 c 128,-1,17
 425 1276 425 1276 410 1198 c 0,18,19
 403 1162 403 1162 402.5 1129 c 128,-1,20
 402 1096 402 1096 404.5 1081 c 128,-1,21
 407 1066 407 1066 414 1032 c 0,22,23
 432 940 432 940 416 864 c 0,24,25
 402 794 402 794 355.5 731 c 128,-1,26
 309 668 309 668 262 635 c 128,-1,27
 215 602 215 602 182 596 c 1,28,29
 204 592 204 592 230 571.5 c 128,-1,30
 256 551 256 551 279 515.5 c 128,-1,31
 302 480 302 480 312 432.5 c 128,-1,32
 322 385 322 385 312 328 c 1,33,34
 295 246 295 246 246 160 c 0,35,36
 244 157 244 157 237.5 146 c 128,-1,37
 231 135 231 135 229 131.5 c 128,-1,38
 227 128 227 128 221.5 118 c 128,-1,39
 216 108 216 108 214 103.5 c 128,-1,40
 212 99 212 99 207 88.5 c 128,-1,41
 202 78 202 78 199.5 72 c 128,-1,42
 197 66 197 66 193 55.5 c 128,-1,43
 189 45 189 45 186.5 36.5 c 128,-1,44
 184 28 184 28 181 16.5 c 128,-1,45
 178 5 178 5 176 -6 c 0,46,47
 161 -84 161 -84 196.5 -150.5 c 128,-1,48
 232 -217 232 -217 276 -244 c 1,49,50
 277 -256 277 -256 266 -272 c 128,-1,51
 255 -288 255 -288 246 -288 c 1,52,53
 213 -280 213 -280 174.5 -248.5 c 128,-1,54
 136 -217 136 -217 101 -170 c 128,-1,55
 66 -123 66 -123 49.5 -55 c 128,-1,56
 33 13 33 13 46 84 c 0,57,58
 57 143 57 143 112 244 c 0,59,60
 114 247 114 247 121.5 260.5 c 128,-1,61
 129 274 129 274 131.5 278 c 128,-1,62
 134 282 134 282 140.5 294 c 128,-1,63
 147 306 147 306 149.5 312 c 128,-1,64
 152 318 152 318 156.5 328.5 c 128,-1,65
 161 339 161 339 163.5 347 c 128,-1,66
 166 355 166 355 169 364.5 c 128,-1,67
 172 374 172 374 174 384 c 0,68,69
 188 457 188 457 153 505 c 128,-1,70
 118 553 118 553 58 574 c 1,71,72
 53 584 53 584 56 596 c 0,73,74
 60 612 60 612 66 618 c 1,75,76
 135 639 135 639 188.5 687 c 128,-1,77
 242 735 242 735 256 808 c 0,0,1
EndSplineSet
EndChar
StartChar: bar
Encoding: 124 124 92
Width: 195
Flags: HW
LayerCount: 2
Fore
SplineSet
168 739 m 1
 175 744 185 748 198 748 c 0
 206 748 215 745 214 738 c 2
 48 -113 l 17
 37 -121 21 -122 14 -122 c 0
 5 -122 1 -116 2 -112 c 2
 2 -112 100 408 168 739 c 1
EndSplineSet
EndChar
StartChar: braceright
Encoding: 125 125 93
Width: 242
Flags: HW
LayerCount: 2
Fore
SplineSet
134 723 m 1
 145 720 156 713 169 703 c 128
 182 693 194 680 205 665 c 128
 216 650 225 631 230 609 c 128
 235 587 235 564 231 541 c 1
 226 519 217 495 201 467 c 0
 200 466 198 463 195 456 c 128
 192 449 189 445 188 443 c 128
 187 441 186 438 183 432 c 128
 180 426 178 422 177 419 c 128
 176 416 174 413 173 408 c 128
 172 403 171 399 170 395 c 0
 165 371 169 351 180 335 c 128
 191 319 207 309 227 302 c 1
 228 300 228 296 227 291 c 0
 225 285 224 281 223 280 c 1
 201 273 180 263 163 247 c 128
 146 231 135 212 130 188 c 0
 127 171 128 148 133 118 c 1
 138 88 138 62 134 41 c 0
 130 18 120 -5 106 -27 c 128
 92 -49 76 -68 59 -83 c 128
 42 -98 25 -111 8 -121 c 128
 -9 -131 -22 -138 -34 -141 c 1
 -37 -141 -39 -138 -40 -133 c 128
 -41 -128 -41 -123 -39 -119 c 1
 -21 -110 -3 -95 17 -73 c 128
 37 -51 49 -28 54 -3 c 0
 59 23 58 49 52 77 c 1
 46 107 46 135 51 160 c 0
 55 178 61 195 71 211 c 128
 81 227 91 241 103 252 c 128
 115 263 126 272 137 279 c 128
 148 286 158 290 166 291 c 1
 149 294 132 308 116 334 c 128
 100 360 95 389 102 422 c 0
 108 452 120 482 137 510 c 1
 153 538 163 563 168 585 c 0
 173 610 169 634 158 656 c 128
 147 678 134 692 120 701 c 1
 120 705 122 710 125 715 c 128
 128 720 131 723 134 723 c 1
EndSplineSet
EndChar
StartChar: asciitilde
Encoding: 126 126 94
Width: 1076
Flags: W
LayerCount: 2
Fore
SplineSet
386 718 m 0,0,1
 444 718 444 718 500 701.5 c 128,-1,2
 556 685 556 685 595 665 c 128,-1,3
 634 645 634 645 690 628.5 c 128,-1,4
 746 612 746 612 804 612 c 0,5,6
 838 612 838 612 873.5 627 c 128,-1,7
 909 642 909 642 927 654 c 128,-1,8
 945 666 945 666 990 700 c 1,9,10
 998 696 998 696 998 670 c 0,11,12
 998 626 998 626 954.5 583.5 c 128,-1,13
 911 541 911 541 848.5 515.5 c 128,-1,14
 786 490 786 490 728 490 c 0,15,16
 669 490 669 490 612.5 506.5 c 128,-1,17
 556 523 556 523 517 543 c 128,-1,18
 478 563 478 563 421.5 579.5 c 128,-1,19
 365 596 365 596 306 596 c 0,20,21
 272 596 272 596 236.5 581 c 128,-1,22
 201 566 201 566 183 554 c 128,-1,23
 165 542 165 542 120 508 c 1,24,25
 112 512 112 512 112 538 c 0,26,27
 112 584 112 584 159 627 c 128,-1,28
 206 670 206 670 269.5 694 c 128,-1,29
 333 718 333 718 386 718 c 0,0,1
EndSplineSet
EndChar
StartChar: exclamdown
Encoding: 161 161 96
Width: 230
Flags: W
HStem: 286 146<100 171>
VStem: -27 118<-209 -94> 65 137<317 398>
LayerCount: 2
Fore
SplineSet
21 -232 m 0xc0
 -7 -232 -27 -214 -27 -183 c 0
 -27 -146 74 180 86 215 c 0
 90 227 97 236 102 236 c 0
 115 236 125 226 125 208 c 0
 125 177 96 -138 91 -166 c 0
 83 -208 49 -232 21 -232 c 0xc0
65 343 m 0xa0
 65 392 111 433 150 433 c 0
 181 433 202 407 202 374 c 0
 202 326 160 286 118 286 c 0
 88 286 65 310 65 343 c 0xa0
EndSplineSet
EndChar
StartChar: cent
Encoding: 162 162 97
Width: 812
Flags: HW
LayerCount: 2
Back
SplineSet
394 -184 m 1
 932 1284 l 1
280 -184 m 1
 818 1284 l 1
EndSplineSet
Fore
SplineSet
562 948 m 17
 610 948 633.333333333 942.666666667 632 932 c 1
 280 -90 l 1
 275.333333333 -90 269.333333333 -89.6666666667 262 -89 c 0
 254.666666667 -88.3333333333 246.833333333 -87.3333333333 238.5 -86 c 0
 230.166666667 -84.6666666667 223.166666667 -82.8333333333 217.5 -80.5 c 0
 211.833333333 -78.1666666667 209.333333333 -75.3333333333 210 -72 c 2
 562 948 l 17
EndSplineSet
Refer: 67 99 N 1 0 0 1 20 0 2
EndChar
StartChar: sterling
Encoding: 163 163 98
Width: 950
UnlinkRmOvrlpSave: 1
Flags: HW
LayerCount: 2
Fore
SplineSet
169 698 m 2
 757 698 l 1
 766.333333333 688.666666667 765.166666667 674 753.5 654 c 128
 741.833333333 634 731 620.666666667 721 614 c 1
 115 614 l 1
 111 620 117 635.5 133 660.5 c 128
 149 685.5 161 698 169 698 c 2
455 540 m 0
 441.666666667 473.333333333 418 415 384 365 c 128
 350 315 314.333333333 274.666666667 277 244 c 1
 315 264 357.666666667 274 405 274 c 0
 426.333333333 274 466.5 259.666666667 525.5 231 c 128
 584.5 202.333333333 631 188 665 188 c 0
 681.666666667 188 697 191 711 197 c 128
 725 203 738 212.333333333 750 225 c 128
 762 237.666666667 770.333333333 247.166666667 775 253.5 c 128
 779.666666667 259.833333333 786.333333333 269.333333333 795 282 c 1
 799 284 803.833333333 283.5 809.5 280.5 c 128
 815.166666667 277.5 819.666666667 273.333333333 823 268 c 0
 827.666666667 261.333333333 828.333333333 248.666666667 825 230 c 1
 815 210 801.333333333 187.833333333 784 163.5 c 128
 766.666666667 139.166666667 745 112.666666667 719 84 c 128
 693 55.3333333333 662.666666667 31.5 628 12.5 c 128
 593.333333333 -6.5 559 -16 525 -16 c 0
 497 -16 468.166666667 -9.83333333333 438.5 2.5 c 128
 408.833333333 14.8333333333 382.833333333 28.3333333333 360.5 43 c 128
 338.166666667 57.6666666667 311.333333333 71.1666666667 280 83.5 c 128
 248.666666667 95.8333333333 217.666666667 102 187 102 c 0
 166.333333333 102 111 64 21 -12 c 1
 14.3333333333 -12 8.83333333333 -5.33333333333 4.5 8 c 128
 0.166666666667 21.3333333333 -1 32.6666666667 1 42 c 1
 12.3333333333 58 37.8333333333 85.6666666667 77.5 125 c 128
 117.166666667 164.333333333 141.666666667 190.666666667 151 204 c 1
 189.666666667 272 219.666666667 358.666666667 241 464 c 0
 248.333333333 501.333333333 250.333333333 559.833333333 247 639.5 c 128
 243.666666667 719.166666667 243.666666667 766.666666667 247 782 c 0
 264.333333333 866 292.333333333 941.166666667 331 1007.5 c 128
 369.666666667 1073.83333333 413.166666667 1126.33333333 461.5 1165 c 128
 509.833333333 1203.66666667 558.833333333 1232.83333333 608.5 1252.5 c 128
 658.166666667 1272.16666667 705.666666667 1282 751 1282 c 0
 763.666666667 1282 774.833333333 1281.33333333 784.5 1280 c 128
 794.166666667 1278.66666667 803.666666667 1275.5 813 1270.5 c 128
 822.333333333 1265.5 828.5 1262.16666667 831.5 1260.5 c 128
 834.5 1258.83333333 841 1253.83333333 851 1245.5 c 128
 861 1237.16666667 866.333333333 1232.66666667 867 1232 c 0
 878.333333333 1208 874.166666667 1175 854.5 1133 c 128
 834.833333333 1091 807 1070 771 1070 c 0
 755 1070 741 1073.5 729 1080.5 c 128
 717 1087.5 707.333333333 1095.83333333 700 1105.5 c 128
 692.666666667 1115.16666667 685.5 1124.83333333 678.5 1134.5 c 128
 671.5 1144.16666667 662.5 1152.5 651.5 1159.5 c 128
 640.5 1166.5 627.666666667 1170 613 1170 c 0
 578.333333333 1170 548.666666667 1146.66666667 524 1100 c 128
 499.333333333 1053.33333333 480.333333333 992.666666667 467 918 c 1
 459 868.666666667 456.833333333 801.666666667 460.5 717 c 128
 464.166666667 632.333333333 462.333333333 573.333333333 455 540 c 0
EndSplineSet
EndChar
StartChar: currency
Encoding: 164 164 99
Width: 526
Flags: HW
LayerCount: 2
Fore
SplineSet
249 151 m 0
 271 151 291 165 309 191 c 128
 327 217 341 249 348 287 c 0
 357 332 355 370 344 402 c 128
 333 434 315 450 292 450 c 0
 270 450 249 436 230 409 c 128
 211 382 197 350 190 312 c 0
 181 268 183 229 195 198 c 128
 207 167 225 151 249 151 c 0
400 444 m 1
 464 498 l 2
 467 500 470 500 474 496 c 0
 478 492 482 487 486 479 c 128
 490 471 492 463 493 455 c 1
 428 400 l 1
 439 369 442 336 435 300 c 0
 427 261 410 225 384 194 c 1
 422 138 l 1
 424 136 423 132 419 127 c 1
 415 121 409 116 400 110 c 128
 391 104 383 100 375 98 c 1
 338 151 l 1
 305 128 270 117 234 117 c 0
 195 117 164 130 139 156 c 1
 81 107 l 2
 79 105 76 105 72 108 c 0
 68 111 64 118 60 126 c 128
 56 134 54 142 53 150 c 1
 111 200 l 1
 99 230 97 264 104 300 c 1
 113 344 131 381 160 413 c 1
 123 468 l 2
 122 470 122 473 125 477 c 0
 129 483 136 488 145 495 c 128
 154 502 163 506 171 508 c 1
 208 454 l 1
 239 474 272 484 307 484 c 0
 345 484 375 471 400 444 c 1
EndSplineSet
EndChar
StartChar: yen
Encoding: 165 165 100
Width: 616
Flags: HW
LayerCount: 2
Fore
SplineSet
136 214 m 2
 133 214 131 216 131 221 c 0
 131 234 136 246 146 257 c 1
 448 257 l 2
 450 257 451 255 451 250 c 0
 451 234 446 222 438 214 c 1
 136 214 l 2
119 127 m 2
 116 127 114 129 114 134 c 0
 114 147 119 159 129 170 c 1
 432 170 l 2
 434 170 435 168 435 163 c 0
 435 147 430 135 422 127 c 1
 119 127 l 2
207 138 m 2
 232 269 l 2
 233 274 232 280 230 288 c 0
 226 303 219 329 208 366 c 128
 197 403 186 436 177 465 c 2
 163 509 l 2
 160 517 158 526 155 536 c 128
 152 546 149 554 146 561 c 0
 142 571 135 578 124 583 c 128
 113 588 102 591 93 592 c 1
 92 595 92 601 93 610 c 128
 94 619 96 624 99 627 c 1
 138 622 180 620 225 620 c 0
 267 620 309 622 350 627 c 1
 352 624 352 619 350 610 c 128
 348 601 346 595 343 592 c 0
 343 592 341 592 338 592 c 128
 335 592 333 591 331 591 c 128
 329 591 326 590 323 590 c 128
 320 590 317 589 315 588 c 128
 313 587 310 587 307 586 c 128
 304 585 301 584 299 583 c 128
 297 582 294 581 292 579 c 128
 290 577 288 575 287 573 c 128
 286 571 285 569 284 566 c 0
 284 565 284 563 284 562 c 128
 284 561 285 559 286 557 c 128
 287 555 288 554 288 552 c 2
 352 342 l 1
 354 340 370 361 403 406 c 128
 436 451 470 499 504 548 c 0
 508 555 511 561 512 569 c 1
 514 580 493 588 451 592 c 1
 450 595 450 601 452 610 c 128
 454 619 455 624 458 627 c 1
 506 622 539 620 556 620 c 0
 571 620 589 621 611 623 c 128
 633 625 648 627 656 627 c 1
 658 624 658 619 656 610 c 128
 654 601 652 595 649 592 c 0
 649 592 647 591 644 591 c 128
 641 591 638 591 636 591 c 128
 634 591 630 590 626 590 c 128
 622 590 619 589 616 588 c 128
 613 587 610 586 606 585 c 128
 602 584 598 582 595 581 c 128
 592 580 589 577 586 575 c 128
 583 573 581 571 579 568 c 0
 562 548 527 501 471 428 c 128
 415 355 379 306 363 282 c 1
 358 275 355 270 354 265 c 2
 330 138 l 1
 320 93 317 63 320 48 c 1
 321 40 339 34 373 31 c 1
 374 28 375 22 373 13 c 128
 371 4 369 -1 366 -4 c 1
 327 1 286 3 241 3 c 0
 199 3 157 1 116 -4 c 1
 114 -1 114 4 116 13 c 128
 118 22 120 28 123 31 c 1
 158 34 179 40 183 48 c 0
 185 52 186 56 188 60 c 128
 190 64 192 69 194 76 c 128
 196 83 197 89 198 93 c 128
 199 97 200 104 202 115 c 128
 204 126 206 134 207 138 c 2
EndSplineSet
EndChar
StartChar: brokenbar
Encoding: 166 166 101
Width: 199
Flags: HW
LayerCount: 2
Fore
SplineSet
169 739 m 1
 176 744 186 748 199 748 c 0
 207 748 216 745 215 738 c 2
 144 375 l 17
 133 367 117 366 110 366 c 0
 101 366 97 372 98 376 c 2
 98 376 106 407 169 739 c 1
74 251 m 1
 81 256 92 260 105 260 c 0
 113 260 121 257 120 250 c 2
 49 -113 l 17
 38 -121 22 -122 15 -122 c 0
 6 -122 2 -116 3 -112 c 2
 3 -112 11 -81 74 251 c 1
EndSplineSet
EndChar
StartChar: section
Encoding: 167 167 102
Width: 427
UnlinkRmOvrlpSave: 1
Flags: HW
LayerCount: 2
Fore
SplineSet
367 638 m 0
 318 638 273 621 231 587 c 128
 189 553 165 516 157 475 c 1
 156 467 156 459 155 453 c 128
 154 447 155 440 157 432 c 128
 159 424 162 418 164 413 c 128
 166 408 169 401 173 394 c 128
 177 387 181 381 184 376 c 128
 187 371 192 366 197 359 c 128
 202 352 206 347 210 343 c 128
 214 339 219 333 224 327 c 128
 229 321 233 316 236 312 c 0
 243 303 249 297 253 291 c 128
 257 285 263 278 269 269 c 128
 275 260 280 251 284 244 c 128
 288 237 291 229 295 219 c 128
 299 209 302 199 303 190 c 128
 304 181 305 171 305 160 c 128
 305 149 304 138 302 127 c 0
 298 107 293 91 285 79 c 128
 277 67 266 52 250 36 c 1
 234 22 223 9 216 -3 c 0
 214 -6 213 -9 212 -12 c 128
 211 -15 210 -19 210 -23 c 128
 210 -27 209 -30 208 -33 c 1
 223 -23 243 -8 266 15 c 128
 289 38 313 65 336 97 c 128
 359 129 372 157 377 180 c 0
 380 193 381 205 381 217 c 128
 381 229 381 239 380 247 c 128
 379 255 376 266 371 277 c 128
 366 288 363 296 360 302 c 128
 357 308 351 315 343 327 c 128
 335 339 329 346 326 350 c 128
 323 354 316 362 306 375 c 0
 294 390 284 402 276 413 c 128
 268 424 259 437 248 453 c 128
 237 469 230 485 225 499 c 128
 220 513 219 526 221 536 c 0
 224 553 234 566 250 575 c 128
 266 584 283 589 300 589 c 0
 315 589 326 584 333 576 c 0
 342 566 350 560 356 558 c 0
 359 557 363 557 367 557 c 0
 391 557 405 570 410 596 c 1
 412 609 412 618 410 625 c 1
 393 633 379 638 367 638 c 0
183 511 m 1
 199 526 209 539 216 551 c 0
 218 554 219 557 220 560 c 128
 221 563 222 567 222 571 c 128
 222 575 223 578 224 581 c 1
 209 571 190 555 167 532 c 128
 144 509 120 483 97 451 c 128
 74 419 60 391 55 368 c 0
 52 355 52 343 52 331 c 128
 52 319 52 309 53 301 c 128
 54 293 57 282 62 271 c 128
 67 260 70 252 73 246 c 128
 76 240 81 232 89 220 c 128
 97 208 103 202 106 198 c 128
 109 194 116 186 126 173 c 0
 138 158 148 146 156 135 c 128
 164 124 173 110 184 94 c 128
 195 78 203 63 208 49 c 128
 213 35 213 22 211 12 c 0
 208 -5 198 -18 182 -27 c 128
 166 -36 149 -41 132 -41 c 0
 117 -41 107 -37 101 -30 c 0
 90 -16 79 -9 67 -9 c 0
 55 -9 45 -13 37 -21 c 128
 29 -29 24 -39 22 -51 c 0
 21 -54 21 -57 21 -63 c 128
 21 -69 22 -73 23 -76 c 1
 38 -85 53 -90 66 -90 c 0
 115 -90 159 -73 201 -39 c 128
 243 -5 268 32 276 73 c 1
 277 81 277 89 278 95 c 128
 279 101 277 108 275 116 c 128
 273 124 271 130 269 135 c 128
 267 140 264 147 260 154 c 128
 256 161 251 167 248 172 c 128
 245 177 241 182 236 189 c 128
 231 196 226 201 222 205 c 128
 218 209 214 215 209 221 c 128
 204 227 200 231 197 235 c 0
 190 243 185 251 180 257 c 128
 175 263 170 270 164 279 c 128
 158 288 153 296 149 303 c 128
 145 310 141 319 137 329 c 128
 133 339 131 348 130 357 c 128
 129 366 127 376 127 387 c 128
 127 398 128 410 130 421 c 0
 134 441 140 457 147 468 c 128
 154 479 166 494 183 511 c 1
EndSplineSet
EndChar
StartChar: copyright
Encoding: 169 169 104
Width: 1232
Flags: HW
LayerCount: 2
Fore
SplineSet
683 910 m 0
 697.666666667 910 714.166666667 908.333333333 732.5 905 c 128
 750.833333333 901.666666667 771.833333333 896.666666667 795.5 890 c 128
 819.166666667 883.333333333 834.333333333 879.333333333 841 878 c 1
 841 876.666666667 842.833333333 856.666666667 846.5 818 c 128
 850.166666667 779.333333333 851.666666667 758 851 754 c 0
 851 752 847.166666667 749.5 839.5 746.5 c 128
 831.833333333 743.5 825.666666667 742 821 742 c 0
 815.666666667 742 812.333333333 742.666666667 811 744 c 1
 809.666666667 755.333333333 807.166666667 766.166666667 803.5 776.5 c 128
 799.833333333 786.833333333 793.833333333 798.833333333 785.5 812.5 c 128
 777.166666667 826.166666667 764 837.166666667 746 845.5 c 128
 728 853.833333333 706.333333333 858 681 858 c 0
 631 858 590.833333333 834.666666667 560.5 788 c 128
 530.166666667 741.333333333 511 685.333333333 503 620 c 0
 494.333333333 551.333333333 500.666666667 493.5 522 446.5 c 128
 543.333333333 399.5 579.666666667 376 631 376 c 0
 674.333333333 376 708.333333333 387.333333333 733 410 c 0
 743.666666667 419.333333333 754.5 432.333333333 765.5 449 c 128
 776.5 465.666666667 784.5 479.333333333 789.5 490 c 128
 794.5 500.666666667 797.666666667 508 799 512 c 1
 818.333333333 512 829.666666667 509.333333333 833 504 c 1
 831 492.666666667 824.166666667 469.333333333 812.5 434 c 128
 800.833333333 398.666666667 792.333333333 380 787 378 c 0
 779.666666667 375.333333333 766.666666667 370.166666667 748 362.5 c 128
 729.333333333 354.833333333 713.833333333 348.833333333 701.5 344.5 c 128
 689.166666667 340.166666667 673.666666667 336 655 332 c 128
 636.333333333 328 619 326 603 326 c 0
 523 326 461.333333333 351.666666667 418 403 c 128
 374.666666667 454.333333333 358.333333333 523.333333333 369 610 c 128
 379.666666667 696.666666667 415.833333333 768.333333333 477.5 825 c 128
 539.166666667 881.666666667 607.666666667 910 683 910 c 0
209 620 m 128
 199 537.333333333 208.666666667 461 238 391 c 128
 267.333333333 321 312 265.666666667 372 225 c 128
 432 184.333333333 500.333333333 164 577 164 c 128
 653.666666667 164 727.166666667 184.333333333 797.5 225 c 128
 867.833333333 265.666666667 926.166666667 321 972.5 391 c 128
 1018.83333333 461 1047 537.333333333 1057 620 c 128
 1067 702.666666667 1057.33333333 779 1028 849 c 128
 998.666666667 919 954 974.333333333 894 1015 c 128
 834 1055.66666667 765.666666667 1076 689 1076 c 128
 612.333333333 1076 538.833333333 1055.66666667 468.5 1015 c 128
 398.166666667 974.333333333 339.833333333 919 293.5 849 c 128
 247.166666667 779 219 702.666666667 209 620 c 128
701 1168 m 128
 793 1168 875.166666667 1143.66666667 947.5 1095 c 128
 1019.83333333 1046.33333333 1073.66666667 980 1109 896 c 128
 1144.33333333 812 1155.66666667 720.666666667 1143 622 c 0
 1130.33333333 522.666666667 1096.16666667 431.166666667 1040.5 347.5 c 128
 984.833333333 263.833333333 915 197.666666667 831 149 c 128
 747 100.333333333 659 76 567 76 c 128
 475 76 393 100.333333333 321 149 c 128
 249 197.666666667 195.5 264 160.5 348 c 128
 125.5 432 114.333333333 523.333333333 127 622 c 0
 139.666666667 721.333333333 173.666666667 812.833333333 229 896.5 c 128
 284.333333333 980.166666667 353.833333333 1046.33333333 437.5 1095 c 128
 521.166666667 1143.66666667 609 1168 701 1168 c 128
EndSplineSet
EndChar
StartChar: ordfeminine
Encoding: 170 170 105
Width: 389
Flags: HW
LayerCount: 2
Fore
SplineSet
260 240 m 0
 247 240 236 243 227 250 c 128
 218 257 214 266 214 280 c 0
 214 283 215 287 216 294 c 0
 216 295 217 297 217 300 c 128
 217 303 218 305 218 306 c 1
 209 291 195 276 175 262 c 128
 155 248 135 241 115 241 c 128
 95 241 81 249 70 264 c 128
 59 279 54 298 54 321 c 0
 54 349 61 377 75 405 c 128
 89 433 108 457 130 476 c 128
 152 495 175 511 201 523 c 128
 227 535 251 541 273 541 c 0
 285 541 300 540 315 537 c 128
 330 534 343 532 350 529 c 1
 307 341 l 2
 307 340 306 336 305 330 c 128
 304 324 304 320 304 319 c 0
 304 310 307 306 314 306 c 0
 321 306 331 312 344 323 c 128
 357 334 363 342 365 346 c 1
 368 344 370 340 372 334 c 128
 374 328 374 323 373 319 c 1
 366 306 349 290 324 270 c 128
 299 250 278 240 260 240 c 0
231 498 m 0
 207 498 186 483 169 452 c 128
 152 421 144 386 144 346 c 0
 144 315 152 299 169 299 c 0
 181 299 194 313 209 340 c 128
 224 367 236 397 243 431 c 2
 257 490 l 1
 252 495 243 498 231 498 c 0
EndSplineSet
EndChar
StartChar: guillemotleft
Encoding: 171 171 106
Width: 466
Flags: HW
LayerCount: 2
Fore
SplineSet
386 90 m 1
 383 85 379 82 373 78 c 128
 367 74 363 72 359 71 c 1
 351 81 l 2
 346 88 339 96 330 106 c 128
 321 116 311 127 299 140 c 128
 287 153 271 166 253 182 c 128
 235 198 217 214 198 228 c 1
 195 232 194 236 195 242 c 0
 196 247 199 252 204 257 c 1
 218 265 232 273 246 282 c 128
 260 291 273 299 285 307 c 128
 297 315 308 323 319 331 c 128
 330 339 341 346 350 353 c 128
 359 360 367 366 375 372 c 128
 383 378 390 383 396 388 c 128
 402 393 407 398 411 401 c 128
 415 404 418 407 421 409 c 128
 424 411 425 413 425 413 c 1
 428 412 432 410 437 406 c 128
 442 402 445 399 446 395 c 1
 441 389 418 365 379 325 c 128
 340 285 311 257 294 242 c 1
 302 232 314 214 329 189 c 128
 344 164 356 142 367 123 c 128
 378 104 384 93 386 90 c 1
217 90 m 1
 214 86 210 82 204 78 c 128
 198 74 193 72 189 71 c 1
 181 81 l 2
 176 88 169 96 160 106 c 128
 151 116 141 127 129 140 c 128
 117 153 102 166 84 182 c 128
 66 198 48 214 29 228 c 1
 25 233 24 237 25 242 c 128
 26 247 29 252 34 257 c 1
 48 265 62 273 76 282 c 128
 90 291 103 299 115 307 c 128
 127 315 138 323 149 331 c 128
 160 339 171 346 180 353 c 128
 189 360 197 366 205 372 c 128
 213 378 220 383 226 388 c 128
 232 393 237 398 241 401 c 128
 245 404 248 407 251 409 c 128
 254 411 255 413 255 413 c 1
 258 412 262 410 267 406 c 128
 272 402 275 399 276 395 c 1
 271 389 248 365 209 325 c 128
 170 285 142 257 125 242 c 1
 133 232 144 214 159 189 c 128
 174 164 187 142 198 123 c 128
 209 104 215 93 217 90 c 1
EndSplineSet
EndChar
StartChar: logicalnot
Encoding: 172 172 107
Width: 1032
Flags: HW
LayerCount: 2
Fore
SplineSet
148 738 m 1
 928 738 l 1
 840 288 l 2
 838.666666667 283.333333333 827.666666667 276.833333333 807 268.5 c 128
 786.333333333 260.166666667 768.666666667 256 754 256 c 0
 744 256 735.833333333 257.666666667 729.5 261 c 128
 723.166666667 264.333333333 720.666666667 268 722 272 c 2
 792 636 l 1
 130 636 l 2
 123.333333333 636 120 641.333333333 120 652 c 0
 120 687.333333333 129.333333333 716 148 738 c 1
EndSplineSet
EndChar
StartChar: registered
Encoding: 174 174 108
Width: 601
Flags: W
HStem: 87 43<208 379> 229 16<192 218 277 300 423 439> 347 19<288 299> 471 19<222 244 302 341> 575 45<256 431>
LayerCount: 2
Fore
SplineSet
334 489 m 0
 379 489 415 464 409 417 c 0
 405 385 364 359 346 354 c 1
 367 316 393 281 393 281 c 0
 415 249 438 245 441 245 c 1
 442 242 439 230 439 229 c 1
 428 228 413 227 398 227 c 0
 370 227 356 240 342 262 c 0
 297 341 l 0
 297 341 294 347 291 347 c 0
 285 347 l 9
 279 288 l 2
 277 271 275 260 277 252 c 0
 278 247 295 244 300 244 c 1
 301 241 300 231 298 229 c 1
 283 231 261 231 245 231 c 0
 229 231 207 231 192 229 c 1
 190 231 192 241 194 244 c 1
 199 244 216 247 218 252 c 0
 222 260 223 271 225 288 c 2
 243 431 l 2
 245 448 246 459 244 467 c 0
 243 472 226 473 221 473 c 1
 220 476 222 487 224 489 c 1
 241 488 262 488 278 488 c 0
 294 488 313 489 334 489 c 0
321 471 m 0
 313 471 304 471 302 467 c 0
 300 462 298 454 297 442 c 2
 288 365 l 17
 303 365 l 0
 326 365 348 384 352 414 c 0
 356 445 345 471 321 471 c 0
346 575 m 0
 232 575 127 476 112 353 c 0
 97 230 177 130 291 130 c 0
 405 130 511 230 526 353 c 0
 541 476 460 575 346 575 c 0
351 620 m 0
 488 620 587 501 568 354 c 0
 549 207 422 87 285 87 c 0
 148 87 52 207 71 354 c 0
 90 501 214 620 351 620 c 0
EndSplineSet
EndChar
StartChar: degree
Encoding: 176 176 110
Width: 274
Flags: HW
LayerCount: 2
Fore
SplineSet
128 524 m 0
 124 506 128 492 137 479 c 128
 146 466 158 460 174 460 c 128
 190 460 205 466 219 479 c 128
 233 492 242 506 246 524 c 0
 249 542 246 557 237 569 c 128
 228 581 216 588 200 588 c 128
 184 588 168 581 154 569 c 128
 140 557 131 542 128 524 c 0
86 524 m 128
 92 554 107 580 131 601 c 128
 155 622 180 632 208 632 c 0
 236 632 257 621 273 600 c 128
 289 579 294 554 288 524 c 0
 282 494 267 468 243 447 c 128
 219 426 194 415 166 415 c 128
 138 415 116 426 101 447 c 128
 86 468 80 494 86 524 c 128
EndSplineSet
EndChar
StartChar: plusminus
Encoding: 177 177 111
Width: 1022
Flags: W
LayerCount: 2
Fore
SplineSet
830 124 m 2,0,1
 836 124 836 124 836 108 c 0,2,3
 836 50 836 50 810 22 c 1,4,-1
 28 22 l 2,5,6
 18 22 18 22 18 38 c 0,7,8
 18 85 18 85 48 124 c 1,9,-1
 830 124 l 2,0,1
144 614 m 2,10,11
 134 614 134 614 134 630 c 0,12,13
 134 677 134 677 164 716 c 1,14,-1
 498 716 l 1,15,-1
 564 1058 l 2,16,17
 567 1074 567 1074 604.5 1082 c 128,-1,18
 642 1090 642 1090 662 1090 c 0,19,20
 673 1090 673 1090 677.5 1085.5 c 128,-1,21
 682 1081 682 1081 680 1074 c 2,22,-1
 610 716 l 1,23,-1
 946 716 l 2,24,25
 952 716 952 716 952 700 c 0,26,27
 952 642 952 642 926 614 c 1,28,-1
 594 614 l 1,29,-1
 524 266 l 2,30,31
 521 252 521 252 493 243 c 128,-1,32
 465 234 465 234 438 234 c 0,33,34
 424 234 424 234 416 239 c 128,-1,35
 408 244 408 244 410 250 c 2,36,-1
 482 614 l 1,37,-1
 144 614 l 2,10,11
EndSplineSet
EndChar
StartChar: uni00B2
Encoding: 178 178 112
Width: 678
Flags: HW
LayerCount: 2
Back
SplineSet
748.200195312 1105.79980469 m 0
 748.200195312 1057.46321744 733.820818905 1012.51898713 705.06206609 970.967113752 c 0
 676.303313275 929.415240375 634.469148016 884.892999332 579.559570312 837.400390625 c 0
 564.323085911 824.221625432 548.150631803 810.409345207 531.04220799 795.963549951 c 0
 513.933784177 781.517754694 497.983821765 768.167224605 483.192320754 755.911959684 c 0
 468.400819743 743.656694762 453.76656052 731.587551624 439.289543085 719.704530271 c 0
 424.81252565 707.821508918 411.964376285 697.316499738 400.745094989 688.189502732 c 0
 389.525813692 679.062505727 379.598506 670.977059974 370.963171912 663.933165475 c 0
 362.327837823 656.889270976 355.791778472 651.506135658 351.354993859 647.78375952 c 0
 346.918209246 644.061383381 344.86660973 642.200195312 345.200195312 642.200195312 c 2
 558.48046875 642.200195312 l 2
 588.095708349 642.200195312 610.755467357 649.557791805 626.459745773 664.272984792 c 0
 642.164024189 678.988177778 654.637403202 698.470425035 663.879882812 722.719726562 c 0
 666.668573289 730.040039062 672.868768601 733.700195312 682.48046875 733.700195312 c 0
 688.818002414 733.700195312 695.844369601 730.853515625 703.559570312 725.16015625 c 1
 701.986765985 721.475789121 669.333445672 649.089070371 605.599609375 508 c 1
 184 508 l 2
 181.403392009 508 179.15826288 510.710241183 177.264612613 516.13072355 c 0
 175.370962346 521.551205917 174.722862308 527.787579317 175.3203125 534.83984375 c 1
 210.659392157 566.448473563 257.508109218 612.509267171 315.866463683 673.022224572 c 0
 374.224818148 733.535181973 420.376101087 784.261172219 454.3203125 825.200195312 c 0
 532.853515625 919.913881825 572.120117188 1004.50047037 572.120117188 1078.95996094 c 0
 572.120117188 1111.56971393 563.135876084 1137.81883187 545.167393877 1157.70731474 c 0
 527.19891167 1177.59579762 501.876512149 1187.54003906 469.200195312 1187.54003906 c 0
 452.594786288 1187.54003906 435.990712675 1184.18666513 419.387974474 1177.47991728 c 0
 402.785236273 1170.77316943 388.272756667 1162.28716826 375.850535658 1152.02191377 c 0
 363.428314648 1141.75665928 353.954455956 1133.37872816 347.428959582 1126.88812041 c 0
 340.903463208 1120.39751266 335.613666785 1114.58812617 331.559570312 1109.45996094 c 1
 326.289883056 1109.45996094 321.21380993 1112.20496225 316.331350935 1117.69496487 c 0
 311.448891939 1123.1849675 308.671774961 1128.57342973 308 1133.86035156 c 1
 311.920798904 1142.62775983 321.530278477 1155.20889192 336.82843872 1171.60374782 c 0
 352.126598963 1187.99860372 370.921357467 1205.36475141 393.212714234 1223.7021909 c 0
 415.504071001 1242.03963039 441.840182044 1257.88033084 472.221047363 1271.22429225 c 0
 502.601912682 1284.56825367 531.768139082 1291.24023438 559.719726562 1291.24023438 c 0
 608.622020781 1291.24023438 652.261005795 1274.32322278 690.636681602 1240.48919957 c 0
 729.012357409 1206.65517637 748.200195312 1161.75871141 748.200195312 1105.79980469 c 0
EndSplineSet
Fore
SplineSet
672 1106 m 0
 672 1056.66666667 652 1005.5 612 952.5 c 128
 572 899.5 525.333333333 850.666666667 472 806 c 0
 458.666666667 794.666666667 440.5 779 417.5 759 c 128
 394.5 739 373.5 721.5 354.5 706.5 c 128
 335.5 691.5 314 676 290 660 c 1
 474 660 l 2
 484 660 493.5 661.666666667 502.5 665 c 128
 511.5 668.333333333 518.833333333 671.833333333 524.5 675.5 c 128
 530.166666667 679.166666667 536.666666667 685.333333333 544 694 c 128
 551.333333333 702.666666667 556.5 709.333333333 559.5 714 c 128
 562.5 718.666666667 567.5 726.666666667 574.5 738 c 128
 581.5 749.333333333 586 756.666666667 588 760 c 0
 592.666666667 766.666666667 598.666666667 770 606 770 c 0
 620.666666667 770 630 768 634 764 c 1
 623.333333333 737.333333333 602.5 691.333333333 571.5 626 c 128
 540.5 560.666666667 521.333333333 521.333333333 514 508 c 1
 92 508 l 1
 86.6666666667 516 84 525.333333333 84 536 c 1
 182 630 274 724 360 818 c 0
 448 914.666666667 492 1000 492 1074 c 0
 492 1143.33333333 460.666666667 1178 398 1178 c 0
 382.666666667 1178 367.5 1175.5 352.5 1170.5 c 128
 337.5 1165.5 324.166666667 1159 312.5 1151 c 128
 300.833333333 1143 290.833333333 1135.33333333 282.5 1128 c 128
 274.166666667 1120.66666667 266.5 1113.33333333 259.5 1106 c 128
 252.5 1098.66666667 248.666666667 1094.66666667 248 1094 c 1
 243.333333333 1094 237.333333333 1097.33333333 230 1104 c 128
 222.666666667 1110.66666667 220 1119.33333333 222 1130 c 1
 231.333333333 1144 243.333333333 1158.83333333 258 1174.5 c 128
 272.666666667 1190.16666667 291 1207.16666667 313 1225.5 c 128
 335 1243.83333333 360.666666667 1258.83333333 390 1270.5 c 128
 419.333333333 1282.16666667 449.333333333 1288 480 1288 c 0
 541.333333333 1288 588.666666667 1270.16666667 622 1234.5 c 128
 655.333333333 1198.83333333 672 1156 672 1106 c 0
EndSplineSet
EndChar
